<svg width="74" height="74" viewBox="0 0 74 74" fill="none" xmlns="http://www.w3.org/2000/svg">
<path d="M61.0521 26.7256V25.9243H48.4602L42.7939 47.5975L36.5171 25.9243H32.7395V43.7628L36.0973 55.3816H41.9926L49.0707 28.2901H49.2615V54.5994H46.6668V55.3816H61.0521V54.5994H58.4574V26.7256H61.0521Z" fill="#DF4F3A"/>
<path d="M18.7531 55.992C17.4939 55.992 18.7531 59.0255 20.3366 59.0255C22.4352 59.0255 22.9504 57.4802 22.9504 50.7645V26.8019H19.9169V25.9624H31.612V44.1443C31.612 53.8362 28.6358 59.8078 20.3748 59.8078C14.7275 59.8078 12.915 57.0032 12.915 54.6375C12.915 51.8329 14.8801 50.4402 17.2077 50.4402C19.6879 50.4402 20.7945 52.0237 20.7945 54.027C20.7945 55.2098 20.0313 55.992 18.734 55.992H18.7531ZM27.1667 14.1719C24.553 14.1719 22.4543 16.2896 22.4543 18.8843C22.4543 21.4789 24.572 23.5967 27.1667 23.5967C29.7614 23.5967 31.8791 21.4789 31.8791 18.8843C31.8791 16.2896 29.7614 14.1719 27.1667 14.1719Z" fill="#DF4F3A"/>
<path d="M36.9933 74.0025C16.5983 74.0025 0 57.4041 0 37.0092C0 16.6142 16.5983 0.0158691 36.9933 0.0158691C57.3883 0.0158691 73.9866 16.6142 73.9866 37.0092C73.9866 57.4041 57.3883 74.0025 36.9933 74.0025ZM36.9933 1.94281C17.6667 1.94281 1.94601 17.6635 1.94601 36.9901C1.94601 56.3167 17.6667 72.0374 36.9933 72.0374C56.3199 72.0374 72.0406 56.3167 72.0406 36.9901C72.0406 17.6635 56.3199 1.94281 36.9933 1.94281Z" fill="#DF4F3A"/>
</svg>
