<svg width="364" height="758" viewBox="0 0 364 758" fill="none" xmlns="http://www.w3.org/2000/svg">
<path d="M175.795 45.6L162.595 93.6L158.195 75.6C163.929 75.6 168.595 77.2667 172.195 80.6C175.795 83.9333 177.595 88.5333 177.595 94.4C177.595 100.133 175.729 104.8 171.995 108.4C168.395 111.867 163.862 113.6 158.395 113.6C152.795 113.6 148.129 111.867 144.395 108.4C140.795 104.8 138.995 100.133 138.995 94.4C138.995 92.6667 139.129 91 139.395 89.4C139.662 87.6667 140.195 85.6667 140.995 83.4C141.795 81.1333 142.929 78.1333 144.395 74.4L155.995 45.6H175.795ZM222.995 45.6L209.795 93.6L205.395 75.6C211.129 75.6 215.795 77.2667 219.395 80.6C222.995 83.9333 224.795 88.5333 224.795 94.4C224.795 100.133 222.929 104.8 219.195 108.4C215.595 111.867 211.062 113.6 205.595 113.6C199.995 113.6 195.329 111.867 191.595 108.4C187.995 104.8 186.195 100.133 186.195 94.4C186.195 92.6667 186.329 91 186.595 89.4C186.862 87.6667 187.395 85.6667 188.195 83.4C188.995 81.1333 190.129 78.1333 191.595 74.4L203.195 45.6H222.995Z" fill="#DF4F3A"/>
<path d="M37.5429 189L31.8469 166.536H37.7029L40.9349 182.888L44.9349 166.536H50.9509L54.7909 182.888L58.0549 166.536H63.9429L58.0869 189H51.4629L47.8789 174.216L44.1669 189H37.5429ZM66.6871 189V165.32H72.1591V173.544C73.2471 172.008 75.1991 170.952 77.6631 170.952C81.7271 170.952 84.4471 173.768 84.4471 178.568V189H79.0071V179.304C79.0071 176.872 77.6631 175.528 75.5831 175.528C73.5031 175.528 72.1591 176.872 72.1591 179.304V189H66.6871ZM96.1216 175.272C94.3296 175.272 92.9536 176.36 92.6336 178.344H99.4816C99.4816 176.392 97.9456 175.272 96.1216 175.272ZM104.666 183.08C103.802 186.568 100.634 189.256 96.1856 189.256C90.9376 189.256 87.1616 185.736 87.1616 180.072C87.1616 174.408 90.8736 170.888 96.1856 170.888C101.402 170.888 105.082 174.344 105.082 179.784C105.082 180.296 105.05 180.84 104.986 181.384H92.6016C92.7936 183.72 94.2336 184.808 95.9936 184.808C97.5296 184.808 98.3936 184.04 98.8416 183.08H104.666ZM113.44 180.712V189H107.968V171.144H113.44V174.12C114.688 172.232 116.64 170.952 119.04 170.952V176.744H117.536C114.944 176.744 113.44 177.64 113.44 180.712ZM129.528 175.272C127.736 175.272 126.36 176.36 126.04 178.344H132.888C132.888 176.392 131.352 175.272 129.528 175.272ZM138.072 183.08C137.208 186.568 134.04 189.256 129.592 189.256C124.344 189.256 120.568 185.736 120.568 180.072C120.568 174.408 124.28 170.888 129.592 170.888C134.808 170.888 138.488 174.344 138.488 179.784C138.488 180.296 138.456 180.84 138.392 181.384H126.008C126.2 183.72 127.64 184.808 129.4 184.808C130.936 184.808 131.8 184.04 132.248 183.08H138.072ZM139.679 171.144H145.535L149.407 183.88L153.279 171.144H159.103L152.767 189H146.015L139.679 171.144ZM169.278 175.272C167.486 175.272 166.11 176.36 165.79 178.344H172.638C172.638 176.392 171.102 175.272 169.278 175.272ZM177.822 183.08C176.958 186.568 173.79 189.256 169.342 189.256C164.094 189.256 160.318 185.736 160.318 180.072C160.318 174.408 164.03 170.888 169.342 170.888C174.558 170.888 178.238 174.344 178.238 179.784C178.238 180.296 178.206 180.84 178.142 181.384H165.758C165.95 183.72 167.39 184.808 169.15 184.808C170.686 184.808 171.55 184.04 171.998 183.08H177.822ZM186.597 180.712V189H181.125V171.144H186.597V174.12C187.845 172.232 189.797 170.952 192.197 170.952V176.744H190.693C188.101 176.744 186.597 177.64 186.597 180.712ZM209.817 182.312L213.913 171.144H219.833L208.633 197.48H202.745L206.841 188.392L199.577 171.144H205.689L209.817 182.312ZM239.284 180.072C239.284 185.736 235.188 189.256 229.94 189.256C224.692 189.256 220.724 185.736 220.724 180.072C220.724 174.408 224.788 170.888 230.004 170.888C235.252 170.888 239.284 174.408 239.284 180.072ZM226.292 180.072C226.292 183.08 227.956 184.52 229.94 184.52C231.892 184.52 233.716 183.08 233.716 180.072C233.716 177.032 231.924 175.624 230.004 175.624C228.02 175.624 226.292 177.032 226.292 180.072ZM259.819 171.144V189H254.347V186.568C253.259 188.104 251.339 189.192 248.939 189.192C244.811 189.192 242.027 186.344 242.027 181.576V171.144H247.467V180.84C247.467 183.272 248.843 184.616 250.891 184.616C253.003 184.616 254.347 183.272 254.347 180.84V171.144H259.819ZM269.443 180.04C269.443 174.408 272.931 170.888 277.315 170.888C279.971 170.888 281.859 172.104 282.819 173.672V171.144H288.291V189H282.819V186.472C281.827 188.04 279.939 189.256 277.283 189.256C272.931 189.256 269.443 185.672 269.443 180.04ZM282.819 180.072C282.819 177.224 280.995 175.656 278.915 175.656C276.867 175.656 275.011 177.192 275.011 180.04C275.011 182.888 276.867 184.488 278.915 184.488C280.995 184.488 282.819 182.92 282.819 180.072ZM297.722 180.712V189H292.25V171.144H297.722V174.12C298.97 172.232 300.922 170.952 303.322 170.952V176.744H301.818C299.226 176.744 297.722 177.64 297.722 180.712ZM313.809 175.272C312.017 175.272 310.641 176.36 310.321 178.344H317.169C317.169 176.392 315.633 175.272 313.809 175.272ZM322.353 183.08C321.489 186.568 318.321 189.256 313.873 189.256C308.625 189.256 304.849 185.736 304.849 180.072C304.849 174.408 308.561 170.888 313.873 170.888C319.089 170.888 322.769 174.344 322.769 179.784C322.769 180.296 322.737 180.84 322.673 181.384H310.289C310.481 183.72 311.921 184.808 313.681 184.808C315.217 184.808 316.081 184.04 316.529 183.08H322.353ZM324.28 193.832L326.328 183.464H331.928L327.864 193.832H324.28ZM29.7889 244L24.9249 226.144H30.3969L32.9249 238.912L35.9329 226.144H41.7249L44.7649 238.848L47.2609 226.144H52.4129L47.5809 244H41.5329L38.7169 232.416L35.8049 244H29.7889ZM62.3716 230.272C60.5796 230.272 59.2036 231.36 58.8836 233.344H65.7316C65.7316 231.392 64.1956 230.272 62.3716 230.272ZM70.9156 238.08C70.0516 241.568 66.8836 244.256 62.4356 244.256C57.1876 244.256 53.4116 240.736 53.4116 235.072C53.4116 229.408 57.1236 225.888 62.4356 225.888C67.6516 225.888 71.3316 229.344 71.3316 234.784C71.3316 235.296 71.2996 235.84 71.2356 236.384H58.8516C59.0436 238.72 60.4836 239.808 62.2436 239.808C63.7796 239.808 64.6436 239.04 65.0916 238.08H70.9156ZM77.4824 230.112H73.8024L75.4664 221.536H81.0664L77.4824 230.112ZM89.7529 235.712V244H84.2809V226.144H89.7529V229.12C91.0009 227.232 92.9529 225.952 95.3529 225.952V231.744H93.8489C91.2569 231.744 89.7529 232.64 89.7529 235.712ZM105.84 230.272C104.048 230.272 102.672 231.36 102.352 233.344H109.2C109.2 231.392 107.664 230.272 105.84 230.272ZM114.384 238.08C113.52 241.568 110.352 244.256 105.904 244.256C100.656 244.256 96.8804 240.736 96.8804 235.072C96.8804 229.408 100.592 225.888 105.904 225.888C111.12 225.888 114.8 229.344 114.8 234.784C114.8 235.296 114.768 235.84 114.704 236.384H102.32C102.512 238.72 103.952 239.808 105.712 239.808C107.248 239.808 108.112 239.04 108.56 238.08H114.384ZM124.468 244V220.32H129.94V228.544C131.028 227.008 132.98 225.952 135.444 225.952C139.508 225.952 142.228 228.768 142.228 233.568V244H136.788V234.304C136.788 231.872 135.444 230.528 133.364 230.528C131.284 230.528 129.94 231.872 129.94 234.304V244H124.468ZM153.903 230.272C152.111 230.272 150.735 231.36 150.415 233.344H157.263C157.263 231.392 155.727 230.272 153.903 230.272ZM162.447 238.08C161.583 241.568 158.415 244.256 153.967 244.256C148.719 244.256 144.943 240.736 144.943 235.072C144.943 229.408 148.655 225.888 153.967 225.888C159.183 225.888 162.863 229.344 162.863 234.784C162.863 235.296 162.831 235.84 162.767 236.384H150.383C150.575 238.72 152.015 239.808 153.775 239.808C155.311 239.808 156.175 239.04 156.623 238.08H162.447ZM171.222 235.712V244H165.75V226.144H171.222V229.12C172.47 227.232 174.422 225.952 176.822 225.952V231.744H175.318C172.726 231.744 171.222 232.64 171.222 235.712ZM187.309 230.272C185.517 230.272 184.141 231.36 183.821 233.344H190.669C190.669 231.392 189.133 230.272 187.309 230.272ZM195.853 238.08C194.989 241.568 191.821 244.256 187.373 244.256C182.125 244.256 178.349 240.736 178.349 235.072C178.349 229.408 182.061 225.888 187.373 225.888C192.589 225.888 196.269 229.344 196.269 234.784C196.269 235.296 196.237 235.84 196.173 236.384H183.789C183.981 238.72 185.421 239.808 187.181 239.808C188.717 239.808 189.581 239.04 190.029 238.08H195.853ZM206.801 237.792V230.688H204.625V226.144H206.801V221.792H212.273V226.144H215.857V230.688H212.273V237.856C212.273 238.912 212.721 239.36 213.937 239.36H215.889V244H213.105C209.393 244 206.801 242.432 206.801 237.792ZM236.409 235.072C236.409 240.736 232.313 244.256 227.065 244.256C221.817 244.256 217.849 240.736 217.849 235.072C217.849 229.408 221.913 225.888 227.129 225.888C232.377 225.888 236.409 229.408 236.409 235.072ZM223.417 235.072C223.417 238.08 225.081 239.52 227.065 239.52C229.017 239.52 230.841 238.08 230.841 235.072C230.841 232.032 229.049 230.624 227.129 230.624C225.145 230.624 223.417 232.032 223.417 235.072ZM270.701 244V234.304C270.701 231.968 269.357 230.688 267.277 230.688C265.197 230.688 263.853 231.968 263.853 234.304V244H258.413V234.304C258.413 231.968 257.069 230.688 254.989 230.688C252.909 230.688 251.565 231.968 251.565 234.304V244H246.093V226.144H251.565V228.384C252.621 226.944 254.445 225.952 256.781 225.952C259.469 225.952 261.645 227.136 262.861 229.28C264.045 227.392 266.285 225.952 268.877 225.952C273.293 225.952 276.141 228.768 276.141 233.568V244H270.701ZM278.88 235.04C278.88 229.408 282.368 225.888 286.752 225.888C289.408 225.888 291.296 227.104 292.256 228.672V226.144H297.728V244H292.256V241.472C291.264 243.04 289.376 244.256 286.72 244.256C282.368 244.256 278.88 240.672 278.88 235.04ZM292.256 235.072C292.256 232.224 290.432 230.656 288.352 230.656C286.304 230.656 284.448 232.192 284.448 235.04C284.448 237.888 286.304 239.488 288.352 239.488C290.432 239.488 292.256 237.92 292.256 235.072ZM301.687 244V220.32H307.159V233.408L312.567 226.144H319.319L311.895 235.104L319.383 244H312.599L307.159 236.512V244H301.687ZM329.34 230.272C327.548 230.272 326.172 231.36 325.852 233.344H332.7C332.7 231.392 331.164 230.272 329.34 230.272ZM337.884 238.08C337.02 241.568 333.852 244.256 329.404 244.256C324.156 244.256 320.38 240.736 320.38 235.072C320.38 229.408 324.092 225.888 329.404 225.888C334.62 225.888 338.3 229.344 338.3 234.784C338.3 235.296 338.268 235.84 338.204 236.384H325.82C326.012 238.72 327.452 239.808 329.212 239.808C330.748 239.808 331.612 239.04 332.06 238.08H337.884ZM63.859 299V275.32H69.331V299H63.859ZM81.1685 285.272C79.3765 285.272 78.0005 286.36 77.6805 288.344H84.5285C84.5285 286.392 82.9925 285.272 81.1685 285.272ZM89.7125 293.08C88.8485 296.568 85.6805 299.256 81.2325 299.256C75.9845 299.256 72.2085 295.736 72.2085 290.072C72.2085 284.408 75.9205 280.888 81.2325 280.888C86.4485 280.888 90.1285 284.344 90.1285 289.784C90.1285 290.296 90.0965 290.84 90.0325 291.384H77.6485C77.8405 293.72 79.2805 294.808 81.0405 294.808C82.5765 294.808 83.4405 294.04 83.8885 293.08H89.7125ZM91.9273 290.04C91.9273 284.408 95.4153 280.888 99.7993 280.888C102.423 280.888 104.343 282.072 105.303 283.672V281.144H110.775V298.968C110.775 303.736 108.023 307.8 101.847 307.8C96.5353 307.8 93.0793 305.112 92.5993 300.856H98.0073C98.3593 302.2 99.7033 303.064 101.591 303.064C103.671 303.064 105.303 301.976 105.303 298.968V296.44C104.311 298.008 102.423 299.256 99.7993 299.256C95.4153 299.256 91.9273 295.672 91.9273 290.04ZM105.303 290.072C105.303 287.224 103.479 285.656 101.399 285.656C99.3513 285.656 97.4953 287.192 97.4953 290.04C97.4953 292.888 99.3513 294.488 101.399 294.488C103.479 294.488 105.303 292.92 105.303 290.072ZM113.646 290.04C113.646 284.408 117.134 280.888 121.518 280.888C124.174 280.888 126.062 282.104 127.022 283.672V281.144H132.494V299H127.022V296.472C126.03 298.04 124.142 299.256 121.486 299.256C117.134 299.256 113.646 295.672 113.646 290.04ZM127.022 290.072C127.022 287.224 125.198 285.656 123.118 285.656C121.07 285.656 119.214 287.192 119.214 290.04C119.214 292.888 121.07 294.488 123.118 294.488C125.198 294.488 127.022 292.92 127.022 290.072ZM136.453 299V275.32H141.925V299H136.453ZM167.168 293.816C167.168 296.92 164.416 299.256 159.936 299.256C155.168 299.256 151.968 296.6 151.712 293.144H157.12C157.248 294.392 158.368 295.224 159.872 295.224C161.28 295.224 162.016 294.584 162.016 293.784C162.016 290.904 152.288 292.984 152.288 286.424C152.288 283.384 154.88 280.888 159.552 280.888C164.16 280.888 166.72 283.448 167.072 286.968H162.016C161.856 285.752 160.928 284.952 159.392 284.952C158.112 284.952 157.408 285.464 157.408 286.328C157.408 289.176 167.072 287.16 167.168 293.816ZM187.987 290.072C187.987 295.736 183.891 299.256 178.643 299.256C173.395 299.256 169.427 295.736 169.427 290.072C169.427 284.408 173.491 280.888 178.707 280.888C183.955 280.888 187.987 284.408 187.987 290.072ZM174.995 290.072C174.995 293.08 176.659 294.52 178.643 294.52C180.595 294.52 182.419 293.08 182.419 290.072C182.419 287.032 180.627 285.624 178.707 285.624C176.723 285.624 174.995 287.032 174.995 290.072ZM190.89 299V275.32H196.362V299H190.89ZM217.96 281.144V299H212.488V296.568C211.4 298.104 209.48 299.192 207.08 299.192C202.952 299.192 200.168 296.344 200.168 291.576V281.144H205.608V290.84C205.608 293.272 206.984 294.616 209.032 294.616C211.144 294.616 212.488 293.272 212.488 290.84V281.144H217.96ZM222.754 292.792V285.688H220.578V281.144H222.754V276.792H228.226V281.144H231.81V285.688H228.226V292.856C228.226 293.912 228.674 294.36 229.89 294.36H231.842V299H229.058C225.346 299 222.754 297.432 222.754 292.792ZM234.89 299V281.144H240.362V299H234.89ZM237.642 279.288C235.69 279.288 234.378 277.976 234.378 276.344C234.378 274.68 235.69 273.368 237.642 273.368C239.562 273.368 240.874 274.68 240.874 276.344C240.874 277.976 239.562 279.288 237.642 279.288ZM261.8 290.072C261.8 295.736 257.704 299.256 252.456 299.256C247.208 299.256 243.24 295.736 243.24 290.072C243.24 284.408 247.304 280.888 252.52 280.888C257.768 280.888 261.8 284.408 261.8 290.072ZM248.808 290.072C248.808 293.08 250.472 294.52 252.456 294.52C254.408 294.52 256.232 293.08 256.232 290.072C256.232 287.032 254.44 285.624 252.52 285.624C250.536 285.624 248.808 287.032 248.808 290.072ZM277.023 299V289.304C277.023 286.872 275.679 285.528 273.599 285.528C271.519 285.528 270.175 286.872 270.175 289.304V299H264.703V281.144H270.175V283.512C271.263 282.008 273.183 280.952 275.583 280.952C279.711 280.952 282.463 283.768 282.463 288.568V299H277.023ZM300.761 293.816C300.761 296.92 298.009 299.256 293.529 299.256C288.761 299.256 285.561 296.6 285.305 293.144H290.713C290.841 294.392 291.961 295.224 293.465 295.224C294.873 295.224 295.609 294.584 295.609 293.784C295.609 290.904 285.881 292.984 285.881 286.424C285.881 283.384 288.473 280.888 293.145 280.888C297.753 280.888 300.313 283.448 300.665 286.968H295.609C295.449 285.752 294.521 284.952 292.985 284.952C291.705 284.952 291.001 285.464 291.001 286.328C291.001 289.176 300.665 287.16 300.761 293.816ZM36.6206 348.816C36.6206 351.92 33.8686 354.256 29.3886 354.256C24.6206 354.256 21.4206 351.6 21.1646 348.144H26.5726C26.7006 349.392 27.8206 350.224 29.3246 350.224C30.7326 350.224 31.4686 349.584 31.4686 348.784C31.4686 345.904 21.7406 347.984 21.7406 341.424C21.7406 338.384 24.3326 335.888 29.0046 335.888C33.6126 335.888 36.1726 338.448 36.5246 341.968H31.4686C31.3086 340.752 30.3806 339.952 28.8446 339.952C27.5646 339.952 26.8606 340.464 26.8606 341.328C26.8606 344.176 36.5246 342.16 36.6206 348.816ZM39.9684 354V336.144H45.4404V354H39.9684ZM42.7204 334.288C40.7684 334.288 39.4564 332.976 39.4564 331.344C39.4564 329.68 40.7684 328.368 42.7204 328.368C44.6404 328.368 45.9524 329.68 45.9524 331.344C45.9524 332.976 44.6404 334.288 42.7204 334.288ZM74.0139 354V344.304C74.0139 341.968 72.6699 340.688 70.5899 340.688C68.5099 340.688 67.1659 341.968 67.1659 344.304V354H61.7259V344.304C61.7259 341.968 60.3819 340.688 58.3019 340.688C56.2219 340.688 54.8779 341.968 54.8779 344.304V354H49.4059V336.144H54.8779V338.384C55.9339 336.944 57.7579 335.952 60.0939 335.952C62.7819 335.952 64.9579 337.136 66.1739 339.28C67.3579 337.392 69.5979 335.952 72.1899 335.952C76.6059 335.952 79.4539 338.768 79.4539 343.568V354H74.0139ZM88.7529 338.672C89.7449 337.104 91.6329 335.888 94.2569 335.888C98.6409 335.888 102.129 339.408 102.129 345.04C102.129 350.672 98.6409 354.256 94.2569 354.256C91.6329 354.256 89.7449 353.008 88.7529 351.504V362.512H83.2809V336.144H88.7529V338.672ZM96.5609 345.04C96.5609 342.192 94.7049 340.656 92.6249 340.656C90.5769 340.656 88.7209 342.224 88.7209 345.072C88.7209 347.92 90.5769 349.488 92.6249 349.488C94.7049 349.488 96.5609 347.888 96.5609 345.04ZM105 354V330.32H110.472V354H105ZM122.309 340.272C120.517 340.272 119.141 341.36 118.821 343.344H125.669C125.669 341.392 124.133 340.272 122.309 340.272ZM130.853 348.08C129.989 351.568 126.821 354.256 122.373 354.256C117.125 354.256 113.349 350.736 113.349 345.072C113.349 339.408 117.061 335.888 122.373 335.888C127.589 335.888 131.269 339.344 131.269 344.784C131.269 345.296 131.237 345.84 131.173 346.384H118.789C118.981 348.72 120.421 349.808 122.181 349.808C123.717 349.808 124.581 349.04 125.029 348.08H130.853ZM132.78 358.832L134.828 348.464H140.428L136.364 358.832H132.78ZM149.13 345.072C149.13 339.44 152.842 335.888 158.09 335.888C162.57 335.888 165.738 338.352 166.666 342.608H160.842C160.394 341.36 159.498 340.56 157.994 340.56C156.042 340.56 154.698 342.096 154.698 345.072C154.698 348.048 156.042 349.584 157.994 349.584C159.498 349.584 160.362 348.848 160.842 347.536H166.666C165.738 351.664 162.57 354.256 158.09 354.256C152.842 354.256 149.13 350.736 149.13 345.072ZM187.065 345.072C187.065 350.736 182.969 354.256 177.721 354.256C172.473 354.256 168.505 350.736 168.505 345.072C168.505 339.408 172.569 335.888 177.785 335.888C183.033 335.888 187.065 339.408 187.065 345.072ZM174.073 345.072C174.073 348.08 175.737 349.52 177.721 349.52C179.673 349.52 181.497 348.08 181.497 345.072C181.497 342.032 179.705 340.624 177.785 340.624C175.801 340.624 174.073 342.032 174.073 345.072ZM202.288 354V344.304C202.288 341.872 200.944 340.528 198.864 340.528C196.784 340.528 195.44 341.872 195.44 344.304V354H189.968V336.144H195.44V338.512C196.528 337.008 198.448 335.952 200.848 335.952C204.976 335.952 207.728 338.768 207.728 343.568V354H202.288ZM209.835 336.144H215.691L219.563 348.88L223.435 336.144H229.259L222.923 354H216.171L209.835 336.144ZM239.434 340.272C237.642 340.272 236.266 341.36 235.946 343.344H242.794C242.794 341.392 241.258 340.272 239.434 340.272ZM247.978 348.08C247.114 351.568 243.946 354.256 239.498 354.256C234.25 354.256 230.474 350.736 230.474 345.072C230.474 339.408 234.186 335.888 239.498 335.888C244.714 335.888 248.394 339.344 248.394 344.784C248.394 345.296 248.362 345.84 248.298 346.384H235.914C236.106 348.72 237.546 349.808 239.306 349.808C240.842 349.808 241.706 349.04 242.154 348.08H247.978ZM263.601 354V344.304C263.601 341.872 262.257 340.528 260.177 340.528C258.097 340.528 256.753 341.872 256.753 344.304V354H251.281V336.144H256.753V338.512C257.841 337.008 259.761 335.952 262.161 335.952C266.289 335.952 269.041 338.768 269.041 343.568V354H263.601ZM272.843 354V336.144H278.315V354H272.843ZM275.595 334.288C273.643 334.288 272.331 332.976 272.331 331.344C272.331 329.68 273.643 328.368 275.595 328.368C277.515 328.368 278.827 329.68 278.827 331.344C278.827 332.976 277.515 334.288 275.595 334.288ZM290.153 340.272C288.361 340.272 286.985 341.36 286.665 343.344H293.513C293.513 341.392 291.977 340.272 290.153 340.272ZM298.697 348.08C297.833 351.568 294.665 354.256 290.217 354.256C284.969 354.256 281.193 350.736 281.193 345.072C281.193 339.408 284.905 335.888 290.217 335.888C295.433 335.888 299.113 339.344 299.113 344.784C299.113 345.296 299.081 345.84 299.017 346.384H286.633C286.825 348.72 288.265 349.808 290.025 349.808C291.561 349.808 292.425 349.04 292.873 348.08H298.697ZM314.32 354V344.304C314.32 341.872 312.976 340.528 310.896 340.528C308.816 340.528 307.472 341.872 307.472 344.304V354H302V336.144H307.472V338.512C308.56 337.008 310.48 335.952 312.88 335.952C317.008 335.952 319.76 338.768 319.76 343.568V354H314.32ZM324.426 347.792V340.688H322.25V336.144H324.426V331.792H329.898V336.144H333.482V340.688H329.898V347.856C329.898 348.912 330.346 349.36 331.562 349.36H333.514V354H330.73C327.018 354 324.426 352.432 324.426 347.792ZM335.186 358.832L337.234 348.464H342.834L338.77 358.832H335.186ZM29.5366 400.04C29.5366 394.408 33.0246 390.888 37.4086 390.888C40.0646 390.888 41.9526 392.104 42.9126 393.672V391.144H48.3846V409H42.9126V406.472C41.9206 408.04 40.0326 409.256 37.3766 409.256C33.0246 409.256 29.5366 405.672 29.5366 400.04ZM42.9126 400.072C42.9126 397.224 41.0886 395.656 39.0086 395.656C36.9606 395.656 35.1046 397.192 35.1046 400.04C35.1046 402.888 36.9606 404.488 39.0086 404.488C41.0886 404.488 42.9126 402.92 42.9126 400.072ZM64.6634 409V399.304C64.6634 396.872 63.3194 395.528 61.2394 395.528C59.1594 395.528 57.8154 396.872 57.8154 399.304V409H52.3434V391.144H57.8154V393.512C58.9034 392.008 60.8234 390.952 63.2234 390.952C67.3514 390.952 70.1034 393.768 70.1034 398.568V409H64.6634ZM72.8179 400.04C72.8179 394.408 76.3059 390.888 80.6899 390.888C83.0579 390.888 85.1059 391.976 86.1939 393.608V385.32H91.6659V409H86.1939V406.44C85.2019 408.072 83.3139 409.256 80.6899 409.256C76.3059 409.256 72.8179 405.672 72.8179 400.04ZM86.1939 400.072C86.1939 397.224 84.3699 395.656 82.2899 395.656C80.2419 395.656 78.3859 397.192 78.3859 400.04C78.3859 402.888 80.2419 404.488 82.2899 404.488C84.3699 404.488 86.1939 402.92 86.1939 400.072ZM116.902 403.816C116.902 406.92 114.15 409.256 109.67 409.256C104.902 409.256 101.702 406.6 101.446 403.144H106.854C106.982 404.392 108.102 405.224 109.606 405.224C111.014 405.224 111.75 404.584 111.75 403.784C111.75 400.904 102.022 402.984 102.022 396.424C102.022 393.384 104.614 390.888 109.286 390.888C113.894 390.888 116.454 393.448 116.806 396.968H111.75C111.59 395.752 110.662 394.952 109.126 394.952C107.846 394.952 107.142 395.464 107.142 396.328C107.142 399.176 116.806 397.16 116.902 403.816ZM121.114 402.792V395.688H118.938V391.144H121.114V386.792H126.586V391.144H130.17V395.688H126.586V402.856C126.586 403.912 127.034 404.36 128.25 404.36H130.202V409H127.418C123.706 409 121.114 407.432 121.114 402.792ZM138.722 400.712V409H133.25V391.144H138.722V394.12C139.97 392.232 141.922 390.952 144.322 390.952V396.744H142.818C140.226 396.744 138.722 397.64 138.722 400.712ZM154.809 395.272C153.017 395.272 151.641 396.36 151.321 398.344H158.169C158.169 396.392 156.633 395.272 154.809 395.272ZM163.353 403.08C162.489 406.568 159.321 409.256 154.873 409.256C149.625 409.256 145.849 405.736 145.849 400.072C145.849 394.408 149.561 390.888 154.873 390.888C160.089 390.888 163.769 394.344 163.769 399.784C163.769 400.296 163.737 400.84 163.673 401.384H151.289C151.481 403.72 152.921 404.808 154.681 404.808C156.217 404.808 157.081 404.04 157.529 403.08H163.353ZM181.152 403.816C181.152 406.92 178.4 409.256 173.92 409.256C169.152 409.256 165.952 406.6 165.696 403.144H171.104C171.232 404.392 172.352 405.224 173.856 405.224C175.264 405.224 176 404.584 176 403.784C176 400.904 166.272 402.984 166.272 396.424C166.272 393.384 168.864 390.888 173.536 390.888C178.144 390.888 180.704 393.448 181.056 396.968H176C175.84 395.752 174.912 394.952 173.376 394.952C172.096 394.952 171.392 395.464 171.392 396.328C171.392 399.176 181.056 397.16 181.152 403.816ZM198.996 403.816C198.996 406.92 196.244 409.256 191.764 409.256C186.996 409.256 183.796 406.6 183.54 403.144H188.948C189.076 404.392 190.196 405.224 191.7 405.224C193.108 405.224 193.844 404.584 193.844 403.784C193.844 400.904 184.116 402.984 184.116 396.424C184.116 393.384 186.708 390.888 191.38 390.888C195.988 390.888 198.548 393.448 198.9 396.968H193.844C193.684 395.752 192.756 394.952 191.22 394.952C189.94 394.952 189.236 395.464 189.236 396.328C189.236 399.176 198.9 397.16 198.996 403.816ZM202.023 400.04V395.496H216.103V400.04H202.023ZM221.45 409V395.688H219.466V391.144H221.45V390.632C221.45 385.96 224.33 383.656 229.77 383.944V388.584C227.658 388.456 226.922 389.096 226.922 390.984V391.144H229.866V395.688H226.922V409H221.45ZM237.909 400.712V409H232.437V391.144H237.909V394.12C239.157 392.232 241.109 390.952 243.509 390.952V396.744H242.005C239.413 396.744 237.909 397.64 237.909 400.712ZM253.997 395.272C252.205 395.272 250.829 396.36 250.509 398.344H257.357C257.357 396.392 255.821 395.272 253.997 395.272ZM262.541 403.08C261.677 406.568 258.509 409.256 254.061 409.256C248.813 409.256 245.037 405.736 245.037 400.072C245.037 394.408 248.749 390.888 254.061 390.888C259.277 390.888 262.957 394.344 262.957 399.784C262.957 400.296 262.925 400.84 262.861 401.384H250.477C250.669 403.72 252.109 404.808 253.869 404.808C255.405 404.808 256.269 404.04 256.717 403.08H262.541ZM273.715 395.272C271.923 395.272 270.547 396.36 270.227 398.344H277.075C277.075 396.392 275.539 395.272 273.715 395.272ZM282.259 403.08C281.395 406.568 278.227 409.256 273.779 409.256C268.531 409.256 264.755 405.736 264.755 400.072C264.755 394.408 268.467 390.888 273.779 390.888C278.995 390.888 282.675 394.344 282.675 399.784C282.675 400.296 282.643 400.84 282.579 401.384H270.195C270.387 403.72 271.827 404.808 273.587 404.808C275.123 404.808 275.987 404.04 276.435 403.08H282.259ZM313.621 403.816C313.621 406.92 310.869 409.256 306.389 409.256C301.621 409.256 298.421 406.6 298.165 403.144H303.573C303.701 404.392 304.821 405.224 306.325 405.224C307.733 405.224 308.469 404.584 308.469 403.784C308.469 400.904 298.741 402.984 298.741 396.424C298.741 393.384 301.333 390.888 306.005 390.888C310.613 390.888 313.173 393.448 313.525 396.968H308.469C308.309 395.752 307.381 394.952 305.845 394.952C304.565 394.952 303.861 395.464 303.861 396.328C303.861 399.176 313.525 397.16 313.621 403.816ZM334.44 400.072C334.44 405.736 330.344 409.256 325.096 409.256C319.848 409.256 315.88 405.736 315.88 400.072C315.88 394.408 319.944 390.888 325.16 390.888C330.408 390.888 334.44 394.408 334.44 400.072ZM321.448 400.072C321.448 403.08 323.112 404.52 325.096 404.52C327.048 404.52 328.872 403.08 328.872 400.072C328.872 397.032 327.08 395.624 325.16 395.624C323.176 395.624 321.448 397.032 321.448 400.072ZM53.3174 457.312L57.4134 446.144H63.3334L52.1334 472.48H46.2454L50.3414 463.392L43.0774 446.144H49.1894L53.3174 457.312ZM82.7841 455.072C82.7841 460.736 78.6881 464.256 73.4401 464.256C68.1921 464.256 64.2241 460.736 64.2241 455.072C64.2241 449.408 68.2881 445.888 73.5041 445.888C78.7521 445.888 82.7841 449.408 82.7841 455.072ZM69.7921 455.072C69.7921 458.08 71.4561 459.52 73.4401 459.52C75.3921 459.52 77.2161 458.08 77.2161 455.072C77.2161 452.032 75.4241 450.624 73.5041 450.624C71.5201 450.624 69.7921 452.032 69.7921 455.072ZM103.319 446.144V464H97.8471V461.568C96.7591 463.104 94.8391 464.192 92.4391 464.192C88.3111 464.192 85.5271 461.344 85.5271 456.576V446.144H90.9671V455.84C90.9671 458.272 92.3431 459.616 94.3911 459.616C96.5031 459.616 97.8471 458.272 97.8471 455.84V446.144H103.319ZM112.943 455.072C112.943 449.44 116.655 445.888 121.903 445.888C126.383 445.888 129.551 448.352 130.479 452.608H124.655C124.207 451.36 123.311 450.56 121.807 450.56C119.855 450.56 118.511 452.096 118.511 455.072C118.511 458.048 119.855 459.584 121.807 459.584C123.311 459.584 124.175 458.848 124.655 457.536H130.479C129.551 461.664 126.383 464.256 121.903 464.256C116.655 464.256 112.943 460.736 112.943 455.072ZM132.318 455.04C132.318 449.408 135.806 445.888 140.19 445.888C142.846 445.888 144.734 447.104 145.694 448.672V446.144H151.166V464H145.694V461.472C144.702 463.04 142.814 464.256 140.158 464.256C135.806 464.256 132.318 460.672 132.318 455.04ZM145.694 455.072C145.694 452.224 143.87 450.656 141.79 450.656C139.742 450.656 137.886 452.192 137.886 455.04C137.886 457.888 139.742 459.488 141.79 459.488C143.87 459.488 145.694 457.92 145.694 455.072ZM167.445 464V454.304C167.445 451.872 166.101 450.528 164.021 450.528C161.941 450.528 160.597 451.872 160.597 454.304V464H155.125V446.144H160.597V448.512C161.685 447.008 163.605 445.952 166.005 445.952C170.133 445.952 172.885 448.768 172.885 453.568V464H167.445ZM184.012 464V450.688H182.028V446.144H184.012V445.632C184.012 440.96 186.892 438.656 192.332 438.944V443.584C190.22 443.456 189.484 444.096 189.484 445.984V446.144H192.428V450.688H189.484V464H184.012ZM212.472 455.072C212.472 460.736 208.376 464.256 203.128 464.256C197.88 464.256 193.912 460.736 193.912 455.072C193.912 449.408 197.976 445.888 203.192 445.888C208.44 445.888 212.472 449.408 212.472 455.072ZM199.48 455.072C199.48 458.08 201.144 459.52 203.128 459.52C205.08 459.52 206.904 458.08 206.904 455.072C206.904 452.032 205.112 450.624 203.192 450.624C201.208 450.624 199.48 452.032 199.48 455.072ZM214.287 455.072C214.287 449.44 217.999 445.888 223.247 445.888C227.727 445.888 230.895 448.352 231.823 452.608H225.999C225.551 451.36 224.655 450.56 223.151 450.56C221.199 450.56 219.855 452.096 219.855 455.072C219.855 458.048 221.199 459.584 223.151 459.584C224.655 459.584 225.519 458.848 225.999 457.536H231.823C230.895 461.664 227.727 464.256 223.247 464.256C217.999 464.256 214.287 460.736 214.287 455.072ZM252.382 446.144V464H246.91V461.568C245.822 463.104 243.902 464.192 241.502 464.192C237.374 464.192 234.59 461.344 234.59 456.576V446.144H240.03V455.84C240.03 458.272 241.406 459.616 243.454 459.616C245.566 459.616 246.91 458.272 246.91 455.84V446.144H252.382ZM270.808 458.816C270.808 461.92 268.056 464.256 263.576 464.256C258.808 464.256 255.608 461.6 255.352 458.144H260.76C260.888 459.392 262.008 460.224 263.512 460.224C264.92 460.224 265.656 459.584 265.656 458.784C265.656 455.904 255.928 457.984 255.928 451.424C255.928 448.384 258.52 445.888 263.192 445.888C267.8 445.888 270.36 448.448 270.712 451.968H265.656C265.496 450.752 264.568 449.952 263.032 449.952C261.752 449.952 261.048 450.464 261.048 451.328C261.048 454.176 270.712 452.16 270.808 458.816ZM298.409 455.072C298.409 460.736 294.313 464.256 289.065 464.256C283.817 464.256 279.849 460.736 279.849 455.072C279.849 449.408 283.913 445.888 289.129 445.888C294.377 445.888 298.409 449.408 298.409 455.072ZM285.417 455.072C285.417 458.08 287.081 459.52 289.065 459.52C291.017 459.52 292.841 458.08 292.841 455.072C292.841 452.032 291.049 450.624 289.129 450.624C287.145 450.624 285.417 452.032 285.417 455.072ZM313.632 464V454.304C313.632 451.872 312.288 450.528 310.208 450.528C308.128 450.528 306.784 451.872 306.784 454.304V464H301.312V446.144H306.784V448.512C307.872 447.008 309.792 445.952 312.192 445.952C316.32 445.952 319.072 448.768 319.072 453.568V464H313.632ZM24.7264 519L19.8624 501.144H25.3344L27.8624 513.912L30.8704 501.144H36.6624L39.7024 513.848L42.1984 501.144H47.3504L42.5184 519H36.4704L33.6544 507.416L30.7424 519H24.7264ZM49.4371 519V495.32H54.9091V503.544C55.9971 502.008 57.9491 500.952 60.4131 500.952C64.4771 500.952 67.1971 503.768 67.1971 508.568V519H61.7571V509.304C61.7571 506.872 60.4131 505.528 58.3331 505.528C56.2531 505.528 54.9091 506.872 54.9091 509.304V519H49.4371ZM69.9116 510.04C69.9116 504.408 73.3996 500.888 77.7836 500.888C80.4396 500.888 82.3276 502.104 83.2876 503.672V501.144H88.7596V519H83.2876V516.472C82.2956 518.04 80.4076 519.256 77.7516 519.256C73.3996 519.256 69.9116 515.672 69.9116 510.04ZM83.2876 510.072C83.2876 507.224 81.4636 505.656 79.3836 505.656C77.3356 505.656 75.4796 507.192 75.4796 510.04C75.4796 512.888 77.3356 514.488 79.3836 514.488C81.4636 514.488 83.2876 512.92 83.2876 510.072ZM93.5824 512.792V505.688H91.4064V501.144H93.5824V496.792H99.0544V501.144H102.638V505.688H99.0544V512.856C99.0544 513.912 99.5024 514.36 100.718 514.36H102.67V519H99.8864C96.1744 519 93.5824 517.432 93.5824 512.792ZM137.108 519V509.304C137.108 506.968 135.764 505.688 133.684 505.688C131.604 505.688 130.26 506.968 130.26 509.304V519H124.82V509.304C124.82 506.968 123.476 505.688 121.396 505.688C119.316 505.688 117.972 506.968 117.972 509.304V519H112.5V501.144H117.972V503.384C119.028 501.944 120.852 500.952 123.188 500.952C125.876 500.952 128.052 502.136 129.268 504.28C130.452 502.392 132.692 500.952 135.284 500.952C139.7 500.952 142.548 503.768 142.548 508.568V519H137.108ZM145.287 510.04C145.287 504.408 148.775 500.888 153.159 500.888C155.815 500.888 157.703 502.104 158.663 503.672V501.144H164.135V519H158.663V516.472C157.671 518.04 155.783 519.256 153.127 519.256C148.775 519.256 145.287 515.672 145.287 510.04ZM158.663 510.072C158.663 507.224 156.839 505.656 154.759 505.656C152.711 505.656 150.855 507.192 150.855 510.04C150.855 512.888 152.711 514.488 154.759 514.488C156.839 514.488 158.663 512.92 158.663 510.072ZM168.957 512.792V505.688H166.781V501.144H168.957V496.792H174.429V501.144H178.013V505.688H174.429V512.856C174.429 513.912 174.877 514.36 176.093 514.36H178.045V519H175.261C171.549 519 168.957 517.432 168.957 512.792ZM181.957 512.792V505.688H179.781V501.144H181.957V496.792H187.429V501.144H191.013V505.688H187.429V512.856C187.429 513.912 187.877 514.36 189.093 514.36H191.045V519H188.261C184.549 519 181.957 517.432 181.957 512.792ZM201.965 505.272C200.173 505.272 198.797 506.36 198.477 508.344H205.325C205.325 506.392 203.789 505.272 201.965 505.272ZM210.509 513.08C209.645 516.568 206.477 519.256 202.029 519.256C196.781 519.256 193.005 515.736 193.005 510.072C193.005 504.408 196.717 500.888 202.029 500.888C207.245 500.888 210.925 504.344 210.925 509.784C210.925 510.296 210.893 510.84 210.829 511.384H198.445C198.637 513.72 200.077 514.808 201.837 514.808C203.373 514.808 204.237 514.04 204.685 513.08H210.509ZM219.284 510.712V519H213.812V501.144H219.284V504.12C220.532 502.232 222.484 500.952 224.884 500.952V506.744H223.38C220.788 506.744 219.284 507.64 219.284 510.712ZM241.996 513.816C241.996 516.92 239.244 519.256 234.764 519.256C229.996 519.256 226.796 516.6 226.54 513.144H231.948C232.076 514.392 233.196 515.224 234.7 515.224C236.108 515.224 236.844 514.584 236.844 513.784C236.844 510.904 227.116 512.984 227.116 506.424C227.116 503.384 229.708 500.888 234.38 500.888C238.988 500.888 241.548 503.448 241.9 506.968H236.844C236.684 505.752 235.756 504.952 234.22 504.952C232.94 504.952 232.236 505.464 232.236 506.328C232.236 509.176 241.9 507.16 241.996 513.816ZM276.733 519V509.304C276.733 506.968 275.389 505.688 273.309 505.688C271.229 505.688 269.885 506.968 269.885 509.304V519H264.445V509.304C264.445 506.968 263.101 505.688 261.021 505.688C258.941 505.688 257.597 506.968 257.597 509.304V519H252.125V501.144H257.597V503.384C258.653 501.944 260.477 500.952 262.813 500.952C265.501 500.952 267.677 502.136 268.893 504.28C270.077 502.392 272.317 500.952 274.909 500.952C279.325 500.952 282.173 503.768 282.173 508.568V519H276.733ZM303.472 510.072C303.472 515.736 299.376 519.256 294.128 519.256C288.88 519.256 284.912 515.736 284.912 510.072C284.912 504.408 288.976 500.888 294.192 500.888C299.44 500.888 303.472 504.408 303.472 510.072ZM290.48 510.072C290.48 513.08 292.144 514.52 294.128 514.52C296.08 514.52 297.904 513.08 297.904 510.072C297.904 507.032 296.112 505.624 294.192 505.624C292.208 505.624 290.48 507.032 290.48 510.072ZM320.871 513.816C320.871 516.92 318.119 519.256 313.639 519.256C308.871 519.256 305.671 516.6 305.415 513.144H310.823C310.951 514.392 312.071 515.224 313.575 515.224C314.983 515.224 315.719 514.584 315.719 513.784C315.719 510.904 305.991 512.984 305.991 506.424C305.991 503.384 308.583 500.888 313.255 500.888C317.863 500.888 320.423 503.448 320.775 506.968H315.719C315.559 505.752 314.631 504.952 313.095 504.952C311.815 504.952 311.111 505.464 311.111 506.328C311.111 509.176 320.775 507.16 320.871 513.816ZM325.082 512.792V505.688H322.906V501.144H325.082V496.792H330.554V501.144H334.138V505.688H330.554V512.856C330.554 513.912 331.002 514.36 332.218 514.36H334.17V519H331.386C327.674 519 325.082 517.432 325.082 512.792ZM343.01 516.312C343.01 517.944 341.698 519.256 339.778 519.256C337.826 519.256 336.514 517.944 336.514 516.312C336.514 514.616 337.826 513.304 339.778 513.304C341.698 513.304 343.01 514.616 343.01 516.312ZM98.0953 584.632V572.272H100.303V584.632C100.303 587.416 98.4313 589.168 95.6713 589.168C92.8873 589.168 91.0153 587.392 91.0153 584.464H93.1992C93.2233 586 93.9433 587.224 95.6713 587.224C97.3993 587.224 98.0953 586.024 98.0953 584.632ZM117.086 582.4C117.086 586.576 114.086 589.216 110.342 589.216C106.622 589.216 103.79 586.576 103.79 582.4C103.79 578.248 106.718 575.632 110.438 575.632C114.182 575.632 117.086 578.248 117.086 582.4ZM106.022 582.4C106.022 585.736 108.062 587.296 110.342 587.296C112.622 587.296 114.854 585.736 114.854 582.4C114.854 579.088 112.67 577.528 110.414 577.528C108.11 577.528 106.022 579.088 106.022 582.4ZM129.581 589V581.56C129.581 578.872 128.117 577.504 125.909 577.504C123.677 577.504 122.141 578.896 122.141 581.728V589H119.957V575.848H122.141V577.72C123.005 576.352 124.589 575.608 126.365 575.608C129.413 575.608 131.741 577.48 131.741 581.248V589H129.581ZM134.493 582.376C134.493 578.272 137.205 575.632 140.733 575.632C143.181 575.632 144.861 576.88 145.629 578.248V575.848H147.837V589H145.629V586.552C144.837 587.968 143.133 589.216 140.709 589.216C137.205 589.216 134.493 586.456 134.493 582.376ZM145.629 582.4C145.629 579.352 143.565 577.528 141.165 577.528C138.765 577.528 136.725 579.28 136.725 582.376C136.725 585.472 138.765 587.296 141.165 587.296C143.565 587.296 145.629 585.496 145.629 582.4ZM152.008 585.4V577.648H150.304V575.848H152.008V572.536H154.192V575.848H157.624V577.648H154.192V585.4C154.192 586.696 154.672 587.152 156.016 587.152H157.624V589H155.656C153.328 589 152.008 588.04 152.008 585.4ZM160.27 589V571.24H162.454V577.744C163.318 576.352 164.95 575.608 166.798 575.608C169.726 575.608 172.054 577.48 172.054 581.248V589H169.894V581.56C169.894 578.872 168.43 577.504 166.222 577.504C163.99 577.504 162.454 578.896 162.454 581.728V589H160.27ZM174.805 582.376C174.805 578.272 177.517 575.632 181.045 575.632C183.493 575.632 185.173 576.88 185.941 578.248V575.848H188.149V589H185.941V586.552C185.149 587.968 183.445 589.216 181.021 589.216C177.517 589.216 174.805 586.456 174.805 582.376ZM185.941 582.4C185.941 579.352 183.877 577.528 181.477 577.528C179.077 577.528 177.037 579.28 177.037 582.376C177.037 585.472 179.077 587.296 181.477 587.296C183.877 587.296 185.941 585.496 185.941 582.4ZM201.464 589V581.56C201.464 578.872 200 577.504 197.792 577.504C195.56 577.504 194.024 578.896 194.024 581.728V589H191.84V575.848H194.024V577.72C194.888 576.352 196.472 575.608 198.248 575.608C201.296 575.608 203.624 577.48 203.624 581.248V589H201.464ZM213.59 589V572.392H215.942L222.086 586.12L228.23 572.392H230.558V589H228.374V576.616L222.854 589H221.318L215.774 576.592V589H213.59ZM234.262 589V575.848H236.446V589H234.262ZM235.39 573.712C234.55 573.712 233.902 573.064 233.902 572.224C233.902 571.384 234.55 570.736 235.39 570.736C236.182 570.736 236.83 571.384 236.83 572.224C236.83 573.064 236.182 573.712 235.39 573.712ZM240.168 589V571.24H242.352V589H240.168ZM246.075 589V571.24H248.259V589H246.075ZM257.573 577.48C255.437 577.48 253.661 578.896 253.421 581.464H261.725C261.749 578.896 259.829 577.48 257.573 577.48ZM263.717 584.944C263.045 587.344 260.933 589.216 257.669 589.216C253.925 589.216 251.165 586.576 251.165 582.4C251.165 578.248 253.829 575.632 257.669 575.632C261.485 575.632 263.981 578.32 263.981 581.92C263.981 582.4 263.957 582.784 263.909 583.24H253.397C253.565 585.904 255.437 587.368 257.669 587.368C259.637 587.368 260.885 586.36 261.365 584.944H263.717ZM269.048 581.848V589H266.864V575.848H269.048V577.984C269.792 576.52 271.208 575.608 273.296 575.608V577.864H272.72C270.632 577.864 269.048 578.8 269.048 581.848Z" fill="black"/>
<path d="M189.407 710.421L202.315 662.342L206.824 680.315C201.091 680.35 196.414 678.712 192.794 675.4C189.174 672.089 187.346 667.5 187.31 661.633C187.275 655.9 189.114 651.222 192.825 647.599C196.404 644.111 200.927 642.35 206.393 642.317C211.993 642.283 216.67 643.988 220.424 647.432C224.046 651.01 225.875 655.665 225.909 661.399C225.92 663.132 225.797 664.799 225.54 666.401C225.284 668.136 224.762 670.139 223.976 672.411C223.19 674.682 222.075 677.689 220.631 681.431L209.206 710.301L189.407 710.421ZM142.207 710.708L155.116 662.629L159.625 680.602C153.892 680.637 149.215 678.998 145.595 675.687C141.975 672.375 140.147 667.786 140.111 661.92C140.076 656.187 141.914 651.509 145.626 647.886C149.205 644.398 153.727 642.637 159.194 642.604C164.794 642.57 169.471 644.275 173.225 647.718C176.847 651.297 178.675 655.952 178.71 661.685C178.721 663.419 178.598 665.086 178.341 666.688C178.085 668.423 177.563 670.426 176.777 672.697C175.991 674.969 174.876 677.976 173.432 681.718L162.007 710.588L142.207 710.708Z" fill="#DF4F3A"/>
</svg>
