<svg width="1674" height="397" viewBox="0 0 1674 397" fill="none" xmlns="http://www.w3.org/2000/svg">
<path d="M263.295 45.6L250.095 93.6L245.695 75.6C251.429 75.6 256.095 77.2667 259.695 80.6C263.295 83.9333 265.095 88.5333 265.095 94.4C265.095 100.133 263.229 104.8 259.495 108.4C255.895 111.867 251.362 113.6 245.895 113.6C240.295 113.6 235.629 111.867 231.895 108.4C228.295 104.8 226.495 100.133 226.495 94.4C226.495 92.6667 226.629 91 226.895 89.4C227.162 87.6667 227.695 85.6667 228.495 83.4C229.295 81.1333 230.429 78.1333 231.895 74.4L243.495 45.6H263.295ZM310.495 45.6L297.295 93.6L292.895 75.6C298.629 75.6 303.295 77.2667 306.895 80.6C310.495 83.9333 312.295 88.5333 312.295 94.4C312.295 100.133 310.429 104.8 306.695 108.4C303.095 111.867 298.562 113.6 293.095 113.6C287.495 113.6 282.829 111.867 279.095 108.4C275.495 104.8 273.695 100.133 273.695 94.4C273.695 92.6667 273.829 91 274.095 89.4C274.362 87.6667 274.895 85.6667 275.695 83.4C276.495 81.1333 277.629 78.1333 279.095 74.4L290.695 45.6H310.495Z" fill="#DF4F3A"/>
<path d="M1410.7 351.4L1423.9 303.4L1428.3 321.4C1422.57 321.4 1417.9 319.733 1414.3 316.4C1410.7 313.067 1408.9 308.467 1408.9 302.6C1408.9 296.867 1410.77 292.2 1414.5 288.6C1418.1 285.133 1422.64 283.4 1428.1 283.4C1433.7 283.4 1438.37 285.133 1442.1 288.6C1445.7 292.2 1447.5 296.867 1447.5 302.6C1447.5 304.333 1447.37 306 1447.1 307.6C1446.84 309.333 1446.3 311.333 1445.5 313.6C1444.7 315.867 1443.57 318.867 1442.1 322.6L1430.5 351.4L1410.7 351.4ZM1363.5 351.4L1376.7 303.4L1381.1 321.4C1375.37 321.4 1370.7 319.733 1367.1 316.4C1363.5 313.067 1361.7 308.467 1361.7 302.6C1361.7 296.867 1363.57 292.2 1367.3 288.6C1370.9 285.133 1375.44 283.4 1380.9 283.4C1386.5 283.4 1391.17 285.133 1394.9 288.6C1398.5 292.2 1400.3 296.867 1400.3 302.6C1400.3 304.333 1400.17 306 1399.9 307.6C1399.64 309.333 1399.1 311.333 1398.3 313.6C1397.5 315.867 1396.37 318.867 1394.9 322.6L1383.3 351.4L1363.5 351.4Z" fill="#DF4F3A"/>
<path d="M369.485 118.304L360.701 152H350.765L345.389 129.824L339.821 152H329.885L321.341 118.304H330.125L334.973 142.832L340.973 118.304H349.997L355.757 142.832L360.653 118.304H369.485ZM390.065 124.928C393.137 124.928 395.601 125.952 397.457 128C399.313 130.016 400.241 132.8 400.241 136.352V152H392.081V137.456C392.081 135.664 391.617 134.272 390.689 133.28C389.761 132.288 388.513 131.792 386.945 131.792C385.377 131.792 384.129 132.288 383.201 133.28C382.273 134.272 381.809 135.664 381.809 137.456V152H373.601V116.48H381.809V128.816C382.641 127.632 383.777 126.688 385.217 125.984C386.657 125.28 388.273 124.928 390.065 124.928ZM431.193 138.176C431.193 138.944 431.145 139.744 431.049 140.576H412.473C412.601 142.24 413.129 143.52 414.057 144.416C415.017 145.28 416.185 145.712 417.561 145.712C419.609 145.712 421.033 144.848 421.833 143.12H430.569C430.121 144.88 429.305 146.464 428.121 147.872C426.969 149.28 425.513 150.384 423.753 151.184C421.993 151.984 420.025 152.384 417.849 152.384C415.225 152.384 412.889 151.824 410.841 150.704C408.793 149.584 407.193 147.984 406.041 145.904C404.889 143.824 404.313 141.392 404.313 138.608C404.313 135.824 404.873 133.392 405.993 131.312C407.145 129.232 408.745 127.632 410.793 126.512C412.841 125.392 415.193 124.832 417.849 124.832C420.441 124.832 422.745 125.376 424.761 126.464C426.777 127.552 428.345 129.104 429.465 131.12C430.617 133.136 431.193 135.488 431.193 138.176ZM422.793 136.016C422.793 134.608 422.313 133.488 421.353 132.656C420.393 131.824 419.193 131.408 417.753 131.408C416.377 131.408 415.209 131.808 414.249 132.608C413.321 133.408 412.745 134.544 412.521 136.016H422.793ZM443.731 129.68C444.691 128.208 445.891 127.056 447.331 126.224C448.771 125.36 450.371 124.928 452.131 124.928V133.616H449.875C447.827 133.616 446.291 134.064 445.267 134.96C444.243 135.824 443.731 137.36 443.731 139.568V152H435.523V125.216H443.731V129.68ZM481.302 138.176C481.302 138.944 481.254 139.744 481.158 140.576H462.582C462.71 142.24 463.238 143.52 464.166 144.416C465.126 145.28 466.294 145.712 467.67 145.712C469.718 145.712 471.142 144.848 471.942 143.12H480.678C480.23 144.88 479.414 146.464 478.23 147.872C477.078 149.28 475.622 150.384 473.862 151.184C472.102 151.984 470.134 152.384 467.958 152.384C465.334 152.384 462.998 151.824 460.95 150.704C458.902 149.584 457.302 147.984 456.15 145.904C454.998 143.824 454.422 141.392 454.422 138.608C454.422 135.824 454.982 133.392 456.102 131.312C457.254 129.232 458.854 127.632 460.902 126.512C462.95 125.392 465.302 124.832 467.958 124.832C470.55 124.832 472.854 125.376 474.87 126.464C476.886 127.552 478.454 129.104 479.574 131.12C480.726 133.136 481.302 135.488 481.302 138.176ZM472.902 136.016C472.902 134.608 472.422 133.488 471.462 132.656C470.502 131.824 469.302 131.408 467.862 131.408C466.486 131.408 465.318 131.808 464.358 132.608C463.43 133.408 462.854 134.544 462.63 136.016H472.902ZM497.68 144.32L503.488 125.216H512.224L502.72 152H492.592L483.088 125.216H491.872L497.68 144.32ZM540.927 138.176C540.927 138.944 540.879 139.744 540.783 140.576H522.207C522.335 142.24 522.863 143.52 523.791 144.416C524.751 145.28 525.919 145.712 527.295 145.712C529.343 145.712 530.767 144.848 531.567 143.12H540.303C539.855 144.88 539.039 146.464 537.855 147.872C536.703 149.28 535.247 150.384 533.487 151.184C531.727 151.984 529.759 152.384 527.583 152.384C524.959 152.384 522.623 151.824 520.575 150.704C518.527 149.584 516.927 147.984 515.775 145.904C514.623 143.824 514.047 141.392 514.047 138.608C514.047 135.824 514.607 133.392 515.727 131.312C516.879 129.232 518.479 127.632 520.527 126.512C522.575 125.392 524.927 124.832 527.583 124.832C530.175 124.832 532.479 125.376 534.495 126.464C536.511 127.552 538.079 129.104 539.199 131.12C540.351 133.136 540.927 135.488 540.927 138.176ZM532.527 136.016C532.527 134.608 532.047 133.488 531.087 132.656C530.127 131.824 528.927 131.408 527.487 131.408C526.111 131.408 524.943 131.808 523.983 132.608C523.055 133.408 522.479 134.544 522.255 136.016H532.527ZM553.465 129.68C554.425 128.208 555.625 127.056 557.065 126.224C558.505 125.36 560.105 124.928 561.865 124.928V133.616H559.609C557.561 133.616 556.025 134.064 555.001 134.96C553.977 135.824 553.465 137.36 553.465 139.568V152H545.257V125.216H553.465V129.68ZM603.32 125.216L586.52 164.72H577.688L583.832 151.088L572.936 125.216H582.104L588.296 141.968L594.44 125.216H603.32ZM618.481 152.384C615.857 152.384 613.489 151.824 611.377 150.704C609.297 149.584 607.649 147.984 606.433 145.904C605.249 143.824 604.657 141.392 604.657 138.608C604.657 135.856 605.265 133.44 606.48 131.36C607.697 129.248 609.361 127.632 611.473 126.512C613.585 125.392 615.953 124.832 618.577 124.832C621.201 124.832 623.569 125.392 625.681 126.512C627.793 127.632 629.457 129.248 630.673 131.36C631.889 133.44 632.497 135.856 632.497 138.608C632.497 141.36 631.873 143.792 630.625 145.904C629.409 147.984 627.729 149.584 625.585 150.704C623.473 151.824 621.105 152.384 618.481 152.384ZM618.481 145.28C620.049 145.28 621.377 144.704 622.465 143.552C623.585 142.4 624.145 140.752 624.145 138.608C624.145 136.464 623.601 134.816 622.513 133.664C621.457 132.512 620.145 131.936 618.577 131.936C616.977 131.936 615.649 132.512 614.593 133.664C613.537 134.784 613.009 136.432 613.009 138.608C613.009 140.752 613.521 142.4 614.545 143.552C615.601 144.704 616.913 145.28 618.481 145.28ZM663.299 125.216V152H655.091V148.352C654.259 149.536 653.123 150.496 651.683 151.232C650.275 151.936 648.707 152.288 646.979 152.288C644.931 152.288 643.123 151.84 641.555 150.944C639.987 150.016 638.771 148.688 637.907 146.96C637.043 145.232 636.611 143.2 636.611 140.864V125.216H644.771V139.76C644.771 141.552 645.235 142.944 646.163 143.936C647.091 144.928 648.339 145.424 649.907 145.424C651.507 145.424 652.771 144.928 653.699 143.936C654.627 142.944 655.091 141.552 655.091 139.76V125.216H663.299ZM677.735 138.56C677.735 135.808 678.247 133.392 679.271 131.312C680.327 129.232 681.751 127.632 683.543 126.512C685.335 125.392 687.335 124.832 689.543 124.832C691.431 124.832 693.079 125.216 694.487 125.984C695.927 126.752 697.031 127.76 697.799 129.008V125.216H706.007V152H697.799V148.208C696.999 149.456 695.879 150.464 694.439 151.232C693.031 152 691.383 152.384 689.495 152.384C687.319 152.384 685.335 151.824 683.543 150.704C681.751 149.552 680.327 147.936 679.271 145.856C678.247 143.744 677.735 141.312 677.735 138.56ZM697.799 138.608C697.799 136.56 697.223 134.944 696.071 133.76C694.951 132.576 693.575 131.984 691.943 131.984C690.311 131.984 688.919 132.576 687.767 133.76C686.647 134.912 686.087 136.512 686.087 138.56C686.087 140.608 686.647 142.24 687.767 143.456C688.919 144.64 690.311 145.232 691.943 145.232C693.575 145.232 694.951 144.64 696.071 143.456C697.223 142.272 697.799 140.656 697.799 138.608ZM720.153 129.68C721.113 128.208 722.313 127.056 723.753 126.224C725.193 125.36 726.793 124.928 728.553 124.928V133.616H726.297C724.249 133.616 722.713 134.064 721.689 134.96C720.665 135.824 720.153 137.36 720.153 139.568V152H711.945V125.216H720.153V129.68ZM757.724 138.176C757.724 138.944 757.676 139.744 757.58 140.576H739.004C739.132 142.24 739.66 143.52 740.588 144.416C741.548 145.28 742.716 145.712 744.092 145.712C746.14 145.712 747.564 144.848 748.364 143.12H757.1C756.652 144.88 755.836 146.464 754.652 147.872C753.5 149.28 752.044 150.384 750.284 151.184C748.524 151.984 746.556 152.384 744.38 152.384C741.756 152.384 739.42 151.824 737.372 150.704C735.324 149.584 733.724 147.984 732.572 145.904C731.42 143.824 730.844 141.392 730.844 138.608C730.844 135.824 731.404 133.392 732.524 131.312C733.676 129.232 735.276 127.632 737.324 126.512C739.372 125.392 741.724 124.832 744.38 124.832C746.972 124.832 749.276 125.376 751.292 126.464C753.308 127.552 754.876 129.104 755.996 131.12C757.148 133.136 757.724 135.488 757.724 138.176ZM749.324 136.016C749.324 134.608 748.844 133.488 747.884 132.656C746.924 131.824 745.724 131.408 744.284 131.408C742.908 131.408 741.74 131.808 740.78 132.608C739.852 133.408 739.276 134.544 739.052 136.016H749.324ZM770.886 144.416L765.558 158.192H760.326L763.11 144.416H770.886ZM824.455 125.216L817.207 152H808.135L803.911 134.624L799.543 152H790.519L783.223 125.216H791.431L795.223 144.368L799.735 125.216H808.423L812.983 144.272L816.727 125.216H824.455ZM852.833 138.176C852.833 138.944 852.785 139.744 852.689 140.576H834.113C834.241 142.24 834.769 143.52 835.697 144.416C836.657 145.28 837.825 145.712 839.201 145.712C841.249 145.712 842.673 144.848 843.473 143.12H852.209C851.761 144.88 850.945 146.464 849.761 147.872C848.609 149.28 847.153 150.384 845.393 151.184C843.633 151.984 841.665 152.384 839.489 152.384C836.865 152.384 834.529 151.824 832.481 150.704C830.433 149.584 828.833 147.984 827.681 145.904C826.529 143.824 825.953 141.392 825.953 138.608C825.953 135.824 826.513 133.392 827.633 131.312C828.785 129.232 830.385 127.632 832.433 126.512C834.481 125.392 836.833 124.832 839.489 124.832C842.081 124.832 844.385 125.376 846.401 126.464C848.417 127.552 849.985 129.104 851.105 131.12C852.257 133.136 852.833 135.488 852.833 138.176ZM844.433 136.016C844.433 134.608 843.953 133.488 842.993 132.656C842.033 131.824 840.833 131.408 839.393 131.408C838.017 131.408 836.849 131.808 835.889 132.608C834.961 133.408 834.385 134.544 834.161 136.016H844.433ZM859.036 118.304H867.436L862.06 131.168H856.54L859.036 118.304ZM880.465 129.68C881.425 128.208 882.625 127.056 884.065 126.224C885.505 125.36 887.105 124.928 888.865 124.928V133.616H886.609C884.561 133.616 883.025 134.064 882.001 134.96C880.977 135.824 880.465 137.36 880.465 139.568V152H872.257V125.216H880.465V129.68ZM918.036 138.176C918.036 138.944 917.989 139.744 917.893 140.576H899.317C899.445 142.24 899.973 143.52 900.901 144.416C901.861 145.28 903.029 145.712 904.405 145.712C906.453 145.712 907.877 144.848 908.677 143.12H917.413C916.965 144.88 916.149 146.464 914.965 147.872C913.813 149.28 912.357 150.384 910.597 151.184C908.837 151.984 906.869 152.384 904.693 152.384C902.069 152.384 899.733 151.824 897.685 150.704C895.637 149.584 894.037 147.984 892.885 145.904C891.733 143.824 891.157 141.392 891.157 138.608C891.157 135.824 891.717 133.392 892.837 131.312C893.989 129.232 895.589 127.632 897.637 126.512C899.685 125.392 902.037 124.832 904.693 124.832C907.285 124.832 909.589 125.376 911.605 126.464C913.621 127.552 915.189 129.104 916.309 131.12C917.461 133.136 918.036 135.488 918.036 138.176ZM909.637 136.016C909.637 134.608 909.157 133.488 908.197 132.656C907.237 131.824 906.037 131.408 904.597 131.408C903.221 131.408 902.053 131.808 901.093 132.608C900.165 133.408 899.589 134.544 899.365 136.016H909.637ZM949.003 124.928C952.075 124.928 954.539 125.952 956.395 128C958.251 130.016 959.179 132.8 959.179 136.352V152H951.019V137.456C951.019 135.664 950.555 134.272 949.627 133.28C948.699 132.288 947.451 131.792 945.883 131.792C944.315 131.792 943.067 132.288 942.139 133.28C941.211 134.272 940.747 135.664 940.747 137.456V152H932.539V116.48H940.747V128.816C941.579 127.632 942.715 126.688 944.155 125.984C945.595 125.28 947.211 124.928 949.003 124.928ZM990.13 138.176C990.13 138.944 990.082 139.744 989.986 140.576H971.41C971.538 142.24 972.066 143.52 972.994 144.416C973.954 145.28 975.122 145.712 976.498 145.712C978.546 145.712 979.97 144.848 980.77 143.12H989.506C989.058 144.88 988.242 146.464 987.058 147.872C985.906 149.28 984.45 150.384 982.69 151.184C980.93 151.984 978.962 152.384 976.786 152.384C974.162 152.384 971.826 151.824 969.778 150.704C967.73 149.584 966.13 147.984 964.978 145.904C963.826 143.824 963.25 141.392 963.25 138.608C963.25 135.824 963.81 133.392 964.93 131.312C966.082 129.232 967.682 127.632 969.73 126.512C971.778 125.392 974.13 124.832 976.786 124.832C979.378 124.832 981.682 125.376 983.698 126.464C985.714 127.552 987.282 129.104 988.402 131.12C989.554 133.136 990.13 135.488 990.13 138.176ZM981.73 136.016C981.73 134.608 981.25 133.488 980.29 132.656C979.33 131.824 978.13 131.408 976.69 131.408C975.314 131.408 974.146 131.808 973.186 132.608C972.258 133.408 971.682 134.544 971.458 136.016H981.73ZM1002.67 129.68C1003.63 128.208 1004.83 127.056 1006.27 126.224C1007.71 125.36 1009.31 124.928 1011.07 124.928V133.616H1008.81C1006.76 133.616 1005.23 134.064 1004.2 134.96C1003.18 135.824 1002.67 137.36 1002.67 139.568V152H994.46V125.216H1002.67V129.68ZM1040.24 138.176C1040.24 138.944 1040.19 139.744 1040.1 140.576H1021.52C1021.65 142.24 1022.18 143.52 1023.1 144.416C1024.06 145.28 1025.23 145.712 1026.61 145.712C1028.66 145.712 1030.08 144.848 1030.88 143.12H1039.62C1039.17 144.88 1038.35 146.464 1037.17 147.872C1036.02 149.28 1034.56 150.384 1032.8 151.184C1031.04 151.984 1029.07 152.384 1026.9 152.384C1024.27 152.384 1021.94 151.824 1019.89 150.704C1017.84 149.584 1016.24 147.984 1015.09 145.904C1013.94 143.824 1013.36 141.392 1013.36 138.608C1013.36 135.824 1013.92 133.392 1015.04 131.312C1016.19 129.232 1017.79 127.632 1019.84 126.512C1021.89 125.392 1024.24 124.832 1026.9 124.832C1029.49 124.832 1031.79 125.376 1033.81 126.464C1035.82 127.552 1037.39 129.104 1038.51 131.12C1039.66 133.136 1040.24 135.488 1040.24 138.176ZM1031.84 136.016C1031.84 134.608 1031.36 133.488 1030.4 132.656C1029.44 131.824 1028.24 131.408 1026.8 131.408C1025.42 131.408 1024.26 131.808 1023.3 132.608C1022.37 133.408 1021.79 134.544 1021.57 136.016H1031.84ZM1069.67 145.04V152H1065.49C1062.52 152 1060.2 151.28 1058.53 149.84C1056.87 148.368 1056.04 145.984 1056.04 142.688V132.032H1052.77V125.216H1056.04V118.688H1064.25V125.216H1069.62V132.032H1064.25V142.784C1064.25 143.584 1064.44 144.16 1064.82 144.512C1065.21 144.864 1065.85 145.04 1066.74 145.04H1069.67ZM1086.43 152.384C1083.81 152.384 1081.44 151.824 1079.33 150.704C1077.25 149.584 1075.6 147.984 1074.39 145.904C1073.2 143.824 1072.61 141.392 1072.61 138.608C1072.61 135.856 1073.22 133.44 1074.43 131.36C1075.65 129.248 1077.31 127.632 1079.43 126.512C1081.54 125.392 1083.91 124.832 1086.53 124.832C1089.15 124.832 1091.52 125.392 1093.63 126.512C1095.75 127.632 1097.41 129.248 1098.63 131.36C1099.84 133.44 1100.45 135.856 1100.45 138.608C1100.45 141.36 1099.83 143.792 1098.58 145.904C1097.36 147.984 1095.68 149.584 1093.54 150.704C1091.43 151.824 1089.06 152.384 1086.43 152.384ZM1086.43 145.28C1088 145.28 1089.33 144.704 1090.42 143.552C1091.54 142.4 1092.1 140.752 1092.1 138.608C1092.1 136.464 1091.55 134.816 1090.47 133.664C1089.41 132.512 1088.1 131.936 1086.53 131.936C1084.93 131.936 1083.6 132.512 1082.55 133.664C1081.49 134.784 1080.96 136.432 1080.96 138.608C1080.96 140.752 1081.47 142.4 1082.5 143.552C1083.55 144.704 1084.87 145.28 1086.43 145.28ZM1149.15 124.928C1152.48 124.928 1155.12 125.936 1157.07 127.952C1159.06 129.968 1160.05 132.768 1160.05 136.352V152H1151.89V137.456C1151.89 135.728 1151.42 134.4 1150.5 133.472C1149.6 132.512 1148.35 132.032 1146.75 132.032C1145.15 132.032 1143.89 132.512 1142.96 133.472C1142.06 134.4 1141.62 135.728 1141.62 137.456V152H1133.46V137.456C1133.46 135.728 1132.99 134.4 1132.06 133.472C1131.17 132.512 1129.92 132.032 1128.32 132.032C1126.72 132.032 1125.46 132.512 1124.53 133.472C1123.63 134.4 1123.18 135.728 1123.18 137.456V152H1114.98V125.216H1123.18V128.576C1124.02 127.456 1125.1 126.576 1126.45 125.936C1127.79 125.264 1129.31 124.928 1131.01 124.928C1133.02 124.928 1134.82 125.36 1136.38 126.224C1137.98 127.088 1139.23 128.32 1140.13 129.92C1141.06 128.448 1142.32 127.248 1143.92 126.32C1145.52 125.392 1147.26 124.928 1149.15 124.928ZM1164.16 138.56C1164.16 135.808 1164.67 133.392 1165.69 131.312C1166.75 129.232 1168.17 127.632 1169.96 126.512C1171.76 125.392 1173.76 124.832 1175.96 124.832C1177.85 124.832 1179.5 125.216 1180.91 125.984C1182.35 126.752 1183.45 127.76 1184.22 129.008V125.216H1192.43V152H1184.22V148.208C1183.42 149.456 1182.3 150.464 1180.86 151.232C1179.45 152 1177.8 152.384 1175.92 152.384C1173.74 152.384 1171.76 151.824 1169.96 150.704C1168.17 149.552 1166.75 147.936 1165.69 145.856C1164.67 143.744 1164.16 141.312 1164.16 138.56ZM1184.22 138.608C1184.22 136.56 1183.64 134.944 1182.49 133.76C1181.37 132.576 1180 131.984 1178.36 131.984C1176.73 131.984 1175.34 132.576 1174.19 133.76C1173.07 134.912 1172.51 136.512 1172.51 138.56C1172.51 140.608 1173.07 142.24 1174.19 143.456C1175.34 144.64 1176.73 145.232 1178.36 145.232C1180 145.232 1181.37 144.64 1182.49 143.456C1183.64 142.272 1184.22 140.656 1184.22 138.608ZM1214.73 152L1206.57 140.768V152H1198.37V116.48H1206.57V136.112L1214.69 125.216H1224.81L1213.68 138.656L1224.91 152H1214.73ZM1253.29 138.176C1253.29 138.944 1253.24 139.744 1253.14 140.576H1234.57C1234.69 142.24 1235.22 143.52 1236.15 144.416C1237.11 145.28 1238.28 145.712 1239.65 145.712C1241.7 145.712 1243.13 144.848 1243.93 143.12H1252.66C1252.21 144.88 1251.4 146.464 1250.21 147.872C1249.06 149.28 1247.61 150.384 1245.85 151.184C1244.09 151.984 1242.12 152.384 1239.94 152.384C1237.32 152.384 1234.98 151.824 1232.93 150.704C1230.89 149.584 1229.29 147.984 1228.13 145.904C1226.98 143.824 1226.41 141.392 1226.41 138.608C1226.41 135.824 1226.97 133.392 1228.09 131.312C1229.24 129.232 1230.84 127.632 1232.89 126.512C1234.93 125.392 1237.29 124.832 1239.94 124.832C1242.53 124.832 1244.84 125.376 1246.85 126.464C1248.87 127.552 1250.44 129.104 1251.56 131.12C1252.71 133.136 1253.29 135.488 1253.29 138.176ZM1244.89 136.016C1244.89 134.608 1244.41 133.488 1243.45 132.656C1242.49 131.824 1241.29 131.408 1239.85 131.408C1238.47 131.408 1237.3 131.808 1236.34 132.608C1235.41 133.408 1234.84 134.544 1234.61 136.016H1244.89ZM1276 116.48V152H1267.79V116.48H1276ZM1307.19 138.176C1307.19 138.944 1307.14 139.744 1307.05 140.576H1288.47C1288.6 142.24 1289.13 143.52 1290.06 144.416C1291.02 145.28 1292.18 145.712 1293.56 145.712C1295.61 145.712 1297.03 144.848 1297.83 143.12H1306.57C1306.12 144.88 1305.3 146.464 1304.12 147.872C1302.97 149.28 1301.51 150.384 1299.75 151.184C1297.99 151.984 1296.02 152.384 1293.85 152.384C1291.22 152.384 1288.89 151.824 1286.84 150.704C1284.79 149.584 1283.19 147.984 1282.04 145.904C1280.89 143.824 1280.31 141.392 1280.31 138.608C1280.31 135.824 1280.87 133.392 1281.99 131.312C1283.14 129.232 1284.74 127.632 1286.79 126.512C1288.84 125.392 1291.19 124.832 1293.85 124.832C1296.44 124.832 1298.74 125.376 1300.76 126.464C1302.78 127.552 1304.34 129.104 1305.46 131.12C1306.62 133.136 1307.19 135.488 1307.19 138.176ZM1298.79 136.016C1298.79 134.608 1298.31 133.488 1297.35 132.656C1296.39 131.824 1295.19 131.408 1293.75 131.408C1292.38 131.408 1291.21 131.808 1290.25 132.608C1289.32 133.408 1288.74 134.544 1288.52 136.016H1298.79ZM1321.7 124.832C1323.59 124.832 1325.23 125.216 1326.64 125.984C1328.08 126.752 1329.19 127.76 1329.95 129.008V125.216H1338.16V151.952C1338.16 154.416 1337.67 156.64 1336.67 158.624C1335.71 160.64 1334.23 162.24 1332.21 163.424C1330.23 164.608 1327.75 165.2 1324.77 165.2C1320.8 165.2 1317.59 164.256 1315.12 162.368C1312.66 160.512 1311.25 157.984 1310.9 154.784H1319.01C1319.27 155.808 1319.87 156.608 1320.83 157.184C1321.79 157.792 1322.98 158.096 1324.39 158.096C1326.08 158.096 1327.43 157.6 1328.42 156.608C1329.44 155.648 1329.95 154.096 1329.95 151.952V148.16C1329.15 149.408 1328.05 150.432 1326.64 151.232C1325.23 152 1323.59 152.384 1321.7 152.384C1319.49 152.384 1317.49 151.824 1315.7 150.704C1313.91 149.552 1312.48 147.936 1311.43 145.856C1310.4 143.744 1309.89 141.312 1309.89 138.56C1309.89 135.808 1310.4 133.392 1311.43 131.312C1312.48 129.232 1313.91 127.632 1315.7 126.512C1317.49 125.392 1319.49 124.832 1321.7 124.832ZM1329.95 138.608C1329.95 136.56 1329.38 134.944 1328.23 133.76C1327.11 132.576 1325.73 131.984 1324.1 131.984C1322.47 131.984 1321.07 132.576 1319.92 133.76C1318.8 134.912 1318.24 136.512 1318.24 138.56C1318.24 140.608 1318.8 142.24 1319.92 143.456C1321.07 144.64 1322.47 145.232 1324.1 145.232C1325.73 145.232 1327.11 144.64 1328.23 143.456C1329.38 142.272 1329.95 140.656 1329.95 138.608ZM1342.47 138.56C1342.47 135.808 1342.98 133.392 1344.01 131.312C1345.06 129.232 1346.49 127.632 1348.28 126.512C1350.07 125.392 1352.07 124.832 1354.28 124.832C1356.17 124.832 1357.81 125.216 1359.22 125.984C1360.66 126.752 1361.77 127.76 1362.53 129.008V125.216H1370.74V152H1362.53V148.208C1361.73 149.456 1360.61 150.464 1359.17 151.232C1357.77 152 1356.12 152.384 1354.23 152.384C1352.05 152.384 1350.07 151.824 1348.28 150.704C1346.49 149.552 1345.06 147.936 1344.01 145.856C1342.98 143.744 1342.47 141.312 1342.47 138.56ZM1362.53 138.608C1362.53 136.56 1361.96 134.944 1360.81 133.76C1359.69 132.576 1358.31 131.984 1356.68 131.984C1355.05 131.984 1353.65 132.576 1352.5 133.76C1351.38 134.912 1350.82 136.512 1350.82 138.56C1350.82 140.608 1351.38 142.24 1352.5 143.456C1353.65 144.64 1355.05 145.232 1356.68 145.232C1358.31 145.232 1359.69 144.64 1360.81 143.456C1361.96 142.272 1362.53 140.656 1362.53 138.608ZM1384.89 116.48V152H1376.68V116.48H1384.89ZM310.27 222.384C307.934 222.384 305.854 221.984 304.03 221.184C302.206 220.384 300.766 219.296 299.71 217.92C298.654 216.512 298.062 214.944 297.934 213.216H306.046C306.142 214.144 306.574 214.896 307.342 215.472C308.11 216.048 309.054 216.336 310.174 216.336C311.198 216.336 311.982 216.144 312.526 215.76C313.102 215.344 313.39 214.816 313.39 214.176C313.39 213.408 312.99 212.848 312.19 212.496C311.39 212.112 310.094 211.696 308.302 211.248C306.382 210.8 304.782 210.336 303.502 209.856C302.222 209.344 301.118 208.56 300.19 207.504C299.262 206.416 298.798 204.96 298.798 203.136C298.798 201.6 299.214 200.208 300.046 198.96C300.91 197.68 302.158 196.672 303.79 195.936C305.454 195.2 307.422 194.832 309.694 194.832C313.054 194.832 315.694 195.664 317.614 197.328C319.566 198.992 320.686 201.2 320.974 203.952H313.39C313.262 203.024 312.846 202.288 312.142 201.744C311.47 201.2 310.574 200.928 309.454 200.928C308.494 200.928 307.758 201.12 307.246 201.504C306.734 201.856 306.478 202.352 306.478 202.992C306.478 203.76 306.878 204.336 307.678 204.72C308.51 205.104 309.79 205.488 311.518 205.872C313.502 206.384 315.118 206.896 316.366 207.408C317.614 207.888 318.702 208.688 319.63 209.808C320.59 210.896 321.086 212.368 321.118 214.224C321.118 215.792 320.67 217.2 319.774 218.448C318.91 219.664 317.646 220.624 315.982 221.328C314.35 222.032 312.446 222.384 310.27 222.384ZM338.332 222.384C335.708 222.384 333.34 221.824 331.228 220.704C329.148 219.584 327.5 217.984 326.284 215.904C325.1 213.824 324.508 211.392 324.508 208.608C324.508 205.856 325.116 203.44 326.332 201.36C327.548 199.248 329.212 197.632 331.324 196.512C333.436 195.392 335.804 194.832 338.428 194.832C341.052 194.832 343.42 195.392 345.532 196.512C347.644 197.632 349.308 199.248 350.524 201.36C351.74 203.44 352.348 205.856 352.348 208.608C352.348 211.36 351.724 213.792 350.476 215.904C349.26 217.984 347.58 219.584 345.436 220.704C343.324 221.824 340.956 222.384 338.332 222.384ZM338.332 215.28C339.9 215.28 341.228 214.704 342.316 213.552C343.436 212.4 343.996 210.752 343.996 208.608C343.996 206.464 343.452 204.816 342.364 203.664C341.308 202.512 339.996 201.936 338.428 201.936C336.828 201.936 335.5 202.512 334.444 203.664C333.388 204.784 332.86 206.432 332.86 208.608C332.86 210.752 333.372 212.4 334.396 213.552C335.452 214.704 336.764 215.28 338.332 215.28ZM364.911 186.48V222H356.703V186.48H364.911ZM397.307 195.216V222H389.099V218.352C388.267 219.536 387.131 220.496 385.691 221.232C384.283 221.936 382.715 222.288 380.987 222.288C378.939 222.288 377.131 221.84 375.563 220.944C373.995 220.016 372.779 218.688 371.915 216.96C371.051 215.232 370.619 213.2 370.619 210.864V195.216H378.779V209.76C378.779 211.552 379.243 212.944 380.171 213.936C381.099 214.928 382.347 215.424 383.915 215.424C385.515 215.424 386.779 214.928 387.707 213.936C388.635 212.944 389.099 211.552 389.099 209.76V195.216H397.307ZM418.131 215.04V222H413.955C410.979 222 408.659 221.28 406.995 219.84C405.331 218.368 404.499 215.984 404.499 212.688V202.032H401.235V195.216H404.499V188.688H412.707V195.216H418.083V202.032H412.707V212.784C412.707 213.584 412.899 214.16 413.283 214.512C413.667 214.864 414.307 215.04 415.203 215.04H418.131ZM426.831 192.432C425.391 192.432 424.207 192.016 423.279 191.184C422.383 190.32 421.935 189.264 421.935 188.016C421.935 186.736 422.383 185.68 423.279 184.848C424.207 183.984 425.391 183.552 426.831 183.552C428.239 183.552 429.391 183.984 430.287 184.848C431.215 185.68 431.679 186.736 431.679 188.016C431.679 189.264 431.215 190.32 430.287 191.184C429.391 192.016 428.239 192.432 426.831 192.432ZM430.911 195.216V222H422.703V195.216H430.911ZM449.051 222.384C446.427 222.384 444.059 221.824 441.947 220.704C439.867 219.584 438.219 217.984 437.003 215.904C435.819 213.824 435.227 211.392 435.227 208.608C435.227 205.856 435.835 203.44 437.051 201.36C438.267 199.248 439.931 197.632 442.043 196.512C444.155 195.392 446.523 194.832 449.147 194.832C451.771 194.832 454.139 195.392 456.251 196.512C458.363 197.632 460.027 199.248 461.243 201.36C462.459 203.44 463.067 205.856 463.067 208.608C463.067 211.36 462.443 213.792 461.195 215.904C459.979 217.984 458.299 219.584 456.155 220.704C454.043 221.824 451.675 222.384 449.051 222.384ZM449.051 215.28C450.619 215.28 451.947 214.704 453.035 213.552C454.155 212.4 454.715 210.752 454.715 208.608C454.715 206.464 454.171 204.816 453.083 203.664C452.027 202.512 450.715 201.936 449.147 201.936C447.547 201.936 446.219 202.512 445.163 203.664C444.107 204.784 443.579 206.432 443.579 208.608C443.579 210.752 444.091 212.4 445.115 213.552C446.171 214.704 447.483 215.28 449.051 215.28ZM483.741 194.928C486.877 194.928 489.373 195.952 491.229 198C493.117 200.016 494.061 202.8 494.061 206.352V222H485.901V207.456C485.901 205.664 485.437 204.272 484.509 203.28C483.581 202.288 482.333 201.792 480.765 201.792C479.197 201.792 477.949 202.288 477.021 203.28C476.093 204.272 475.629 205.664 475.629 207.456V222H467.421V195.216H475.629V198.768C476.461 197.584 477.581 196.656 478.989 195.984C480.397 195.28 481.981 194.928 483.741 194.928ZM510.661 222.384C508.325 222.384 506.245 221.984 504.421 221.184C502.597 220.384 501.157 219.296 500.101 217.92C499.045 216.512 498.453 214.944 498.325 213.216H506.437C506.533 214.144 506.965 214.896 507.733 215.472C508.501 216.048 509.445 216.336 510.565 216.336C511.589 216.336 512.373 216.144 512.917 215.76C513.493 215.344 513.781 214.816 513.781 214.176C513.781 213.408 513.381 212.848 512.581 212.496C511.781 212.112 510.485 211.696 508.693 211.248C506.773 210.8 505.173 210.336 503.893 209.856C502.613 209.344 501.509 208.56 500.581 207.504C499.653 206.416 499.189 204.96 499.189 203.136C499.189 201.6 499.605 200.208 500.437 198.96C501.301 197.68 502.549 196.672 504.181 195.936C505.845 195.2 507.813 194.832 510.085 194.832C513.445 194.832 516.085 195.664 518.005 197.328C519.957 198.992 521.077 201.2 521.365 203.952H513.781C513.653 203.024 513.237 202.288 512.533 201.744C511.861 201.2 510.965 200.928 509.845 200.928C508.885 200.928 508.149 201.12 507.637 201.504C507.125 201.856 506.869 202.352 506.869 202.992C506.869 203.76 507.269 204.336 508.069 204.72C508.901 205.104 510.181 205.488 511.909 205.872C513.893 206.384 515.509 206.896 516.757 207.408C518.005 207.888 519.093 208.688 520.021 209.808C520.981 210.896 521.477 212.368 521.509 214.224C521.509 215.792 521.061 217.2 520.165 218.448C519.301 219.664 518.037 220.624 516.373 221.328C514.741 222.032 512.837 222.384 510.661 222.384ZM547.599 222.384C545.263 222.384 543.183 221.984 541.359 221.184C539.535 220.384 538.095 219.296 537.039 217.92C535.983 216.512 535.391 214.944 535.263 213.216H543.375C543.471 214.144 543.903 214.896 544.671 215.472C545.439 216.048 546.383 216.336 547.503 216.336C548.527 216.336 549.311 216.144 549.855 215.76C550.431 215.344 550.719 214.816 550.719 214.176C550.719 213.408 550.319 212.848 549.519 212.496C548.719 212.112 547.423 211.696 545.631 211.248C543.711 210.8 542.111 210.336 540.831 209.856C539.551 209.344 538.447 208.56 537.519 207.504C536.591 206.416 536.127 204.96 536.127 203.136C536.127 201.6 536.543 200.208 537.375 198.96C538.239 197.68 539.487 196.672 541.119 195.936C542.783 195.2 544.751 194.832 547.023 194.832C550.383 194.832 553.023 195.664 554.943 197.328C556.895 198.992 558.015 201.2 558.303 203.952H550.719C550.591 203.024 550.175 202.288 549.471 201.744C548.799 201.2 547.903 200.928 546.783 200.928C545.823 200.928 545.087 201.12 544.575 201.504C544.063 201.856 543.807 202.352 543.807 202.992C543.807 203.76 544.207 204.336 545.007 204.72C545.839 205.104 547.119 205.488 548.847 205.872C550.831 206.384 552.447 206.896 553.695 207.408C554.943 207.888 556.031 208.688 556.959 209.808C557.919 210.896 558.415 212.368 558.447 214.224C558.447 215.792 557.999 217.2 557.103 218.448C556.239 219.664 554.975 220.624 553.311 221.328C551.679 222.032 549.775 222.384 547.599 222.384ZM567.596 192.432C566.156 192.432 564.972 192.016 564.044 191.184C563.148 190.32 562.7 189.264 562.7 188.016C562.7 186.736 563.148 185.68 564.044 184.848C564.972 183.984 566.156 183.552 567.596 183.552C569.004 183.552 570.156 183.984 571.052 184.848C571.98 185.68 572.444 186.736 572.444 188.016C572.444 189.264 571.98 190.32 571.052 191.184C570.156 192.016 569.004 192.432 567.596 192.432ZM571.676 195.216V222H563.468V195.216H571.676ZM611.8 194.928C615.128 194.928 617.768 195.936 619.72 197.952C621.704 199.968 622.696 202.768 622.696 206.352V222H614.536V207.456C614.536 205.728 614.072 204.4 613.144 203.472C612.248 202.512 611 202.032 609.4 202.032C607.8 202.032 606.536 202.512 605.608 203.472C604.712 204.4 604.264 205.728 604.264 207.456V222H596.104V207.456C596.104 205.728 595.64 204.4 594.712 203.472C593.816 202.512 592.568 202.032 590.968 202.032C589.368 202.032 588.104 202.512 587.176 203.472C586.28 204.4 585.832 205.728 585.832 207.456V222H577.624V195.216H585.832V198.576C586.664 197.456 587.752 196.576 589.096 195.936C590.44 195.264 591.96 194.928 593.656 194.928C595.672 194.928 597.464 195.36 599.032 196.224C600.632 197.088 601.88 198.32 602.776 199.92C603.704 198.448 604.968 197.248 606.568 196.32C608.168 195.392 609.912 194.928 611.8 194.928ZM636.645 199.008C637.445 197.76 638.549 196.752 639.957 195.984C641.365 195.216 643.013 194.832 644.901 194.832C647.109 194.832 649.109 195.392 650.901 196.512C652.693 197.632 654.101 199.232 655.125 201.312C656.181 203.392 656.709 205.808 656.709 208.56C656.709 211.312 656.181 213.744 655.125 215.856C654.101 217.936 652.693 219.552 650.901 220.704C649.109 221.824 647.109 222.384 644.901 222.384C643.045 222.384 641.397 222 639.957 221.232C638.549 220.464 637.445 219.472 636.645 218.256V234.768H628.437V195.216H636.645V199.008ZM648.357 208.56C648.357 206.512 647.781 204.912 646.629 203.76C645.509 202.576 644.117 201.984 642.453 201.984C640.821 201.984 639.429 202.576 638.277 203.76C637.157 204.944 636.597 206.56 636.597 208.608C636.597 210.656 637.157 212.272 638.277 213.456C639.429 214.64 640.821 215.232 642.453 215.232C644.085 215.232 645.477 214.64 646.629 213.456C647.781 212.24 648.357 210.608 648.357 208.56ZM669.223 186.48V222H661.015V186.48H669.223ZM700.419 208.176C700.419 208.944 700.371 209.744 700.275 210.576H681.699C681.827 212.24 682.355 213.52 683.283 214.416C684.243 215.28 685.411 215.712 686.787 215.712C688.835 215.712 690.259 214.848 691.059 213.12H699.795C699.347 214.88 698.531 216.464 697.347 217.872C696.195 219.28 694.739 220.384 692.979 221.184C691.219 221.984 689.251 222.384 687.075 222.384C684.451 222.384 682.115 221.824 680.067 220.704C678.019 219.584 676.419 217.984 675.267 215.904C674.115 213.824 673.539 211.392 673.539 208.608C673.539 205.824 674.099 203.392 675.219 201.312C676.371 199.232 677.971 197.632 680.019 196.512C682.067 195.392 684.419 194.832 687.075 194.832C689.667 194.832 691.971 195.376 693.987 196.464C696.003 197.552 697.571 199.104 698.691 201.12C699.843 203.136 700.419 205.488 700.419 208.176ZM692.019 206.016C692.019 204.608 691.539 203.488 690.579 202.656C689.619 201.824 688.419 201.408 686.979 201.408C685.603 201.408 684.435 201.808 683.475 202.608C682.547 203.408 681.971 204.544 681.747 206.016H692.019ZM713.581 214.416L708.253 228.192H703.021L705.805 214.416H713.581ZM727.071 208.608C727.071 205.824 727.631 203.392 728.751 201.312C729.903 199.232 731.487 197.632 733.503 196.512C735.551 195.392 737.887 194.832 740.511 194.832C743.871 194.832 746.671 195.712 748.911 197.472C751.183 199.232 752.671 201.712 753.375 204.912H744.639C743.903 202.864 742.479 201.84 740.367 201.84C738.863 201.84 737.663 202.432 736.767 203.616C735.871 204.768 735.423 206.432 735.423 208.608C735.423 210.784 735.871 212.464 736.767 213.648C737.663 214.8 738.863 215.376 740.367 215.376C742.479 215.376 743.903 214.352 744.639 212.304H753.375C752.671 215.44 751.183 217.904 748.911 219.696C746.639 221.488 743.839 222.384 740.511 222.384C737.887 222.384 735.551 221.824 733.503 220.704C731.487 219.584 729.903 217.984 728.751 215.904C727.631 213.824 727.071 211.392 727.071 208.608ZM769.957 222.384C767.333 222.384 764.965 221.824 762.853 220.704C760.773 219.584 759.125 217.984 757.909 215.904C756.725 213.824 756.133 211.392 756.133 208.608C756.133 205.856 756.741 203.44 757.957 201.36C759.173 199.248 760.837 197.632 762.949 196.512C765.061 195.392 767.429 194.832 770.053 194.832C772.677 194.832 775.045 195.392 777.157 196.512C779.269 197.632 780.933 199.248 782.149 201.36C783.365 203.44 783.973 205.856 783.973 208.608C783.973 211.36 783.349 213.792 782.101 215.904C780.885 217.984 779.205 219.584 777.061 220.704C774.949 221.824 772.581 222.384 769.957 222.384ZM769.957 215.28C771.525 215.28 772.853 214.704 773.941 213.552C775.061 212.4 775.621 210.752 775.621 208.608C775.621 206.464 775.077 204.816 773.989 203.664C772.933 202.512 771.621 201.936 770.053 201.936C768.453 201.936 767.125 202.512 766.069 203.664C765.013 204.784 764.485 206.432 764.485 208.608C764.485 210.752 764.997 212.4 766.021 213.552C767.077 214.704 768.389 215.28 769.957 215.28ZM804.648 194.928C807.784 194.928 810.28 195.952 812.136 198C814.024 200.016 814.968 202.8 814.968 206.352V222H806.808V207.456C806.808 205.664 806.344 204.272 805.416 203.28C804.488 202.288 803.24 201.792 801.672 201.792C800.104 201.792 798.856 202.288 797.928 203.28C797 204.272 796.536 205.664 796.536 207.456V222H788.328V195.216H796.536V198.768C797.368 197.584 798.488 196.656 799.896 195.984C801.304 195.28 802.888 194.928 804.648 194.928ZM832.719 214.32L838.527 195.216H847.263L837.759 222H827.631L818.127 195.216H826.911L832.719 214.32ZM875.966 208.176C875.966 208.944 875.918 209.744 875.822 210.576H857.246C857.374 212.24 857.902 213.52 858.83 214.416C859.79 215.28 860.958 215.712 862.334 215.712C864.382 215.712 865.806 214.848 866.606 213.12H875.342C874.894 214.88 874.078 216.464 872.894 217.872C871.742 219.28 870.286 220.384 868.526 221.184C866.766 221.984 864.798 222.384 862.622 222.384C859.998 222.384 857.662 221.824 855.614 220.704C853.566 219.584 851.966 217.984 850.814 215.904C849.662 213.824 849.086 211.392 849.086 208.608C849.086 205.824 849.646 203.392 850.766 201.312C851.918 199.232 853.518 197.632 855.566 196.512C857.614 195.392 859.966 194.832 862.622 194.832C865.214 194.832 867.518 195.376 869.534 196.464C871.55 197.552 873.118 199.104 874.238 201.12C875.39 203.136 875.966 205.488 875.966 208.176ZM867.566 206.016C867.566 204.608 867.086 203.488 866.126 202.656C865.166 201.824 863.966 201.408 862.526 201.408C861.15 201.408 859.982 201.808 859.022 202.608C858.094 203.408 857.518 204.544 857.294 206.016H867.566ZM896.616 194.928C899.752 194.928 902.248 195.952 904.104 198C905.992 200.016 906.936 202.8 906.936 206.352V222H898.776V207.456C898.776 205.664 898.312 204.272 897.384 203.28C896.456 202.288 895.208 201.792 893.64 201.792C892.072 201.792 890.824 202.288 889.896 203.28C888.968 204.272 888.504 205.664 888.504 207.456V222H880.296V195.216H888.504V198.768C889.336 197.584 890.456 196.656 891.864 195.984C893.272 195.28 894.856 194.928 896.616 194.928ZM916.768 192.432C915.328 192.432 914.144 192.016 913.216 191.184C912.32 190.32 911.872 189.264 911.872 188.016C911.872 186.736 912.32 185.68 913.216 184.848C914.144 183.984 915.328 183.552 916.768 183.552C918.176 183.552 919.328 183.984 920.224 184.848C921.152 185.68 921.616 186.736 921.616 188.016C921.616 189.264 921.152 190.32 920.224 191.184C919.328 192.016 918.176 192.432 916.768 192.432ZM920.848 195.216V222H912.64V195.216H920.848ZM952.044 208.176C952.044 208.944 951.996 209.744 951.9 210.576H933.324C933.452 212.24 933.98 213.52 934.908 214.416C935.868 215.28 937.036 215.712 938.412 215.712C940.46 215.712 941.884 214.848 942.684 213.12H951.42C950.972 214.88 950.156 216.464 948.972 217.872C947.82 219.28 946.364 220.384 944.604 221.184C942.844 221.984 940.876 222.384 938.7 222.384C936.076 222.384 933.74 221.824 931.692 220.704C929.644 219.584 928.044 217.984 926.892 215.904C925.74 213.824 925.164 211.392 925.164 208.608C925.164 205.824 925.724 203.392 926.844 201.312C927.996 199.232 929.596 197.632 931.644 196.512C933.692 195.392 936.044 194.832 938.7 194.832C941.292 194.832 943.596 195.376 945.612 196.464C947.628 197.552 949.196 199.104 950.316 201.12C951.468 203.136 952.044 205.488 952.044 208.176ZM943.644 206.016C943.644 204.608 943.164 203.488 942.204 202.656C941.244 201.824 940.044 201.408 938.604 201.408C937.228 201.408 936.06 201.808 935.1 202.608C934.172 203.408 933.596 204.544 933.372 206.016H943.644ZM972.694 194.928C975.83 194.928 978.326 195.952 980.182 198C982.07 200.016 983.014 202.8 983.014 206.352V222H974.854V207.456C974.854 205.664 974.39 204.272 973.462 203.28C972.534 202.288 971.286 201.792 969.718 201.792C968.15 201.792 966.902 202.288 965.974 203.28C965.046 204.272 964.582 205.664 964.582 207.456V222H956.374V195.216H964.582V198.768C965.414 197.584 966.534 196.656 967.942 195.984C969.35 195.28 970.934 194.928 972.694 194.928ZM1003.65 215.04V222H999.47C996.494 222 994.174 221.28 992.51 219.84C990.846 218.368 990.014 215.984 990.014 212.688V202.032H986.75V195.216H990.014V188.688H998.222V195.216H1003.6V202.032H998.222V212.784C998.222 213.584 998.414 214.16 998.798 214.512C999.182 214.864 999.822 215.04 1000.72 215.04H1003.65ZM1017.05 214.416L1011.72 228.192H1006.49L1009.27 214.416H1017.05ZM1030.54 208.56C1030.54 205.808 1031.05 203.392 1032.08 201.312C1033.13 199.232 1034.56 197.632 1036.35 196.512C1038.14 195.392 1040.14 194.832 1042.35 194.832C1044.24 194.832 1045.88 195.216 1047.29 195.984C1048.73 196.752 1049.84 197.76 1050.6 199.008V195.216H1058.81V222H1050.6V218.208C1049.8 219.456 1048.68 220.464 1047.24 221.232C1045.84 222 1044.19 222.384 1042.3 222.384C1040.12 222.384 1038.14 221.824 1036.35 220.704C1034.56 219.552 1033.13 217.936 1032.08 215.856C1031.05 213.744 1030.54 211.312 1030.54 208.56ZM1050.6 208.608C1050.6 206.56 1050.03 204.944 1048.88 203.76C1047.76 202.576 1046.38 201.984 1044.75 201.984C1043.12 201.984 1041.72 202.576 1040.57 203.76C1039.45 204.912 1038.89 206.512 1038.89 208.56C1038.89 210.608 1039.45 212.24 1040.57 213.456C1041.72 214.64 1043.12 215.232 1044.75 215.232C1046.38 215.232 1047.76 214.64 1048.88 213.456C1050.03 212.272 1050.6 210.656 1050.6 208.608ZM1081.07 194.928C1084.21 194.928 1086.7 195.952 1088.56 198C1090.45 200.016 1091.39 202.8 1091.39 206.352V222H1083.23V207.456C1083.23 205.664 1082.77 204.272 1081.84 203.28C1080.91 202.288 1079.66 201.792 1078.09 201.792C1076.53 201.792 1075.28 202.288 1074.35 203.28C1073.42 204.272 1072.96 205.664 1072.96 207.456V222H1064.75V195.216H1072.96V198.768C1073.79 197.584 1074.91 196.656 1076.32 195.984C1077.73 195.28 1079.31 194.928 1081.07 194.928ZM1095.46 208.56C1095.46 205.808 1095.97 203.392 1097 201.312C1098.05 199.232 1099.48 197.632 1101.27 196.512C1103.06 195.392 1105.06 194.832 1107.27 194.832C1109.03 194.832 1110.63 195.2 1112.07 195.936C1113.54 196.672 1114.69 197.664 1115.53 198.912V186.48H1123.73V222H1115.53V218.16C1114.76 219.44 1113.65 220.464 1112.21 221.232C1110.81 222 1109.16 222.384 1107.27 222.384C1105.06 222.384 1103.06 221.824 1101.27 220.704C1099.48 219.552 1098.05 217.936 1097 215.856C1095.97 213.744 1095.46 211.312 1095.46 208.56ZM1115.53 208.608C1115.53 206.56 1114.95 204.944 1113.8 203.76C1112.68 202.576 1111.3 201.984 1109.67 201.984C1108.04 201.984 1106.65 202.576 1105.49 203.76C1104.37 204.912 1103.81 206.512 1103.81 208.56C1103.81 210.608 1104.37 212.24 1105.49 213.456C1106.65 214.64 1108.04 215.232 1109.67 215.232C1111.3 215.232 1112.68 214.64 1113.8 213.456C1114.95 212.272 1115.53 210.656 1115.53 208.608ZM1150.74 222.384C1148.4 222.384 1146.32 221.984 1144.5 221.184C1142.68 220.384 1141.24 219.296 1140.18 217.92C1139.12 216.512 1138.53 214.944 1138.4 213.216H1146.52C1146.61 214.144 1147.04 214.896 1147.81 215.472C1148.58 216.048 1149.52 216.336 1150.64 216.336C1151.67 216.336 1152.45 216.144 1153 215.76C1153.57 215.344 1153.86 214.816 1153.86 214.176C1153.86 213.408 1153.46 212.848 1152.66 212.496C1151.86 212.112 1150.56 211.696 1148.77 211.248C1146.85 210.8 1145.25 210.336 1143.97 209.856C1142.69 209.344 1141.59 208.56 1140.66 207.504C1139.73 206.416 1139.27 204.96 1139.27 203.136C1139.27 201.6 1139.68 200.208 1140.52 198.96C1141.38 197.68 1142.63 196.672 1144.26 195.936C1145.92 195.2 1147.89 194.832 1150.16 194.832C1153.52 194.832 1156.16 195.664 1158.08 197.328C1160.04 198.992 1161.16 201.2 1161.44 203.952H1153.86C1153.73 203.024 1153.32 202.288 1152.61 201.744C1151.94 201.2 1151.04 200.928 1149.92 200.928C1148.96 200.928 1148.23 201.12 1147.72 201.504C1147.2 201.856 1146.95 202.352 1146.95 202.992C1146.95 203.76 1147.35 204.336 1148.15 204.72C1148.98 205.104 1150.26 205.488 1151.99 205.872C1153.97 206.384 1155.59 206.896 1156.84 207.408C1158.08 207.888 1159.17 208.688 1160.1 209.808C1161.06 210.896 1161.56 212.368 1161.59 214.224C1161.59 215.792 1161.14 217.2 1160.24 218.448C1159.38 219.664 1158.12 220.624 1156.45 221.328C1154.82 222.032 1152.92 222.384 1150.74 222.384ZM1181.54 215.04V222H1177.36C1174.38 222 1172.06 221.28 1170.4 219.84C1168.74 218.368 1167.9 215.984 1167.9 212.688V202.032H1164.64V195.216H1167.9V188.688H1176.11V195.216H1181.49V202.032H1176.11V212.784C1176.11 213.584 1176.3 214.16 1176.69 214.512C1177.07 214.864 1177.71 215.04 1178.61 215.04H1181.54ZM1194.32 199.68C1195.28 198.208 1196.48 197.056 1197.92 196.224C1199.36 195.36 1200.96 194.928 1202.72 194.928V203.616H1200.46C1198.41 203.616 1196.88 204.064 1195.85 204.96C1194.83 205.824 1194.32 207.36 1194.32 209.568V222H1186.11V195.216H1194.32V199.68ZM1231.89 208.176C1231.89 208.944 1231.84 209.744 1231.74 210.576H1213.17C1213.3 212.24 1213.82 213.52 1214.75 214.416C1215.71 215.28 1216.88 215.712 1218.26 215.712C1220.3 215.712 1221.73 214.848 1222.53 213.12H1231.26C1230.82 214.88 1230 216.464 1228.82 217.872C1227.66 219.28 1226.21 220.384 1224.45 221.184C1222.69 221.984 1220.72 222.384 1218.54 222.384C1215.92 222.384 1213.58 221.824 1211.54 220.704C1209.49 219.584 1207.89 217.984 1206.74 215.904C1205.58 213.824 1205.01 211.392 1205.01 208.608C1205.01 205.824 1205.57 203.392 1206.69 201.312C1207.84 199.232 1209.44 197.632 1211.49 196.512C1213.54 195.392 1215.89 194.832 1218.54 194.832C1221.14 194.832 1223.44 195.376 1225.46 196.464C1227.47 197.552 1229.04 199.104 1230.16 201.12C1231.31 203.136 1231.89 205.488 1231.89 208.176ZM1223.49 206.016C1223.49 204.608 1223.01 203.488 1222.05 202.656C1221.09 201.824 1219.89 201.408 1218.45 201.408C1217.07 201.408 1215.9 201.808 1214.94 202.608C1214.02 203.408 1213.44 204.544 1213.22 206.016H1223.49ZM1247.11 222.384C1244.78 222.384 1242.7 221.984 1240.87 221.184C1239.05 220.384 1237.61 219.296 1236.55 217.92C1235.5 216.512 1234.91 214.944 1234.78 213.216H1242.89C1242.99 214.144 1243.42 214.896 1244.19 215.472C1244.95 216.048 1245.9 216.336 1247.02 216.336C1248.04 216.336 1248.83 216.144 1249.37 215.76C1249.95 215.344 1250.23 214.816 1250.23 214.176C1250.23 213.408 1249.83 212.848 1249.03 212.496C1248.23 212.112 1246.94 211.696 1245.15 211.248C1243.23 210.8 1241.63 210.336 1240.35 209.856C1239.07 209.344 1237.96 208.56 1237.03 207.504C1236.11 206.416 1235.64 204.96 1235.64 203.136C1235.64 201.6 1236.06 200.208 1236.89 198.96C1237.75 197.68 1239 196.672 1240.63 195.936C1242.3 195.2 1244.27 194.832 1246.54 194.832C1249.9 194.832 1252.54 195.664 1254.46 197.328C1256.41 198.992 1257.53 201.2 1257.82 203.952H1250.23C1250.11 203.024 1249.69 202.288 1248.99 201.744C1248.31 201.2 1247.42 200.928 1246.3 200.928C1245.34 200.928 1244.6 201.12 1244.09 201.504C1243.58 201.856 1243.32 202.352 1243.32 202.992C1243.32 203.76 1243.72 204.336 1244.52 204.72C1245.35 205.104 1246.63 205.488 1248.36 205.872C1250.35 206.384 1251.96 206.896 1253.21 207.408C1254.46 207.888 1255.55 208.688 1256.47 209.808C1257.43 210.896 1257.93 212.368 1257.96 214.224C1257.96 215.792 1257.51 217.2 1256.62 218.448C1255.75 219.664 1254.49 220.624 1252.83 221.328C1251.19 222.032 1249.29 222.384 1247.11 222.384ZM1273.88 222.384C1271.54 222.384 1269.46 221.984 1267.64 221.184C1265.82 220.384 1264.38 219.296 1263.32 217.92C1262.26 216.512 1261.67 214.944 1261.54 213.216H1269.66C1269.75 214.144 1270.18 214.896 1270.95 215.472C1271.72 216.048 1272.66 216.336 1273.78 216.336C1274.81 216.336 1275.59 216.144 1276.14 215.76C1276.71 215.344 1277 214.816 1277 214.176C1277 213.408 1276.6 212.848 1275.8 212.496C1275 212.112 1273.7 211.696 1271.91 211.248C1269.99 210.8 1268.39 210.336 1267.11 209.856C1265.83 209.344 1264.73 208.56 1263.8 207.504C1262.87 206.416 1262.41 204.96 1262.41 203.136C1262.41 201.6 1262.82 200.208 1263.66 198.96C1264.52 197.68 1265.77 196.672 1267.4 195.936C1269.06 195.2 1271.03 194.832 1273.3 194.832C1276.66 194.832 1279.3 195.664 1281.22 197.328C1283.18 198.992 1284.3 201.2 1284.58 203.952H1277C1276.87 203.024 1276.46 202.288 1275.75 201.744C1275.08 201.2 1274.18 200.928 1273.06 200.928C1272.1 200.928 1271.37 201.12 1270.86 201.504C1270.34 201.856 1270.09 202.352 1270.09 202.992C1270.09 203.76 1270.49 204.336 1271.29 204.72C1272.12 205.104 1273.4 205.488 1275.13 205.872C1277.11 206.384 1278.73 206.896 1279.98 207.408C1281.22 207.888 1282.31 208.688 1283.24 209.808C1284.2 210.896 1284.7 212.368 1284.73 214.224C1284.73 215.792 1284.28 217.2 1283.38 218.448C1282.52 219.664 1281.26 220.624 1279.59 221.328C1277.96 222.032 1276.06 222.384 1273.88 222.384ZM1310.39 201.744V208.56H1289.27V201.744H1310.39ZM1331.03 202.032H1326.62V222H1318.41V202.032H1315.43V195.216H1318.41V194.448C1318.41 191.152 1319.35 188.656 1321.24 186.96C1323.13 185.232 1325.9 184.368 1329.55 184.368C1330.15 184.368 1330.6 184.384 1330.89 184.416V191.376C1329.32 191.28 1328.22 191.504 1327.58 192.048C1326.94 192.592 1326.62 193.568 1326.62 194.976V195.216H1331.03V202.032ZM1343.1 199.68C1344.06 198.208 1345.26 197.056 1346.7 196.224C1348.14 195.36 1349.74 194.928 1351.5 194.928V203.616H1349.24C1347.19 203.616 1345.66 204.064 1344.63 204.96C1343.61 205.824 1343.1 207.36 1343.1 209.568V222H1334.89V195.216H1343.1V199.68ZM1380.67 208.176C1380.67 208.944 1380.62 209.744 1380.53 210.576H1361.95C1362.08 212.24 1362.61 213.52 1363.53 214.416C1364.49 215.28 1365.66 215.712 1367.04 215.712C1369.09 215.712 1370.51 214.848 1371.31 213.12H1380.05C1379.6 214.88 1378.78 216.464 1377.6 217.872C1376.45 219.28 1374.99 220.384 1373.23 221.184C1371.47 221.984 1369.5 222.384 1367.33 222.384C1364.7 222.384 1362.37 221.824 1360.32 220.704C1358.27 219.584 1356.67 217.984 1355.52 215.904C1354.37 213.824 1353.79 211.392 1353.79 208.608C1353.79 205.824 1354.35 203.392 1355.47 201.312C1356.62 199.232 1358.22 197.632 1360.27 196.512C1362.32 195.392 1364.67 194.832 1367.33 194.832C1369.92 194.832 1372.22 195.376 1374.24 196.464C1376.25 197.552 1377.82 199.104 1378.94 201.12C1380.09 203.136 1380.67 205.488 1380.67 208.176ZM1372.27 206.016C1372.27 204.608 1371.79 203.488 1370.83 202.656C1369.87 201.824 1368.67 201.408 1367.23 201.408C1365.85 201.408 1364.69 201.808 1363.73 202.608C1362.8 203.408 1362.22 204.544 1362 206.016H1372.27ZM1410.25 208.176C1410.25 208.944 1410.2 209.744 1410.1 210.576H1391.53C1391.66 212.24 1392.18 213.52 1393.11 214.416C1394.07 215.28 1395.24 215.712 1396.62 215.712C1398.66 215.712 1400.09 214.848 1400.89 213.12H1409.62C1409.18 214.88 1408.36 216.464 1407.18 217.872C1406.02 219.28 1404.57 220.384 1402.81 221.184C1401.05 221.984 1399.08 222.384 1396.9 222.384C1394.28 222.384 1391.94 221.824 1389.9 220.704C1387.85 219.584 1386.25 217.984 1385.1 215.904C1383.94 213.824 1383.37 211.392 1383.37 208.608C1383.37 205.824 1383.93 203.392 1385.05 201.312C1386.2 199.232 1387.8 197.632 1389.85 196.512C1391.9 195.392 1394.25 194.832 1396.9 194.832C1399.5 194.832 1401.8 195.376 1403.82 196.464C1405.83 197.552 1407.4 199.104 1408.52 201.12C1409.67 203.136 1410.25 205.488 1410.25 208.176ZM1401.85 206.016C1401.85 204.608 1401.37 203.488 1400.41 202.656C1399.45 201.824 1398.25 201.408 1396.81 201.408C1395.43 201.408 1394.26 201.808 1393.3 202.608C1392.38 203.408 1391.8 204.544 1391.58 206.016H1401.85ZM377.302 292.384C374.966 292.384 372.886 291.984 371.062 291.184C369.238 290.384 367.798 289.296 366.742 287.92C365.686 286.512 365.094 284.944 364.966 283.216H373.078C373.174 284.144 373.606 284.896 374.374 285.472C375.142 286.048 376.086 286.336 377.206 286.336C378.23 286.336 379.014 286.144 379.558 285.76C380.134 285.344 380.422 284.816 380.422 284.176C380.422 283.408 380.022 282.848 379.222 282.496C378.422 282.112 377.126 281.696 375.334 281.248C373.414 280.8 371.814 280.336 370.534 279.856C369.254 279.344 368.15 278.56 367.222 277.504C366.294 276.416 365.83 274.96 365.83 273.136C365.83 271.6 366.246 270.208 367.078 268.96C367.942 267.68 369.19 266.672 370.822 265.936C372.486 265.2 374.454 264.832 376.726 264.832C380.086 264.832 382.726 265.664 384.646 267.328C386.598 268.992 387.718 271.2 388.006 273.952H380.422C380.294 273.024 379.878 272.288 379.174 271.744C378.502 271.2 377.606 270.928 376.486 270.928C375.526 270.928 374.79 271.12 374.278 271.504C373.766 271.856 373.51 272.352 373.51 272.992C373.51 273.76 373.91 274.336 374.71 274.72C375.542 275.104 376.822 275.488 378.55 275.872C380.534 276.384 382.15 276.896 383.398 277.408C384.646 277.888 385.734 278.688 386.662 279.808C387.622 280.896 388.118 282.368 388.15 284.224C388.15 285.792 387.702 287.2 386.806 288.448C385.942 289.664 384.678 290.624 383.014 291.328C381.382 292.032 379.478 292.384 377.302 292.384ZM405.363 292.384C402.739 292.384 400.371 291.824 398.259 290.704C396.179 289.584 394.531 287.984 393.315 285.904C392.131 283.824 391.539 281.392 391.539 278.608C391.539 275.856 392.147 273.44 393.363 271.36C394.579 269.248 396.243 267.632 398.355 266.512C400.467 265.392 402.835 264.832 405.459 264.832C408.083 264.832 410.451 265.392 412.563 266.512C414.675 267.632 416.339 269.248 417.555 271.36C418.771 273.44 419.379 275.856 419.379 278.608C419.379 281.36 418.755 283.792 417.507 285.904C416.291 287.984 414.611 289.584 412.467 290.704C410.355 291.824 407.987 292.384 405.363 292.384ZM405.363 285.28C406.931 285.28 408.259 284.704 409.347 283.552C410.467 282.4 411.027 280.752 411.027 278.608C411.027 276.464 410.483 274.816 409.395 273.664C408.339 272.512 407.027 271.936 405.459 271.936C403.859 271.936 402.531 272.512 401.475 273.664C400.419 274.784 399.891 276.432 399.891 278.608C399.891 280.752 400.403 282.4 401.427 283.552C402.483 284.704 403.795 285.28 405.363 285.28ZM461.266 265.216L444.466 304.72H435.634L441.778 291.088L430.882 265.216H440.05L446.242 281.968L452.386 265.216H461.266ZM476.426 292.384C473.802 292.384 471.434 291.824 469.322 290.704C467.242 289.584 465.594 287.984 464.378 285.904C463.194 283.824 462.602 281.392 462.602 278.608C462.602 275.856 463.21 273.44 464.426 271.36C465.642 269.248 467.306 267.632 469.418 266.512C471.53 265.392 473.898 264.832 476.522 264.832C479.146 264.832 481.514 265.392 483.626 266.512C485.738 267.632 487.402 269.248 488.618 271.36C489.834 273.44 490.442 275.856 490.442 278.608C490.442 281.36 489.818 283.792 488.57 285.904C487.354 287.984 485.674 289.584 483.53 290.704C481.418 291.824 479.05 292.384 476.426 292.384ZM476.426 285.28C477.994 285.28 479.322 284.704 480.41 283.552C481.53 282.4 482.09 280.752 482.09 278.608C482.09 276.464 481.546 274.816 480.458 273.664C479.402 272.512 478.09 271.936 476.522 271.936C474.922 271.936 473.594 272.512 472.538 273.664C471.482 274.784 470.954 276.432 470.954 278.608C470.954 280.752 471.466 282.4 472.49 283.552C473.546 284.704 474.858 285.28 476.426 285.28ZM521.244 265.216V292H513.036V288.352C512.204 289.536 511.068 290.496 509.628 291.232C508.22 291.936 506.652 292.288 504.924 292.288C502.876 292.288 501.068 291.84 499.5 290.944C497.932 290.016 496.716 288.688 495.852 286.96C494.988 285.232 494.556 283.2 494.556 280.864V265.216H502.716V279.76C502.716 281.552 503.18 282.944 504.108 283.936C505.036 284.928 506.284 285.424 507.852 285.424C509.452 285.424 510.716 284.928 511.644 283.936C512.572 282.944 513.036 281.552 513.036 279.76V265.216H521.244ZM535.68 278.608C535.68 275.824 536.24 273.392 537.36 271.312C538.512 269.232 540.096 267.632 542.112 266.512C544.16 265.392 546.496 264.832 549.12 264.832C552.48 264.832 555.28 265.712 557.52 267.472C559.792 269.232 561.28 271.712 561.984 274.912H553.248C552.512 272.864 551.088 271.84 548.976 271.84C547.472 271.84 546.272 272.432 545.376 273.616C544.48 274.768 544.032 276.432 544.032 278.608C544.032 280.784 544.48 282.464 545.376 283.648C546.272 284.8 547.472 285.376 548.976 285.376C551.088 285.376 552.512 284.352 553.248 282.304H561.984C561.28 285.44 559.792 287.904 557.52 289.696C555.248 291.488 552.448 292.384 549.12 292.384C546.496 292.384 544.16 291.824 542.112 290.704C540.096 289.584 538.512 287.984 537.36 285.904C536.24 283.824 535.68 281.392 535.68 278.608ZM564.742 278.56C564.742 275.808 565.254 273.392 566.278 271.312C567.334 269.232 568.758 267.632 570.55 266.512C572.342 265.392 574.342 264.832 576.55 264.832C578.438 264.832 580.086 265.216 581.494 265.984C582.934 266.752 584.038 267.76 584.806 269.008V265.216H593.014V292H584.806V288.208C584.006 289.456 582.886 290.464 581.446 291.232C580.038 292 578.39 292.384 576.502 292.384C574.326 292.384 572.342 291.824 570.55 290.704C568.758 289.552 567.334 287.936 566.278 285.856C565.254 283.744 564.742 281.312 564.742 278.56ZM584.806 278.608C584.806 276.56 584.23 274.944 583.078 273.76C581.958 272.576 580.582 271.984 578.95 271.984C577.318 271.984 575.926 272.576 574.774 273.76C573.654 274.912 573.094 276.512 573.094 278.56C573.094 280.608 573.654 282.24 574.774 283.456C575.926 284.64 577.318 285.232 578.95 285.232C580.582 285.232 581.958 284.64 583.078 283.456C584.23 282.272 584.806 280.656 584.806 278.608ZM615.273 264.928C618.409 264.928 620.905 265.952 622.761 268C624.649 270.016 625.593 272.8 625.593 276.352V292H617.433V277.456C617.433 275.664 616.969 274.272 616.041 273.28C615.113 272.288 613.865 271.792 612.297 271.792C610.729 271.792 609.481 272.288 608.553 273.28C607.625 274.272 607.161 275.664 607.161 277.456V292H598.953V265.216H607.161V268.768C607.993 267.584 609.113 266.656 610.521 265.984C611.929 265.28 613.513 264.928 615.273 264.928ZM654.908 272.032H650.492V292H642.284V272.032H639.308V265.216H642.284V264.448C642.284 261.152 643.228 258.656 645.116 256.96C647.004 255.232 649.772 254.368 653.42 254.368C654.028 254.368 654.476 254.384 654.764 254.416V261.376C653.196 261.28 652.092 261.504 651.452 262.048C650.812 262.592 650.492 263.568 650.492 264.976V265.216H654.908V272.032ZM670.957 292.384C668.333 292.384 665.965 291.824 663.853 290.704C661.773 289.584 660.125 287.984 658.909 285.904C657.725 283.824 657.133 281.392 657.133 278.608C657.133 275.856 657.741 273.44 658.957 271.36C660.173 269.248 661.837 267.632 663.949 266.512C666.061 265.392 668.429 264.832 671.053 264.832C673.677 264.832 676.045 265.392 678.157 266.512C680.269 267.632 681.933 269.248 683.149 271.36C684.365 273.44 684.973 275.856 684.973 278.608C684.973 281.36 684.349 283.792 683.101 285.904C681.885 287.984 680.205 289.584 678.061 290.704C675.949 291.824 673.581 292.384 670.957 292.384ZM670.957 285.28C672.525 285.28 673.853 284.704 674.941 283.552C676.061 282.4 676.621 280.752 676.621 278.608C676.621 276.464 676.077 274.816 674.989 273.664C673.933 272.512 672.621 271.936 671.053 271.936C669.453 271.936 668.125 272.512 667.069 273.664C666.013 274.784 665.485 276.432 665.485 278.608C665.485 280.752 665.997 282.4 667.021 283.552C668.077 284.704 669.389 285.28 670.957 285.28ZM687.696 278.608C687.696 275.824 688.256 273.392 689.376 271.312C690.528 269.232 692.112 267.632 694.128 266.512C696.176 265.392 698.512 264.832 701.136 264.832C704.496 264.832 707.296 265.712 709.536 267.472C711.808 269.232 713.296 271.712 714 274.912H705.264C704.528 272.864 703.104 271.84 700.992 271.84C699.488 271.84 698.288 272.432 697.392 273.616C696.496 274.768 696.048 276.432 696.048 278.608C696.048 280.784 696.496 282.464 697.392 283.648C698.288 284.8 699.488 285.376 700.992 285.376C703.104 285.376 704.528 284.352 705.264 282.304H714C713.296 285.44 711.808 287.904 709.536 289.696C707.264 291.488 704.464 292.384 701.136 292.384C698.512 292.384 696.176 291.824 694.128 290.704C692.112 289.584 690.528 287.984 689.376 285.904C688.256 283.824 687.696 281.392 687.696 278.608ZM744.838 265.216V292H736.63V288.352C735.798 289.536 734.662 290.496 733.222 291.232C731.814 291.936 730.246 292.288 728.518 292.288C726.47 292.288 724.662 291.84 723.094 290.944C721.526 290.016 720.31 288.688 719.446 286.96C718.582 285.232 718.15 283.2 718.15 280.864V265.216H726.31V279.76C726.31 281.552 726.774 282.944 727.702 283.936C728.63 284.928 729.878 285.424 731.446 285.424C733.046 285.424 734.31 284.928 735.238 283.936C736.166 282.944 736.63 281.552 736.63 279.76V265.216H744.838ZM761.63 292.384C759.294 292.384 757.214 291.984 755.39 291.184C753.566 290.384 752.126 289.296 751.07 287.92C750.014 286.512 749.422 284.944 749.294 283.216H757.406C757.502 284.144 757.934 284.896 758.702 285.472C759.47 286.048 760.414 286.336 761.534 286.336C762.558 286.336 763.342 286.144 763.886 285.76C764.462 285.344 764.75 284.816 764.75 284.176C764.75 283.408 764.35 282.848 763.55 282.496C762.75 282.112 761.454 281.696 759.662 281.248C757.742 280.8 756.142 280.336 754.862 279.856C753.582 279.344 752.478 278.56 751.55 277.504C750.622 276.416 750.158 274.96 750.158 273.136C750.158 271.6 750.574 270.208 751.406 268.96C752.27 267.68 753.518 266.672 755.15 265.936C756.814 265.2 758.782 264.832 761.054 264.832C764.414 264.832 767.054 265.664 768.974 267.328C770.926 268.992 772.046 271.2 772.334 273.952H764.75C764.622 273.024 764.206 272.288 763.502 271.744C762.83 271.2 761.934 270.928 760.814 270.928C759.854 270.928 759.118 271.12 758.606 271.504C758.094 271.856 757.838 272.352 757.838 272.992C757.838 273.76 758.238 274.336 759.038 274.72C759.87 275.104 761.15 275.488 762.878 275.872C764.862 276.384 766.478 276.896 767.726 277.408C768.974 277.888 770.062 278.688 770.99 279.808C771.95 280.896 772.446 282.368 772.478 284.224C772.478 285.792 772.03 287.2 771.134 288.448C770.27 289.664 769.006 290.624 767.342 291.328C765.71 292.032 763.806 292.384 761.63 292.384ZM799.863 292.384C797.239 292.384 794.871 291.824 792.759 290.704C790.679 289.584 789.031 287.984 787.815 285.904C786.631 283.824 786.039 281.392 786.039 278.608C786.039 275.856 786.647 273.44 787.863 271.36C789.079 269.248 790.743 267.632 792.855 266.512C794.967 265.392 797.335 264.832 799.959 264.832C802.583 264.832 804.951 265.392 807.063 266.512C809.175 267.632 810.839 269.248 812.055 271.36C813.271 273.44 813.879 275.856 813.879 278.608C813.879 281.36 813.255 283.792 812.007 285.904C810.791 287.984 809.111 289.584 806.967 290.704C804.855 291.824 802.487 292.384 799.863 292.384ZM799.863 285.28C801.431 285.28 802.759 284.704 803.847 283.552C804.967 282.4 805.527 280.752 805.527 278.608C805.527 276.464 804.983 274.816 803.895 273.664C802.839 272.512 801.527 271.936 799.959 271.936C798.359 271.936 797.031 272.512 795.975 273.664C794.919 274.784 794.391 276.432 794.391 278.608C794.391 280.752 794.903 282.4 795.927 283.552C796.983 284.704 798.295 285.28 799.863 285.28ZM834.554 264.928C837.69 264.928 840.186 265.952 842.042 268C843.93 270.016 844.874 272.8 844.874 276.352V292H836.714V277.456C836.714 275.664 836.25 274.272 835.322 273.28C834.394 272.288 833.146 271.792 831.578 271.792C830.01 271.792 828.762 272.288 827.834 273.28C826.906 274.272 826.442 275.664 826.442 277.456V292H818.234V265.216H826.442V268.768C827.274 267.584 828.394 266.656 829.802 265.984C831.21 265.28 832.794 264.928 834.554 264.928ZM899.197 265.216L891.949 292H882.877L878.653 274.624L874.285 292H865.261L857.965 265.216H866.173L869.965 284.368L874.477 265.216H883.165L887.725 284.272L891.469 265.216H899.197ZM918.792 264.928C921.864 264.928 924.328 265.952 926.184 268C928.04 270.016 928.968 272.8 928.968 276.352V292H920.808V277.456C920.808 275.664 920.344 274.272 919.416 273.28C918.488 272.288 917.24 271.792 915.672 271.792C914.104 271.792 912.856 272.288 911.928 273.28C911 274.272 910.536 275.664 910.536 277.456V292H902.328V256.48H910.536V268.816C911.368 267.632 912.504 266.688 913.944 265.984C915.384 265.28 917 264.928 918.792 264.928ZM933.039 278.56C933.039 275.808 933.551 273.392 934.575 271.312C935.631 269.232 937.055 267.632 938.847 266.512C940.639 265.392 942.639 264.832 944.847 264.832C946.735 264.832 948.383 265.216 949.791 265.984C951.231 266.752 952.335 267.76 953.103 269.008V265.216H961.311V292H953.103V288.208C952.303 289.456 951.183 290.464 949.743 291.232C948.335 292 946.687 292.384 944.799 292.384C942.623 292.384 940.639 291.824 938.847 290.704C937.055 289.552 935.631 287.936 934.575 285.856C933.551 283.744 933.039 281.312 933.039 278.56ZM953.103 278.608C953.103 276.56 952.527 274.944 951.375 273.76C950.255 272.576 948.879 271.984 947.247 271.984C945.615 271.984 944.223 272.576 943.071 273.76C941.951 274.912 941.391 276.512 941.391 278.56C941.391 280.608 941.951 282.24 943.071 283.456C944.223 284.64 945.615 285.232 947.247 285.232C948.879 285.232 950.255 284.64 951.375 283.456C952.527 282.272 953.103 280.656 953.103 278.608ZM982.177 285.04V292H978.001C975.025 292 972.705 291.28 971.041 289.84C969.377 288.368 968.545 285.984 968.545 282.688V272.032H965.281V265.216H968.545V258.688H976.753V265.216H982.129V272.032H976.753V282.784C976.753 283.584 976.945 284.16 977.329 284.512C977.713 284.864 978.353 285.04 979.249 285.04H982.177ZM1031.1 264.928C1034.43 264.928 1037.07 265.936 1039.02 267.952C1041 269.968 1041.99 272.768 1041.99 276.352V292H1033.83V277.456C1033.83 275.728 1033.37 274.4 1032.44 273.472C1031.55 272.512 1030.3 272.032 1028.7 272.032C1027.1 272.032 1025.83 272.512 1024.91 273.472C1024.01 274.4 1023.56 275.728 1023.56 277.456V292H1015.4V277.456C1015.4 275.728 1014.94 274.4 1014.01 273.472C1013.11 272.512 1011.87 272.032 1010.27 272.032C1008.67 272.032 1007.4 272.512 1006.47 273.472C1005.58 274.4 1005.13 275.728 1005.13 277.456V292H996.921V265.216H1005.13V268.576C1005.96 267.456 1007.05 266.576 1008.39 265.936C1009.74 265.264 1011.26 264.928 1012.95 264.928C1014.97 264.928 1016.76 265.36 1018.33 266.224C1019.93 267.088 1021.18 268.32 1022.07 269.92C1023 268.448 1024.27 267.248 1025.87 266.32C1027.47 265.392 1029.21 264.928 1031.1 264.928ZM1046.1 278.56C1046.1 275.808 1046.61 273.392 1047.64 271.312C1048.69 269.232 1050.12 267.632 1051.91 266.512C1053.7 265.392 1055.7 264.832 1057.91 264.832C1059.8 264.832 1061.45 265.216 1062.85 265.984C1064.29 266.752 1065.4 267.76 1066.17 269.008V265.216H1074.37V292H1066.17V288.208C1065.37 289.456 1064.25 290.464 1062.81 291.232C1061.4 292 1059.75 292.384 1057.86 292.384C1055.69 292.384 1053.7 291.824 1051.91 290.704C1050.12 289.552 1048.69 287.936 1047.64 285.856C1046.61 283.744 1046.1 281.312 1046.1 278.56ZM1066.17 278.608C1066.17 276.56 1065.59 274.944 1064.44 273.76C1063.32 272.576 1061.94 271.984 1060.31 271.984C1058.68 271.984 1057.29 272.576 1056.13 273.76C1055.01 274.912 1054.45 276.512 1054.45 278.56C1054.45 280.608 1055.01 282.24 1056.13 283.456C1057.29 284.64 1058.68 285.232 1060.31 285.232C1061.94 285.232 1063.32 284.64 1064.44 283.456C1065.59 282.272 1066.17 280.656 1066.17 278.608ZM1095.24 285.04V292H1091.06C1088.09 292 1085.77 291.28 1084.1 289.84C1082.44 288.368 1081.61 285.984 1081.61 282.688V272.032H1078.34V265.216H1081.61V258.688H1089.82V265.216H1095.19V272.032H1089.82V282.784C1089.82 283.584 1090.01 284.16 1090.39 284.512C1090.78 284.864 1091.42 285.04 1092.31 285.04H1095.24ZM1114.74 285.04V292H1110.56C1107.59 292 1105.27 291.28 1103.6 289.84C1101.94 288.368 1101.11 285.984 1101.11 282.688V272.032H1097.84V265.216H1101.11V258.688H1109.32V265.216H1114.69V272.032H1109.32V282.784C1109.32 283.584 1109.51 284.16 1109.89 284.512C1110.28 284.864 1110.92 285.04 1111.81 285.04H1114.74ZM1144.56 278.176C1144.56 278.944 1144.51 279.744 1144.42 280.576H1125.84C1125.97 282.24 1126.5 283.52 1127.42 284.416C1128.38 285.28 1129.55 285.712 1130.93 285.712C1132.98 285.712 1134.4 284.848 1135.2 283.12H1143.94C1143.49 284.88 1142.67 286.464 1141.49 287.872C1140.34 289.28 1138.88 290.384 1137.12 291.184C1135.36 291.984 1133.39 292.384 1131.22 292.384C1128.59 292.384 1126.26 291.824 1124.21 290.704C1122.16 289.584 1120.56 287.984 1119.41 285.904C1118.26 283.824 1117.68 281.392 1117.68 278.608C1117.68 275.824 1118.24 273.392 1119.36 271.312C1120.51 269.232 1122.11 267.632 1124.16 266.512C1126.21 265.392 1128.56 264.832 1131.22 264.832C1133.81 264.832 1136.11 265.376 1138.13 266.464C1140.14 267.552 1141.71 269.104 1142.83 271.12C1143.98 273.136 1144.56 275.488 1144.56 278.176ZM1136.16 276.016C1136.16 274.608 1135.68 273.488 1134.72 272.656C1133.76 271.824 1132.56 271.408 1131.12 271.408C1129.74 271.408 1128.58 271.808 1127.62 272.608C1126.69 273.408 1126.11 274.544 1125.89 276.016H1136.16ZM1157.1 269.68C1158.06 268.208 1159.26 267.056 1160.7 266.224C1162.14 265.36 1163.74 264.928 1165.5 264.928V273.616H1163.24C1161.19 273.616 1159.66 274.064 1158.63 274.96C1157.61 275.824 1157.1 277.36 1157.1 279.568V292H1148.89V265.216H1157.1V269.68ZM1180.32 292.384C1177.98 292.384 1175.9 291.984 1174.08 291.184C1172.25 290.384 1170.81 289.296 1169.76 287.92C1168.7 286.512 1168.11 284.944 1167.98 283.216H1176.09C1176.19 284.144 1176.62 284.896 1177.39 285.472C1178.16 286.048 1179.1 286.336 1180.22 286.336C1181.25 286.336 1182.03 286.144 1182.57 285.76C1183.15 285.344 1183.44 284.816 1183.44 284.176C1183.44 283.408 1183.04 282.848 1182.24 282.496C1181.44 282.112 1180.14 281.696 1178.35 281.248C1176.43 280.8 1174.83 280.336 1173.55 279.856C1172.27 279.344 1171.17 278.56 1170.24 277.504C1169.31 276.416 1168.85 274.96 1168.85 273.136C1168.85 271.6 1169.26 270.208 1170.09 268.96C1170.96 267.68 1172.21 266.672 1173.84 265.936C1175.5 265.2 1177.47 264.832 1179.74 264.832C1183.1 264.832 1185.74 265.664 1187.66 267.328C1189.61 268.992 1190.73 271.2 1191.02 273.952H1183.44C1183.31 273.024 1182.89 272.288 1182.19 271.744C1181.52 271.2 1180.62 270.928 1179.5 270.928C1178.54 270.928 1177.81 271.12 1177.29 271.504C1176.78 271.856 1176.53 272.352 1176.53 272.992C1176.53 273.76 1176.93 274.336 1177.73 274.72C1178.56 275.104 1179.84 275.488 1181.57 275.872C1183.55 276.384 1185.17 276.896 1186.41 277.408C1187.66 277.888 1188.75 278.688 1189.68 279.808C1190.64 280.896 1191.13 282.368 1191.17 284.224C1191.17 285.792 1190.72 287.2 1189.82 288.448C1188.96 289.664 1187.69 290.624 1186.03 291.328C1184.4 292.032 1182.49 292.384 1180.32 292.384ZM1240.53 264.928C1243.86 264.928 1246.5 265.936 1248.45 267.952C1250.44 269.968 1251.43 272.768 1251.43 276.352V292H1243.27V277.456C1243.27 275.728 1242.81 274.4 1241.88 273.472C1240.98 272.512 1239.73 272.032 1238.13 272.032C1236.53 272.032 1235.27 272.512 1234.34 273.472C1233.45 274.4 1233 275.728 1233 277.456V292H1224.84V277.456C1224.84 275.728 1224.37 274.4 1223.45 273.472C1222.55 272.512 1221.3 272.032 1219.7 272.032C1218.1 272.032 1216.84 272.512 1215.91 273.472C1215.01 274.4 1214.57 275.728 1214.57 277.456V292H1206.36V265.216H1214.57V268.576C1215.4 267.456 1216.49 266.576 1217.83 265.936C1219.17 265.264 1220.69 264.928 1222.39 264.928C1224.41 264.928 1226.2 265.36 1227.77 266.224C1229.37 267.088 1230.61 268.32 1231.51 269.92C1232.44 268.448 1233.7 267.248 1235.3 266.32C1236.9 265.392 1238.65 264.928 1240.53 264.928ZM1269.36 292.384C1266.74 292.384 1264.37 291.824 1262.26 290.704C1260.18 289.584 1258.53 287.984 1257.32 285.904C1256.13 283.824 1255.54 281.392 1255.54 278.608C1255.54 275.856 1256.15 273.44 1257.36 271.36C1258.58 269.248 1260.24 267.632 1262.36 266.512C1264.47 265.392 1266.84 264.832 1269.46 264.832C1272.08 264.832 1274.45 265.392 1276.56 266.512C1278.68 267.632 1280.34 269.248 1281.56 271.36C1282.77 273.44 1283.38 275.856 1283.38 278.608C1283.38 281.36 1282.76 283.792 1281.51 285.904C1280.29 287.984 1278.61 289.584 1276.47 290.704C1274.36 291.824 1271.99 292.384 1269.36 292.384ZM1269.36 285.28C1270.93 285.28 1272.26 284.704 1273.35 283.552C1274.47 282.4 1275.03 280.752 1275.03 278.608C1275.03 276.464 1274.48 274.816 1273.4 273.664C1272.34 272.512 1271.03 271.936 1269.46 271.936C1267.86 271.936 1266.53 272.512 1265.48 273.664C1264.42 274.784 1263.89 276.432 1263.89 278.608C1263.89 280.752 1264.4 282.4 1265.43 283.552C1266.48 284.704 1267.8 285.28 1269.36 285.28ZM1298.63 292.384C1296.29 292.384 1294.21 291.984 1292.39 291.184C1290.57 290.384 1289.13 289.296 1288.07 287.92C1287.01 286.512 1286.42 284.944 1286.29 283.216H1294.41C1294.5 284.144 1294.93 284.896 1295.7 285.472C1296.47 286.048 1297.41 286.336 1298.53 286.336C1299.56 286.336 1300.34 286.144 1300.89 285.76C1301.46 285.344 1301.75 284.816 1301.75 284.176C1301.75 283.408 1301.35 282.848 1300.55 282.496C1299.75 282.112 1298.45 281.696 1296.66 281.248C1294.74 280.8 1293.14 280.336 1291.86 279.856C1290.58 279.344 1289.48 278.56 1288.55 277.504C1287.62 276.416 1287.16 274.96 1287.16 273.136C1287.16 271.6 1287.57 270.208 1288.41 268.96C1289.27 267.68 1290.52 266.672 1292.15 265.936C1293.81 265.2 1295.78 264.832 1298.05 264.832C1301.41 264.832 1304.05 265.664 1305.97 267.328C1307.93 268.992 1309.05 271.2 1309.33 273.952H1301.75C1301.62 273.024 1301.21 272.288 1300.5 271.744C1299.83 271.2 1298.93 270.928 1297.81 270.928C1296.85 270.928 1296.12 271.12 1295.61 271.504C1295.09 271.856 1294.84 272.352 1294.84 272.992C1294.84 273.76 1295.24 274.336 1296.04 274.72C1296.87 275.104 1298.15 275.488 1299.88 275.872C1301.86 276.384 1303.48 276.896 1304.73 277.408C1305.97 277.888 1307.06 278.688 1307.99 279.808C1308.95 280.896 1309.45 282.368 1309.48 284.224C1309.48 285.792 1309.03 287.2 1308.13 288.448C1307.27 289.664 1306.01 290.624 1304.34 291.328C1302.71 292.032 1300.81 292.384 1298.63 292.384ZM1329.43 285.04V292H1325.25C1322.28 292 1319.96 291.28 1318.29 289.84C1316.63 288.368 1315.8 285.984 1315.8 282.688V272.032H1312.53V265.216H1315.8V258.688H1324V265.216H1329.38V272.032H1324V282.784C1324 283.584 1324.2 284.16 1324.58 284.512C1324.96 284.864 1325.6 285.04 1326.5 285.04H1329.43ZM1337.84 292.384C1336.4 292.384 1335.22 291.968 1334.29 291.136C1333.39 290.272 1332.94 289.216 1332.94 287.968C1332.94 286.688 1333.39 285.616 1334.29 284.752C1335.22 283.888 1336.4 283.456 1337.84 283.456C1339.25 283.456 1340.4 283.888 1341.3 284.752C1342.22 285.616 1342.69 286.688 1342.69 287.968C1342.69 289.216 1342.22 290.272 1341.3 291.136C1340.4 291.968 1339.25 292.384 1337.84 292.384Z" fill="black"/>
<path d="M731.455 344.908V363.448C731.455 365.512 730.819 367.168 729.547 368.416C728.275 369.64 726.595 370.252 724.507 370.252C722.395 370.252 720.703 369.628 719.431 368.38C718.159 367.108 717.523 365.38 717.523 363.196H720.799C720.823 364.42 721.135 365.416 721.735 366.184C722.359 366.952 723.283 367.336 724.507 367.336C725.731 367.336 726.643 366.976 727.243 366.256C727.843 365.512 728.143 364.576 728.143 363.448V344.908H731.455ZM746.513 370.324C744.665 370.324 742.985 369.904 741.473 369.064C739.985 368.224 738.809 367.036 737.945 365.5C737.105 363.94 736.685 362.14 736.685 360.1C736.685 358.084 737.117 356.308 737.981 354.772C738.869 353.212 740.069 352.024 741.581 351.208C743.093 350.368 744.785 349.948 746.657 349.948C748.529 349.948 750.221 350.368 751.733 351.208C753.245 352.024 754.433 353.2 755.297 354.736C756.185 356.272 756.629 358.06 756.629 360.1C756.629 362.14 756.173 363.94 755.261 365.5C754.373 367.036 753.161 368.224 751.625 369.064C750.089 369.904 748.385 370.324 746.513 370.324ZM746.513 367.444C747.689 367.444 748.793 367.168 749.825 366.616C750.857 366.064 751.685 365.236 752.309 364.132C752.957 363.028 753.281 361.684 753.281 360.1C753.281 358.516 752.969 357.172 752.345 356.068C751.721 354.964 750.905 354.148 749.897 353.62C748.889 353.068 747.797 352.792 746.621 352.792C745.421 352.792 744.317 353.068 743.309 353.62C742.325 354.148 741.533 354.964 740.933 356.068C740.333 357.172 740.033 358.516 740.033 360.1C740.033 361.708 740.321 363.064 740.897 364.168C741.497 365.272 742.289 366.1 743.273 366.652C744.257 367.18 745.337 367.444 746.513 367.444ZM770.548 349.912C772.948 349.912 774.892 350.644 776.38 352.108C777.868 353.548 778.612 355.636 778.612 358.372V370H775.372V358.84C775.372 356.872 774.88 355.372 773.896 354.34C772.912 353.284 771.568 352.756 769.864 352.756C768.136 352.756 766.756 353.296 765.724 354.376C764.716 355.456 764.212 357.028 764.212 359.092V370H760.936V350.272H764.212V353.08C764.86 352.072 765.736 351.292 766.84 350.74C767.968 350.188 769.204 349.912 770.548 349.912ZM782.739 360.064C782.739 358.048 783.147 356.284 783.963 354.772C784.779 353.236 785.895 352.048 787.311 351.208C788.751 350.368 790.347 349.948 792.099 349.948C793.827 349.948 795.327 350.32 796.599 351.064C797.871 351.808 798.819 352.744 799.443 353.872V350.272H802.755V370H799.443V366.328C798.795 367.48 797.823 368.44 796.527 369.208C795.255 369.952 793.767 370.324 792.063 370.324C790.311 370.324 788.727 369.892 787.311 369.028C785.895 368.164 784.779 366.952 783.963 365.392C783.147 363.832 782.739 362.056 782.739 360.064ZM799.443 360.1C799.443 358.612 799.143 357.316 798.543 356.212C797.943 355.108 797.127 354.268 796.095 353.692C795.087 353.092 793.971 352.792 792.747 352.792C791.523 352.792 790.407 353.08 789.399 353.656C788.391 354.232 787.587 355.072 786.987 356.176C786.387 357.28 786.087 358.576 786.087 360.064C786.087 361.576 786.387 362.896 786.987 364.024C787.587 365.128 788.391 365.98 789.399 366.58C790.407 367.156 791.523 367.444 792.747 367.444C793.971 367.444 795.087 367.156 796.095 366.58C797.127 365.98 797.943 365.128 798.543 364.024C799.143 362.896 799.443 361.588 799.443 360.1ZM812.288 352.972V364.6C812.288 365.56 812.492 366.244 812.9 366.652C813.308 367.036 814.016 367.228 815.024 367.228H817.436V370H814.484C812.66 370 811.292 369.58 810.38 368.74C809.468 367.9 809.012 366.52 809.012 364.6V352.972H806.456V350.272H809.012V345.304H812.288V350.272H817.436V352.972H812.288ZM831.197 349.912C832.685 349.912 834.029 350.236 835.229 350.884C836.429 351.508 837.365 352.456 838.037 353.728C838.733 355 839.081 356.548 839.081 358.372V370H835.841V358.84C835.841 356.872 835.349 355.372 834.365 354.34C833.381 353.284 832.037 352.756 830.333 352.756C828.605 352.756 827.225 353.296 826.193 354.376C825.185 355.456 824.681 357.028 824.681 359.092V370H821.405V343.36H824.681V353.08C825.329 352.072 826.217 351.292 827.345 350.74C828.497 350.188 829.781 349.912 831.197 349.912ZM843.208 360.064C843.208 358.048 843.616 356.284 844.432 354.772C845.248 353.236 846.364 352.048 847.78 351.208C849.22 350.368 850.816 349.948 852.568 349.948C854.296 349.948 855.796 350.32 857.068 351.064C858.34 351.808 859.288 352.744 859.912 353.872V350.272H863.224V370H859.912V366.328C859.264 367.48 858.292 368.44 856.996 369.208C855.724 369.952 854.236 370.324 852.532 370.324C850.78 370.324 849.196 369.892 847.78 369.028C846.364 368.164 845.248 366.952 844.432 365.392C843.616 363.832 843.208 362.056 843.208 360.064ZM859.912 360.1C859.912 358.612 859.612 357.316 859.012 356.212C858.412 355.108 857.596 354.268 856.564 353.692C855.556 353.092 854.44 352.792 853.216 352.792C851.992 352.792 850.876 353.08 849.868 353.656C848.86 354.232 848.056 355.072 847.456 356.176C846.856 357.28 846.556 358.576 846.556 360.064C846.556 361.576 846.856 362.896 847.456 364.024C848.056 365.128 848.86 365.98 849.868 366.58C850.876 367.156 851.992 367.444 853.216 367.444C854.44 367.444 855.556 367.156 856.564 366.58C857.596 365.98 858.412 365.128 859.012 364.024C859.612 362.896 859.912 361.588 859.912 360.1ZM878.372 349.912C880.772 349.912 882.716 350.644 884.204 352.108C885.692 353.548 886.436 355.636 886.436 358.372V370H883.196V358.84C883.196 356.872 882.704 355.372 881.72 354.34C880.736 353.284 879.392 352.756 877.688 352.756C875.96 352.756 874.58 353.296 873.548 354.376C872.54 355.456 872.036 357.028 872.036 359.092V370H868.76V350.272H872.036V353.08C872.684 352.072 873.56 351.292 874.664 350.74C875.792 350.188 877.028 349.912 878.372 349.912ZM926.837 345.088V370H923.561V351.424L915.281 370H912.977L904.661 351.388V370H901.385V345.088H904.913L914.129 365.68L923.345 345.088H926.837ZM934.085 347.068C933.461 347.068 932.933 346.852 932.501 346.42C932.069 345.988 931.853 345.46 931.853 344.836C931.853 344.212 932.069 343.684 932.501 343.252C932.933 342.82 933.461 342.604 934.085 342.604C934.685 342.604 935.189 342.82 935.597 343.252C936.029 343.684 936.245 344.212 936.245 344.836C936.245 345.46 936.029 345.988 935.597 346.42C935.189 346.852 934.685 347.068 934.085 347.068ZM935.669 350.272V370H932.393V350.272H935.669ZM944.528 343.36V370H941.252V343.36H944.528ZM953.388 343.36V370H950.112V343.36H953.388ZM976.971 359.38C976.971 360.004 976.935 360.664 976.863 361.36H961.095C961.215 363.304 961.875 364.828 963.075 365.932C964.299 367.012 965.775 367.552 967.503 367.552C968.919 367.552 970.095 367.228 971.031 366.58C971.991 365.908 972.663 365.02 973.047 363.916H976.575C976.047 365.812 974.991 367.36 973.407 368.56C971.823 369.736 969.855 370.324 967.503 370.324C965.631 370.324 963.951 369.904 962.463 369.064C960.999 368.224 959.847 367.036 959.007 365.5C958.167 363.94 957.747 362.14 957.747 360.1C957.747 358.06 958.155 356.272 958.971 354.736C959.787 353.2 960.927 352.024 962.391 351.208C963.879 350.368 965.583 349.948 967.503 349.948C969.375 349.948 971.031 350.356 972.471 351.172C973.911 351.988 975.015 353.116 975.783 354.556C976.575 355.972 976.971 357.58 976.971 359.38ZM973.587 358.696C973.587 357.448 973.311 356.38 972.759 355.492C972.207 354.58 971.451 353.896 970.491 353.44C969.555 352.96 968.511 352.72 967.359 352.72C965.703 352.72 964.287 353.248 963.111 354.304C961.959 355.36 961.299 356.824 961.131 358.696H973.587ZM984.571 353.476C985.147 352.348 985.963 351.472 987.019 350.848C988.099 350.224 989.407 349.912 990.943 349.912V353.296H990.079C986.407 353.296 984.571 355.288 984.571 359.272V370H981.295V350.272H984.571V353.476Z" fill="black"/>
</svg>
