<svg xmlns="http://www.w3.org/2000/svg" version="1.1" viewBox="29.07 86.51 158.08 43.2">  <defs>    <style>      .cls-1 {        fill: #f0402d;      }    </style>  </defs>  <!-- Generator: Adobe Illustrator 28.7.4, SVG Export Plug-In . SVG Version: 1.2.0 Build 166)  -->  <g>    <g id="Layer_1">      <g>        <g>          <g>            <polygon class="cls-1" points="64.95 102.29 64.95 101.82 57.6 101.82 54.3 114.48 50.64 101.82 48.43 101.82 48.43 112.23 50.39 119.02 53.83 119.02 57.96 103.2 58.07 103.2 58.07 118.56 56.56 118.56 56.56 119.02 64.95 119.02 64.95 118.56 63.44 118.56 63.44 102.29 64.95 102.29"></polygon>            <path class="cls-1" d="M40.27,119.38c-.74,0,0,1.77.93,1.77,1.22,0,1.52-.9,1.52-4.82v-13.99h-1.77v-.49h6.83v10.62c0,5.66-1.74,9.15-6.56,9.15-3.29,0-4.35-1.63-4.35-3.02,0-1.63,1.14-2.45,2.5-2.45,1.44,0,2.1.93,2.1,2.1,0,.69-.45,1.14-1.2,1.14ZM45.17,94.96c-1.52,0-2.75,1.23-2.75,2.75s1.23,2.75,2.75,2.75,2.75-1.23,2.75-2.75-1.23-2.75-2.75-2.75Z"></path>          </g>          <path class="cls-1" d="M50.67,129.71c-11.91,0-21.6-9.69-21.6-21.6s9.69-21.6,21.6-21.6,21.6,9.69,21.6,21.6-9.69,21.6-21.6,21.6ZM50.67,87.65c-11.28,0-20.47,9.18-20.47,20.47s9.18,20.47,20.47,20.47,20.47-9.18,20.47-20.47-9.18-20.47-20.47-20.47Z"></path>        </g>        <g>          <g>            <path class="cls-1" d="M86.18,107.43v.36h-1.04v8.21c0,3.5-1.63,4.9-4.64,4.9-2.03,0-3.34-.82-3.34-2.24,0-1.08.66-1.75,1.69-1.75,1.1,0,1.58.63,1.58,1.46,0,.32-.08.66-.21,1.03h-.74c-.11.19-.17.34-.17.49,0,.4.38.67.93.67,1.01,0,1.2-.53,1.2-3.19v-9.57h-1.42v-.36h6.17Z"></path>            <path class="cls-1" d="M93.66,107.23c4.08,0,6.16,2.51,6.16,6.82s-1.99,6.88-6.38,6.88-6.27-2.45-6.27-6.63,2.26-7.07,6.5-7.07ZM95.91,113.46c0-3.89-.11-5.83-2.39-5.83s-2.45,2.01-2.45,5.91v1.37c0,3.57.23,5.62,2.45,5.62s2.39-1.84,2.39-5.66v-1.41Z"></path>            <path class="cls-1" d="M111.81,120.73h-2.66l-6.52-12.29v11.93h1.04v.36h-2.6v-.36h1.04v-12.58h-1.04v-.36h5.24l4.98,9.54v-9.18h-1.05v-.36h2.6v.36h-1.04v12.94Z"></path>            <path class="cls-1" d="M132.23,107.43v.36h-1.04v12.58h1.04v.36h-5.79v-.36h1.04v-11.87h-.08l-2.85,12.23h-2.37l-3.34-12.29h-.08v11.93h1.04v.36h-2.58v-.36h1.04v-12.58h-1.04v-.36h5.13l2.53,9.78,2.28-9.78h5.07Z"></path>            <path class="cls-1" d="M138.98,107.43v.36h-1.04v12.58h1.04v.36h-5.79v-.36h1.04v-12.58h-1.04v-.36h5.79Z"></path>            <path class="cls-1" d="M146.69,107.43v.42h-2.01v12.46h.68c2.36,0,3.4-1.71,4.52-4.03h.4l-.36,4.45h-10.07v-.42h1.12v-12.46h-1.12v-.42h6.84Z"></path>            <path class="cls-1" d="M158.02,107.43v.42h-2.01v12.46h.68c2.36,0,3.4-1.71,4.52-4.03h.4l-.36,4.45h-10.07v-.42h1.12v-12.46h-1.12v-.42h6.84Z"></path>            <path class="cls-1" d="M172.38,107.43l.19,3.76h-.34c-1.04-2.49-1.94-3.34-4.24-3.34h-.66v5.87h.65c1.23,0,2.03-1.04,2.36-2.49h.29v5.62h-.32c-.46-1.9-1.18-2.64-2.51-2.64h-.46v6.1h.72c2.41,0,4.08-1.65,4.65-3.72h.38l-.15,4.14h-10.43v-.42h1.12v-12.46h-1.12v-.42h9.88Z"></path>            <path class="cls-1" d="M179.18,114.01v6.36h1.23v.36h-6.17v-.36h1.23v-12.58h-1.23v-.36h5.74c3.97,0,5.87.42,5.87,3.19,0,2.32-1.22,3-3.23,3.17v.06c2.05.27,2.75,1.06,2.75,3.27v1.01c0,1.23.06,1.67.59,1.67.34,0,.63-.15.87-1.63l.32.04c-.29,2.17-.82,2.72-2.58,2.72-2.39,0-3.1-.8-3.1-3.48v-1.39c0-1.35-.27-2.05-1.29-2.05h-1.01ZM179.18,113.65h.61c1.41,0,2.13-.78,2.13-2.83v-.55c0-2.13-.78-2.47-2.11-2.47h-.63v5.85Z"></path>          </g>          <g>            <path class="cls-1" d="M98.56,95.42v.22h-1.06v6.56h.36c1.24,0,1.79-.9,2.38-2.12h.21l-.19,2.34h-5.3v-.22h.59v-6.56h-.59v-.22h3.6Z"></path>            <path class="cls-1" d="M104.7,100.06h-1.98l-.77,2.16h.75v.19h-1.53v-.19h.47l2.55-6.87h.82l2.52,6.87h.46v.19h-3.27v-.19h.71l-.73-2.16ZM102.81,99.84h1.81l-.87-2.62-.94,2.62Z"></path>            <path class="cls-1" d="M111.68,97.51l-.6-1.91h-.57v-.19h3.1v.19h-.59l1.49,4.73,1.2-4.73h-1.01v-.19h2v.19h-.66l-1.84,6.91h-.89l-1.48-4.52-1.3,4.52h-.87l-2.52-6.91h-.47v-.19h3.25v.19h-.7l1.63,4.79.83-2.88Z"></path>            <path class="cls-1" d="M122.39,95.31c2.15,0,3.24,1.32,3.24,3.59s-1.05,3.62-3.36,3.62-3.3-1.29-3.3-3.49,1.19-3.72,3.42-3.72ZM123.57,98.58c0-2.05-.06-3.07-1.26-3.07s-1.29,1.06-1.29,3.11v.72c0,1.88.12,2.96,1.29,2.96s1.26-.97,1.26-2.98v-.74Z"></path>            <path class="cls-1" d="M131.45,95.42l.1,2.08h-.18c-.49-1.44-1.02-1.86-2.3-1.86h-.28v3.25h.45c.65,0,1.08-.51,1.24-1.31h.15v2.96h-.17c-.22-1.01-.57-1.39-1.22-1.39h-.45v3.05h1.24v.22h-3.78v-.22h.59v-6.56h-.59v-.22h5.2Z"></path>            <path class="cls-1" d="M137.37,95.42l.1,2.08h-.18c-.49-1.44-1.02-1.86-2.3-1.86h-.28v3.25h.45c.65,0,1.08-.51,1.24-1.31h.15v2.96h-.17c-.22-1.01-.57-1.39-1.22-1.39h-.45v3.05h1.24v.22h-3.78v-.22h.59v-6.56h-.59v-.22h5.2Z"></path>            <path class="cls-1" d="M141.18,95.42v.19h-.55v6.62h.55v.19h-3.05v-.19h.55v-6.62h-.55v-.19h3.05Z"></path>            <path class="cls-1" d="M143.88,98.49v.79c0,1.84.53,3.03,1.62,3.03.81,0,1.46-.84,2.02-2.14h.18l-.07,2.23h-.11c-.07-.13-.11-.2-.27-.2-.34,0-.89.31-1.99.31-2.12,0-3.42-1.12-3.42-3.51s1.4-3.7,3.45-3.7c1.04,0,1.52.31,1.87.31.16,0,.2-.07.27-.2h.11l.08,2.17h-.18c-.55-1.23-1.15-2.08-2.01-2.08-1.01,0-1.55.92-1.55,2.99Z"></path>            <path class="cls-1" d="M153.74,95.42l.1,1.98h-.18c-.55-1.31-1.02-1.76-2.23-1.76h-.35v3.09h.34c.65,0,1.07-.55,1.24-1.31h.15v2.96h-.17c-.24-1-.62-1.39-1.32-1.39h-.24v3.21h.38c1.27,0,2.15-.87,2.45-1.96h.2l-.08,2.18h-5.49v-.22h.59v-6.56h-.59v-.22h5.2Z"></path>            <path class="cls-1" d="M160.2,95.31c2.15,0,3.24,1.32,3.24,3.59s-1.05,3.62-3.36,3.62-3.3-1.29-3.3-3.49,1.19-3.72,3.42-3.72ZM161.38,98.58c0-2.05-.06-3.07-1.26-3.07s-1.29,1.06-1.29,3.11v.72c0,1.88.12,2.96,1.29,2.96s1.26-.97,1.26-2.98v-.74Z"></path>            <path class="cls-1" d="M169.26,95.42l.1,2.08h-.18c-.49-1.44-1.02-1.86-2.3-1.86h-.28v3.25h.45c.65,0,1.08-.51,1.24-1.31h.15v2.96h-.17c-.22-1.01-.57-1.39-1.22-1.39h-.45v3.05h1.24v.22h-3.78v-.22h.59v-6.56h-.59v-.22h5.2Z"></path>          </g>        </g>      </g>    </g>  </g></svg>