<svg width="22" height="20" viewBox="0 0 22 20" fill="none" xmlns="http://www.w3.org/2000/svg">
<path d="M11 15.1467C10.2897 15.1467 9.57945 14.8783 8.97359 14.3344L0 6.2959V17.5228C0 18.8345 0.923398 19.8988 2.0625 19.8988H19.9375C21.0766 19.8988 22 18.835 22 17.5228V6.2959L13.0281 14.3398C12.4223 14.8794 11.709 15.1467 11 15.1467ZM0.699961 4.91482L9.81793 13.0875C10.5136 13.7112 11.4881 13.7112 12.1838 13.0875L21.3018 4.91482C21.7035 4.51881 22 3.90995 22 3.26644C22 1.95416 21.0762 0.890381 19.9375 0.890381H2.0625C0.923398 0.890381 0 1.95416 0 3.26644C0 3.90995 0.258242 4.51881 0.699961 4.91482Z" fill="black"/>
</svg>
