<svg width="100" height="100" viewBox="0 0 100 100" fill="none" xmlns="http://www.w3.org/2000/svg">
<rect width="100" height="100" fill="#DF4F3A"/>
<path d="M29.8516 68.1247V69.0304H55.3309V68.1247C55.3309 64.7318 52.5776 61.9785 49.1844 61.9785H35.998C32.6048 61.9785 29.8516 64.7318 29.8516 68.1247Z" fill="white"/>
<path d="M62.6551 77.8928H60.9684V76.1758C60.9684 72.8975 58.311 70.2401 55.0328 70.2401H30.1519C26.8737 70.2401 24.2163 72.8975 24.2163 76.1758V77.8928H22.5296C22.1958 77.8928 21.9258 78.1628 21.9258 78.4965C21.9258 78.8303 22.1958 79.1003 22.5296 79.1003H62.6551C62.9889 79.1003 63.2589 78.8303 63.2589 78.4965C63.2589 78.1628 62.9889 77.8928 62.6551 77.8928Z" fill="white"/>
<path d="M75.906 59.9121L56.0057 43.3809L50.9219 48.4646L67.4532 68.3649C69.7113 71.0819 73.817 71.275 76.3166 68.7753C78.8163 66.2759 78.623 62.1701 75.906 59.9121Z" fill="white"/>
<path d="M34.375 40.459L47.9938 26.8402L59.4159 38.2623L45.7971 51.8811L34.375 40.459Z" fill="white"/>
<path d="M60.9663 38.0974C61.969 39.1003 63.5947 39.1003 64.5974 38.0974C65.6001 37.0947 65.6001 35.4691 64.5974 34.4665L51.7816 21.6504C50.7789 20.6478 49.1532 20.6478 48.1505 21.6504C47.1478 22.6534 47.1478 24.279 48.1505 25.2816L60.9663 38.0974Z" fill="white"/>
<path d="M42.0093 57.0546C43.012 58.0573 44.6377 58.0573 45.6404 57.0546C46.6431 56.0517 46.6431 54.4261 45.6404 53.4234L32.8246 40.6077C31.8218 39.6047 30.1962 39.6047 29.1935 40.6077C28.1907 41.6103 28.1907 43.2359 29.1935 44.2386L42.0093 57.0546Z" fill="white"/>
</svg>
