<svg width="22" height="22" viewBox="0 0 22 22" fill="none" xmlns="http://www.w3.org/2000/svg">
<path d="M0 11C0 8.82441 0.645139 6.69767 1.85383 4.88873C3.06253 3.07979 4.78049 1.66989 6.79048 0.83733C8.80047 0.00476623 11.0122 -0.213071 13.146 0.211367C15.2798 0.635804 17.2398 1.68345 18.7782 3.22183C20.3165 4.76021 21.3642 6.72022 21.7886 8.85401C22.2131 10.9878 21.9952 13.1995 21.1627 15.2095C20.3301 17.2195 18.9202 18.9375 17.1113 20.1462C15.3023 21.3549 13.1756 22 11 22C8.08262 22 5.28472 20.8411 3.22182 18.7782C1.15892 16.7153 0 13.9174 0 11ZM20.5333 11C20.5333 9.11449 19.9742 7.27132 18.9267 5.70357C17.8791 4.13582 16.3902 2.91391 14.6482 2.19235C12.9063 1.4708 10.9894 1.28201 9.14014 1.64985C7.29085 2.0177 5.59218 2.92566 4.25891 4.25892C2.92565 5.59218 2.01769 7.29086 1.64985 9.14014C1.282 10.9894 1.47079 12.9063 2.19235 14.6483C2.9139 16.3902 4.13581 17.8791 5.70356 18.9267C7.27131 19.9742 9.11448 20.5333 11 20.5333C13.5284 20.5333 15.9532 19.5289 17.7411 17.7411C19.5289 15.9532 20.5333 13.5284 20.5333 11Z" fill="#DF4F3A"/>
<path d="M8.16247 15.0994L12.2545 11.0001L8.16247 6.90075C8.02588 6.76335 7.94922 6.57749 7.94922 6.38375C7.94922 6.19001 8.02588 6.00415 8.16247 5.86675C8.29987 5.73017 8.48573 5.6535 8.67947 5.6535C8.8732 5.6535 9.05907 5.73017 9.19647 5.86675L13.8605 10.5307C13.9841 10.6557 14.0534 10.8243 14.0534 11.0001C14.0534 11.1758 13.9841 11.3445 13.8605 11.4694L9.19647 16.1334C9.05907 16.27 8.8732 16.3467 8.67947 16.3467C8.48573 16.3467 8.29987 16.27 8.16247 16.1334C8.02588 15.996 7.94922 15.8102 7.94922 15.6164C7.94922 15.4227 8.02588 15.2368 8.16247 15.0994Z" fill="#DF4F3A"/>
</svg>
