<svg width="100" height="100" viewBox="0 0 100 100" fill="none" xmlns="http://www.w3.org/2000/svg">
<rect width="100" height="100" fill="#DF4F3A"/>
<g clip-path="url(#clip0_53_207)">
<path d="M28.6382 62.3819C26.9885 62.6192 25.7816 61.6341 25.7066 60.0342C25.6995 59.8401 25.703 59.646 25.703 59.4518C25.703 49.5111 25.703 39.5739 25.703 29.6332V28.8494H74.272C74.2827 29.0615 74.3005 29.2665 74.3005 29.4714C74.3005 39.5452 74.3005 49.6225 74.3005 59.6963C74.3005 61.555 73.265 62.5293 71.4297 62.4179C71.3761 61.6557 71.3654 60.8863 71.2512 60.1349C71.169 59.6064 71.0119 59.0671 70.7655 58.5962C70.4656 58.0209 70.3978 57.4421 70.3978 56.8129C70.4085 51.8156 70.4049 46.8147 70.4049 41.8173C70.4049 40.8466 70.3228 40.7639 69.348 40.7639C68.1339 40.7639 66.9234 40.7603 65.7094 40.7639C64.9917 40.7639 64.8774 40.8862 64.8774 41.6196C64.8774 45.6498 64.8774 49.68 64.8774 53.7103C64.8774 53.9368 64.8774 54.1669 64.8774 54.3646C64.0062 54.4761 63.2099 54.5803 62.3601 54.6882C62.3601 54.5012 62.3601 54.2963 62.3601 54.0878C62.3601 51.0858 62.3601 48.0802 62.3601 45.0782C62.3601 44.3412 62.2137 44.1902 61.4888 44.1902C60.1998 44.1902 58.9107 44.1866 57.6217 44.1902C57.0111 44.1902 56.829 44.3735 56.829 44.9847C56.829 49.2271 56.829 53.4694 56.829 57.7153C56.829 58.3409 56.9826 58.4811 57.6253 58.4991C57.7574 58.4991 57.8931 58.4991 57.9395 58.4991C57.7503 59.797 57.561 61.0769 57.3646 62.4071H42.489C42.7175 59.8185 41.9141 57.6326 39.9002 55.9824C38.5326 54.8607 36.9365 54.3502 35.1762 54.4545C31.3733 54.681 28.1811 58.0281 28.6417 62.3783L28.6382 62.3819ZM43.2638 46.8506C43.5852 46.6996 43.8494 46.6457 44.0173 46.4839C44.5957 45.9446 45.1599 45.3874 45.6884 44.8014C46.0526 44.3951 46.0454 43.9133 45.7276 43.4675C45.4813 43.1224 45.2027 42.7988 44.9528 42.4573C44.6564 42.0474 44.7957 41.7167 45.292 41.6412C45.6919 41.5801 46.0954 41.5513 46.4918 41.4758C47.1452 41.3571 47.4594 40.9832 47.4702 40.3145C47.4809 39.6171 47.4844 38.9196 47.4702 38.2221C47.4559 37.5966 47.1167 37.2119 46.5061 37.1112C46.1276 37.0501 45.7419 37.0177 45.3599 36.9746C44.7921 36.9099 44.6564 36.5899 44.9992 36.1153C45.2242 35.8026 45.4705 35.5042 45.6884 35.1842C46.0776 34.6197 46.0561 34.1595 45.592 33.6634C45.117 33.1565 44.6279 32.6639 44.1244 32.1858C43.6423 31.7292 43.1603 31.7148 42.6104 32.1067C42.2819 32.3404 41.9677 32.6028 41.6392 32.8365C41.2464 33.1169 40.9536 32.9875 40.8822 32.5201C40.8143 32.0815 40.7679 31.6357 40.6858 31.2007C40.5822 30.6614 40.243 30.3342 39.6931 30.3163C38.9254 30.2911 38.1541 30.2875 37.3864 30.3163C36.808 30.3378 36.4795 30.701 36.3866 31.2618C36.3224 31.6429 36.2974 32.0312 36.2545 32.4159C36.1867 32.9947 35.8653 33.1457 35.4083 32.8077C35.069 32.5561 34.7405 32.2828 34.3906 32.0456C33.9193 31.7292 33.4337 31.7472 33.0194 32.1426C32.4874 32.646 31.9697 33.1673 31.4698 33.703C31.052 34.1488 31.0377 34.6665 31.4055 35.177C31.6447 35.5042 31.909 35.8133 32.1518 36.1369C32.4303 36.5108 32.3089 36.8452 31.8554 36.9314C31.4769 37.0034 31.0948 37.0357 30.7128 37.0896C29.9808 37.1903 29.6237 37.575 29.6058 38.3264C29.5916 38.9663 29.5916 39.6063 29.6058 40.2426C29.6237 41.0192 29.9915 41.4003 30.7663 41.4902C31.1305 41.5333 31.4947 41.5621 31.8554 41.6196C32.266 41.6843 32.4053 42.0187 32.166 42.3674C31.9232 42.7161 31.6554 43.0469 31.4126 43.3956C31.0306 43.9421 31.0556 44.4418 31.5055 44.9164C31.9839 45.4197 32.4731 45.9159 32.973 46.394C33.4372 46.8398 33.9086 46.8722 34.4335 46.5055C34.7477 46.2826 35.0369 46.0273 35.344 45.7936C35.8367 45.4125 36.1367 45.5384 36.2331 46.1675C36.2938 46.5486 36.3259 46.9369 36.3866 47.318C36.483 47.9076 36.8473 48.2528 37.4436 48.2743C38.1934 48.2995 38.9433 48.2923 39.6931 48.2743C40.2144 48.2599 40.5537 47.9651 40.6715 47.451C40.7286 47.2065 40.7108 46.9441 40.7858 46.7068C40.9036 46.3473 40.6536 45.7649 41.175 45.6786C41.4642 45.6318 41.8248 45.9374 42.1355 46.1208C42.5247 46.3473 42.8925 46.6061 43.2638 46.847V46.8506ZM54.3117 54.4832C54.3117 53.3615 54.3045 52.2362 54.3117 51.1145C54.3152 50.604 54.0867 50.3667 53.5797 50.3703C52.2335 50.3775 50.8873 50.3811 49.5412 50.3703C49.002 50.3667 48.7806 50.622 48.7806 51.1505C48.7877 53.3579 48.7842 55.5654 48.7806 57.7765C48.7806 58.2798 49.002 58.5171 49.5162 58.5135C50.8623 58.4991 52.2085 58.4991 53.5547 58.5135C54.1046 58.5207 54.3152 58.2762 54.3081 57.7405C54.2938 56.6548 54.3045 55.5726 54.3045 54.4868L54.3117 54.4832ZM61.096 31.4056C63.8455 31.4056 66.5914 31.4056 69.3408 31.4056C69.7836 31.4056 70.387 31.5386 70.3692 30.834C70.3513 30.1832 69.7693 30.3091 69.3444 30.3091C63.8669 30.3055 58.3894 30.3091 52.9119 30.3091C52.7584 30.3091 52.6048 30.3091 52.4513 30.3163C52.0942 30.3378 51.8086 30.532 51.8907 30.8843C51.9371 31.0928 52.2371 31.2654 52.4549 31.3984C52.5691 31.4667 52.7548 31.4128 52.9084 31.4128C55.6364 31.4128 58.368 31.4128 61.096 31.4128V31.4056ZM57.386 34.7779C58.9822 34.7779 60.5783 34.7779 62.1744 34.7779C62.56 34.7779 62.9028 34.7024 62.9171 34.2494C62.9349 33.7533 62.5672 33.6706 62.1637 33.6706C58.9893 33.6706 55.8149 33.6706 52.6441 33.6706C52.2442 33.6706 51.8657 33.7389 51.8693 34.2314C51.8729 34.7204 52.2478 34.7815 52.6513 34.7815C54.2295 34.7743 55.8042 34.7815 57.3825 34.7815L57.386 34.7779Z" fill="white"/>
<path d="M50.0307 22.9999C58.1505 22.9999 66.2703 22.9999 74.3937 22.9999C75.772 22.9999 76.6575 23.6398 76.936 24.8083C77.2645 26.1888 76.2897 27.5514 74.8829 27.6701C74.7115 27.6844 74.5365 27.6808 74.3651 27.6808C58.1255 27.6808 41.8823 27.6808 25.6426 27.6808C24.2251 27.6808 23.311 27.0085 23.0503 25.7826C22.7718 24.4775 23.718 23.1545 25.0356 23.0215C25.3213 22.9927 25.6105 22.9999 25.8997 22.9999C33.9446 22.9999 41.9894 22.9999 50.0307 22.9999Z" fill="white"/>
<path d="M64.4131 76.9964C60.8353 76.9964 57.2574 76.9892 53.6795 77C53.0047 77 52.4369 76.813 52.1691 76.1659C52.0406 75.8531 51.9906 75.4325 52.0763 75.1089C53.1297 71.1937 55.5149 68.3931 59.1427 66.6422C59.432 66.502 59.6319 66.502 59.9033 66.7393C62.5635 69.051 66.3056 69.0546 68.9729 66.7429C69.2693 66.4876 69.4871 66.5164 69.7871 66.6602C73.3471 68.3931 75.693 71.1578 76.7892 74.9867C77.1178 76.1371 76.475 76.982 75.2645 76.9856C71.6474 76.9964 68.0303 76.9856 64.4131 76.9856V76.9964Z" fill="white"/>
<path d="M35.5441 76.9964C32.0055 76.9964 28.4633 76.9964 24.9248 76.9964C23.45 76.9964 22.8537 76.1982 23.2822 74.7817C24.3999 71.0787 26.6994 68.393 30.1594 66.6997C30.5344 66.5164 30.7736 66.5199 31.1128 66.8148C33.6623 69.033 37.4865 69.0186 40.0539 66.7896C40.3467 66.5343 40.5645 66.4912 40.9109 66.6602C44.4459 68.3859 46.7954 71.129 47.9059 74.9291C48.2594 76.1443 47.6131 76.9892 46.3384 76.9928C42.7426 77 39.1434 76.9928 35.5476 76.9928L35.5441 76.9964Z" fill="white"/>
<path d="M35.5724 67.3361C32.3302 67.3361 29.6843 64.6792 29.7057 61.4364C29.7271 58.2007 32.3409 55.5762 35.5545 55.5726C38.7932 55.569 41.4391 58.233 41.4177 61.4759C41.3962 64.7224 38.7932 67.3325 35.5724 67.3361Z" fill="white"/>
<path d="M64.4598 67.3361C61.214 67.3433 58.5717 64.69 58.586 61.4435C58.6003 58.2043 61.214 55.5762 64.4277 55.5726C67.6663 55.569 70.3122 58.2222 70.3015 61.4687C70.2908 64.708 67.6806 67.3289 64.4598 67.3361Z" fill="white"/>
<path d="M66.013 41.9H69.241V56.3096C69.1517 56.2557 69.066 56.1982 68.9767 56.1514C68.1055 55.6769 67.2414 55.1879 66.3558 54.7457C66.1059 54.6199 65.9595 54.5408 65.9595 54.2244C65.9702 50.2373 65.9666 46.2502 65.9702 42.2631C65.9702 42.1517 65.9952 42.0402 66.013 41.9036V41.9Z" fill="white"/>
<path d="M57.9787 57.3594V45.355H61.2066C61.2173 45.5563 61.2387 45.7433 61.2387 45.9266C61.2387 48.8531 61.2352 51.776 61.2459 54.7025C61.2459 55.0692 61.1352 55.2742 60.8281 55.4971C60.2247 55.9357 59.6569 56.4354 59.1249 56.9603C58.6857 57.3953 58.7178 57.4277 57.9751 57.3594H57.9787Z" fill="white"/>
<path d="M33.7655 45.6606C33.2656 45.1141 32.8014 44.6036 32.3087 44.0643C32.58 43.694 32.8479 43.241 33.2014 42.8671C33.8119 42.2272 33.0942 40.5446 32.198 40.5626C31.7266 40.5734 31.0589 40.5914 30.834 40.3109C30.5804 39.9982 30.7268 39.3618 30.7018 38.8621C30.6947 38.6715 30.7018 38.481 30.7018 38.294C31.5838 37.8878 32.7693 38.3695 33.2871 37.0968C33.8012 35.8349 32.6622 35.3567 32.2694 34.44C32.7622 34.0085 33.2799 33.5591 33.8619 33.0522C34.144 33.2607 34.5368 33.5627 34.9367 33.8504C35.858 34.5191 37.1506 33.951 37.2898 32.8221C37.3434 32.3799 37.3934 31.9377 37.4541 31.3912H39.5894C39.6715 31.9341 39.7393 32.4482 39.8322 32.9552C40.0071 33.9474 41.264 34.4831 42.0817 33.9007C42.4888 33.6131 42.8673 33.2895 43.3136 32.9372C43.7707 33.4872 44.2135 34.0157 44.7134 34.6161C44.5312 34.8642 44.217 35.2741 43.9207 35.6947C43.3029 36.5719 43.8528 37.8518 44.9133 38.0136C45.8965 38.1622 46.394 38.7291 46.4059 39.7141C46.4059 39.9047 46.4059 40.0952 46.4059 40.3361C45.8881 40.4152 45.3989 40.4943 44.9097 40.5698C43.8207 40.7388 43.2958 42.0366 43.9599 42.9283C44.2349 43.2986 44.5241 43.6617 44.8133 44.0356C44.2849 44.5209 43.7671 44.9955 43.2029 45.5168C42.9173 45.3011 42.5138 44.9739 42.0889 44.6791C41.239 44.0895 39.9857 44.6504 39.8286 45.6822C39.8179 45.7577 39.8072 45.8368 39.7929 45.9123C39.6644 46.7631 39.1656 47.1934 38.2968 47.203C38.0468 47.203 37.8004 47.203 37.4969 47.203C37.4255 46.7068 37.3577 46.2322 37.2934 45.7577C37.1363 44.6252 35.8365 44.0643 34.9296 44.7438C34.5618 45.0207 34.2047 45.3119 33.7655 45.657V45.6606ZM34.3868 39.2791C34.3761 41.598 36.2079 43.4747 38.4967 43.4927C40.8106 43.5107 42.7102 41.634 42.7173 39.3187C42.728 37.0213 40.8677 35.1267 38.5896 35.1123C36.2543 35.0979 34.394 36.9422 34.3833 39.2827L34.3868 39.2791Z" fill="white"/>
<path d="M49.9194 57.3522V51.546H53.1902V57.3522H49.9194Z" fill="white"/>
<path d="M41.5926 39.3222C41.5819 41.0263 40.225 42.3781 38.5325 42.371C36.8506 42.3638 35.4795 40.9832 35.4795 39.3007C35.4795 37.5929 36.8935 36.1944 38.586 36.2232C40.2893 36.2519 41.6033 37.6073 41.5926 39.3222Z" fill="white"/>
</g>
<defs>
<clipPath id="clip0_53_207">
<rect width="54" height="54" fill="white" transform="translate(23 23)"/>
</clipPath>
</defs>
</svg>
