<svg width="100" height="100" viewBox="0 0 100 100" fill="none" xmlns="http://www.w3.org/2000/svg">
<rect width="100" height="100" fill="#DF4F3A"/>
<g clip-path="url(#clip0_53_215)">
<path d="M25.0312 36.8109C25.227 36.8109 25.4022 36.8109 25.5809 36.8109C27.9926 36.8109 30.4009 36.8245 32.8126 36.8075C34.867 36.794 36.5469 35.4463 36.9626 33.4891C37.0382 33.1268 37.0451 32.7475 37.0451 32.3751C37.052 30.147 37.0451 27.9155 37.0485 25.6874C37.0485 25.044 37.0932 25 37.7528 25C44.9501 25 52.1475 25 59.3448 25C61.4954 25 63.007 26.4053 63.0139 28.5114C63.0414 34.2713 63.0208 40.0312 63.0276 45.791C63.0276 46.2244 62.8765 46.3971 62.4161 46.3904C61.0797 46.3667 59.7399 46.4107 58.4069 46.3734C57.3419 46.3463 56.4521 46.729 55.607 47.3148C55.3837 47.4705 55.0745 47.5789 54.8065 47.5789C52.0822 47.5857 49.3578 47.562 46.6369 47.5654C46.1835 47.5654 45.9979 47.4096 46.0357 46.966C46.0563 46.7087 46.022 46.4445 46.0426 46.1872C46.0804 45.747 45.864 45.6183 45.4551 45.6217C43.6893 45.6319 41.9235 45.6319 40.1576 45.6217C39.7488 45.6217 39.6079 45.7876 39.6079 46.1804C39.6148 51.6152 39.6148 57.05 39.6079 62.4848C39.6079 62.8877 39.7694 63.0333 40.1645 63.0333C41.9303 63.0232 43.6962 63.0232 45.462 63.0333C45.8708 63.0333 46.0838 62.908 46.046 62.4678C46.0186 62.1597 46.0083 61.8448 46.0529 61.5434C46.0838 61.3335 46.1938 60.9779 46.3106 60.961C46.6679 60.9102 47.1007 60.7341 47.3687 61.198C47.9115 62.1292 48.4646 63.0503 49.0143 63.9781C49.4884 64.7772 49.9556 65.5831 50.4366 66.3788C51.3573 67.8992 52.7315 68.3767 54.3977 67.7706C54.5832 67.7028 54.7756 67.6487 54.9542 67.564C55.418 67.3507 55.8337 67.3202 56.3594 67.5064C56.7785 67.6554 57.3213 67.5403 57.792 67.4489C58.1355 67.3811 58.4481 67.1543 58.7779 67.0019C59.362 66.7276 59.8945 66.4025 60.6331 66.6734C61.2034 66.8834 61.7909 66.582 62.3268 66.3077C62.8559 66.0368 63.0208 66.1283 63.0208 66.7073C63.0276 68.3022 63.0448 69.8971 63.0173 71.4919C62.9795 73.5643 61.4851 75.0034 59.386 75.0068C49.1517 75.0102 38.9174 75.0102 28.6831 75.0068C26.5394 75.0068 25.0175 73.5372 25.014 71.4242C24.9968 60.0264 25.0003 48.6354 25.0003 37.2477C25.0003 37.1224 25.014 36.9938 25.0278 36.8143L25.0312 36.8109ZM47.8256 40.0041C50.1858 40.0041 52.546 40.0041 54.9096 40.0041C55.1054 40.0041 55.3596 40.0413 55.4867 39.9431C55.6929 39.7806 55.9437 39.5165 55.9402 39.2997C55.9368 39.083 55.6723 38.8257 55.4593 38.6801C55.3081 38.5785 55.0436 38.6259 54.8306 38.6259C50.1583 38.6259 45.4861 38.6259 40.8138 38.6259C40.618 38.6259 40.4153 38.6259 40.2229 38.6598C39.8347 38.7241 39.6664 38.9814 39.6801 39.3573C39.6938 39.7975 39.9824 40.0075 40.6008 40.0075C43.0125 40.0108 45.4208 40.0075 47.8325 40.0075L47.8256 40.0041ZM51.5291 33.5365C52.7487 33.5365 53.9683 33.5467 55.1844 33.5331C55.8097 33.5263 56.1395 33.076 55.9162 32.5748C55.7581 32.2193 55.4352 32.1685 55.0917 32.1685C53.5766 32.1685 52.0616 32.1685 50.5465 32.1685C49.6739 32.1685 48.8013 32.1685 47.9287 32.1685C47.4993 32.1685 47.1832 32.3175 47.1282 32.7814C47.0733 33.2453 47.3687 33.5297 47.9253 33.5365C49.1277 33.5467 50.3301 33.5365 51.5325 33.5365H51.5291Z" fill="white"/>
<path d="M46.0354 54.2259C46.0354 52.6649 46.0457 51.1005 46.0285 49.5395C46.0216 49.0688 46.2003 48.9164 46.6709 48.9198C48.8181 48.9367 50.9653 48.9198 53.109 48.9367C53.3014 48.9367 53.6209 49.018 53.6518 49.1263C53.6999 49.2957 53.6037 49.5564 53.4835 49.7155C52.4666 51.0395 51.4428 52.3567 50.3916 53.6503C50.0549 54.0634 50.0583 54.4189 50.3194 54.8456C51.1577 56.217 52.7449 57.0093 54.1156 56.6199C54.6275 56.4743 55.1325 56.1459 55.5276 55.7801C56.4827 54.9065 57.3793 53.9686 58.2794 53.0407C58.5199 52.7936 58.7638 52.6852 59.1074 52.7292C59.5162 52.78 59.9285 52.8274 60.3407 52.8274C60.7186 52.8274 60.9316 52.9764 61.1034 53.3116C62.6356 56.2271 64.1816 59.1358 65.7241 62.0445C65.786 62.1597 65.8547 62.2714 65.9062 62.3899C66.0058 62.6236 66.2463 62.9588 66.1639 63.0841C65.8684 63.5344 65.4836 63.9374 65.0851 64.3065C65.013 64.3742 64.6763 64.2489 64.532 64.1338C64.3465 63.9848 64.216 63.7613 64.0854 63.5582C63.0857 62.0073 62.0928 60.453 61.0862 58.9056C60.9591 58.7092 60.7667 58.4484 60.5778 58.4247C60.327 58.3943 59.9972 58.5026 59.7979 58.6652C59.5162 58.8988 59.6261 59.2239 59.8117 59.5049C60.7152 60.9034 61.6153 62.3053 62.5154 63.7071C62.9654 64.4047 62.9654 64.4081 62.2302 64.7839C62.0688 64.8652 61.9073 64.9499 61.7458 65.0277C60.7702 65.512 60.3648 65.3901 59.8185 64.4386C59.2036 63.3618 58.5921 62.2816 57.9806 61.2048C57.5889 60.514 57.2522 60.3447 56.8125 60.6156C56.3796 60.8831 56.3762 61.2217 56.7644 61.882C57.3519 62.8809 57.9221 63.8866 58.5062 64.8855C58.7398 65.2885 58.6505 65.5526 58.2039 65.7151C57.9565 65.8066 57.7263 65.9352 57.4858 66.047C56.8571 66.3416 56.6304 66.3077 56.2491 65.7185C55.8059 65.0345 55.4211 64.3133 55.0123 63.6089C54.9402 63.4837 54.8714 63.3482 54.789 63.2297C54.5382 62.864 54.1603 62.7726 53.8064 62.996C53.4457 63.2263 53.353 63.5446 53.5625 63.9205C53.882 64.4893 54.2084 65.0548 54.5451 65.6136C54.7478 65.9556 54.7168 66.1926 54.2943 66.3145C54.1191 66.3653 53.9542 66.4364 53.7824 66.4973C52.8995 66.8089 52.3189 66.6294 51.7726 65.8743C51.6661 65.7287 51.5768 65.5729 51.4841 65.4172C50.45 63.6597 49.4056 61.9057 48.3887 60.1381C48.1104 59.6573 47.7497 59.4541 47.1897 59.4609C45.8945 59.4778 46.0423 59.6268 46.0388 58.3164C46.0354 56.9484 46.0388 55.5838 46.0388 54.2157L46.0354 54.2259Z" fill="white"/>
<path d="M70.0084 55.7836C70.0084 57.4428 70.0084 59.102 70.0084 60.7612C70.0084 61.3707 69.9603 61.4181 69.3213 61.4181C68.696 61.4181 68.0639 61.4486 67.4421 61.4012C67.2256 61.3843 66.9233 61.2353 66.8271 61.0558C65.2262 58.1065 63.6424 55.147 62.0758 52.1807C61.8663 51.7811 61.6292 51.5407 61.1482 51.5136C60.2928 51.4662 59.4408 51.3443 58.5854 51.3172C58.3277 51.3071 58.0013 51.4391 57.8124 51.6152C56.7543 52.6175 55.7339 53.6604 54.6861 54.6729C53.8891 55.4416 52.8275 55.4483 52.0167 54.7372C51.7282 54.4833 51.6972 54.2564 51.9446 53.9449C53.2054 52.3568 54.4456 50.7551 55.7099 49.1704C56.4726 48.2121 57.4173 47.6703 58.7297 47.7313C60.3924 47.8058 62.0621 47.7448 63.7283 47.7617C64.0169 47.7617 64.3226 47.8261 64.5872 47.9344C66.2431 48.6184 67.8852 49.3329 69.5411 50.0203C69.895 50.1693 70.029 50.3691 70.0255 50.7551C70.0049 52.4313 70.0152 54.104 70.0152 55.7802L70.0084 55.7836Z" fill="white"/>
<path d="M44.6132 54.3072C44.6132 56.5184 44.6132 58.7329 44.6132 60.9441C44.6132 61.601 44.5685 61.645 43.9192 61.6484C43.1428 61.6484 42.3664 61.6348 41.5934 61.6552C41.1742 61.6653 40.9956 61.5096 40.9956 61.0863C41.0025 56.5793 41.0025 52.0757 40.9956 47.5687C40.9956 47.1421 41.1914 46.9897 41.5968 46.9965C42.3904 47.0066 43.1806 47.0134 43.9742 46.9965C44.4448 46.9829 44.62 47.1658 44.6166 47.6297C44.6029 49.8578 44.6097 52.0859 44.6097 54.314L44.6132 54.3072Z" fill="white"/>
<path d="M74.9929 55.7633C74.9929 57.9744 74.9929 60.1856 74.9929 62.4001C74.9929 63.0232 74.938 63.0774 74.323 63.0807C73.5466 63.0807 72.7702 63.0706 71.9972 63.0841C71.5849 63.0909 71.396 62.9419 71.396 62.5153C71.4029 57.9778 71.4029 53.4404 71.396 48.9029C71.396 48.5135 71.5712 48.378 71.9319 48.3814C72.7564 48.3848 73.581 48.3984 74.4055 48.3747C74.8624 48.3611 75.0067 48.544 75.0033 48.9842C74.9895 51.2461 74.9964 53.5047 74.9964 55.7666L74.9929 55.7633Z" fill="white"/>
<path d="M35.6464 29.7677C35.6464 30.726 35.6567 31.6877 35.6464 32.646C35.6258 34.2171 34.4199 35.4192 32.8155 35.4361C30.8023 35.4565 28.7926 35.4463 26.7794 35.4328C26.6076 35.4328 26.3534 35.3447 26.2916 35.2228C26.2366 35.1178 26.3568 34.8571 26.4736 34.742C29.2839 31.9484 32.1078 29.1684 34.9387 26.3917C35.0589 26.2766 35.3166 26.1615 35.4334 26.2156C35.5536 26.2698 35.6361 26.5272 35.6395 26.6965C35.6567 27.7191 35.6498 28.7451 35.6498 29.7677H35.6464Z" fill="white"/>
</g>
<defs>
<clipPath id="clip0_53_215">
<rect width="50" height="50" fill="white" transform="translate(25 25)"/>
</clipPath>
</defs>
</svg>
