<svg width="30" height="30" viewBox="0 0 30 30" fill="none" xmlns="http://www.w3.org/2000/svg">
<g clip-path="url(#clip0_40_394)">
<path fill-rule="evenodd" clip-rule="evenodd" d="M0 15.084C0 22.5415 5.41625 28.7427 12.5 30.0002V19.1665H8.75V15.0002H12.5V11.6665C12.5 7.91649 14.9163 5.83399 18.3337 5.83399C19.4163 5.83399 20.5837 6.00024 21.6663 6.16649V10.0002H19.75C17.9163 10.0002 17.5 10.9165 17.5 12.084V15.0002H21.5L20.8337 19.1665H17.5V30.0002C24.5837 28.7427 30 22.5427 30 15.084C30 6.78774 23.25 0.000244141 15 0.000244141C6.75 0.000244141 0 6.78774 0 15.084Z" fill="#D5D9DB"/>
</g>
<defs>
<clipPath id="clip0_40_394">
<rect width="30" height="30" fill="white" transform="translate(0 0.000244141)"/>
</clipPath>
</defs>
</svg>
