<svg width="100" height="100" viewBox="0 0 100 100" fill="none" xmlns="http://www.w3.org/2000/svg">
<rect width="100" height="100" fill="#DF4F3A"/>
<g clip-path="url(#clip0_47_788)">
<path d="M25.0037 41.5653C25.0037 38.0753 25.0037 34.5852 25.0037 31.0951C25.0037 29.9059 25.2349 29.628 26.4511 29.4613C32.1271 28.6906 37.1893 26.464 41.8802 23.3259C42.1568 23.1406 42.5357 23.0183 42.8691 23.0183C47.2947 22.9998 51.7241 22.9998 56.1497 23.0183C56.4642 23.0183 56.828 23.1332 57.0856 23.3073C60.761 25.7711 64.6902 27.7199 69.0325 28.7795C70.2677 29.0834 71.5333 29.2686 72.7912 29.4872C73.6097 29.628 73.981 29.9911 73.981 30.7913C73.981 37.5455 74.034 44.3033 73.9545 51.0574C73.9052 55.407 72.4085 59.3713 69.9873 62.9725C65.1298 70.1824 58.5141 75.2026 50.11 77.9146C49.7462 78.0332 49.2764 78.0258 48.9088 77.9146C44.1005 76.503 39.8985 74.0207 36.0943 70.8641C32.5667 67.9372 29.6264 64.536 27.5424 60.4717C25.8714 57.2188 24.9772 53.7843 24.9999 50.1312C25.0189 47.2747 24.9999 44.4219 24.9999 41.5653H25.0037ZM70.5443 32.5956C70.4344 32.5549 70.4003 32.5364 70.3624 32.529C65.0994 31.5397 60.3101 29.4464 55.8655 26.5566C55.6647 26.4232 55.3692 26.375 55.1191 26.375C51.3982 26.3639 47.6774 26.3602 43.9566 26.3787C43.6231 26.3787 43.2404 26.4899 42.96 26.6714C40.2054 28.4313 37.3219 29.954 34.2073 31.0062C32.3393 31.6361 30.4221 32.1177 28.4669 32.6846C28.4669 32.755 28.448 32.9217 28.448 33.0847C28.448 38.9089 28.4404 44.7294 28.448 50.5535C28.4518 52.758 28.8913 54.892 29.7097 56.9446C31.2405 60.7866 33.6882 64.0247 36.6967 66.8664C40.266 70.238 44.3127 72.8833 49.049 74.4357C49.3408 74.532 49.7311 74.5172 50.0228 74.4134C56.3505 72.1831 61.5112 68.3707 65.6337 63.2171C68.987 59.0268 70.7224 54.3067 70.5746 48.9011C70.4344 43.6994 70.5443 38.4865 70.5443 33.2811C70.5443 33.0588 70.5443 32.8365 70.5443 32.5994V32.5956Z" fill="white"/>
<path d="M68.2595 43.0475C68.2595 45.2853 68.2217 47.5268 68.2671 49.7646C68.3581 54.1179 66.8121 57.9192 64.2091 61.3425C60.492 66.2294 55.7367 69.8343 49.9243 72.0721C49.697 72.161 49.3825 72.2017 49.1703 72.1202C41.5316 69.0674 35.632 64.1509 32.1044 56.741C31.1344 54.707 30.7328 52.521 30.7328 50.2721C30.7328 45.1593 30.7328 40.0465 30.729 34.9299C30.729 34.552 30.7821 34.3446 31.2329 34.2334C35.6623 33.1664 39.7394 31.3102 43.589 28.939C43.9187 28.7353 44.3582 28.6167 44.7485 28.613C47.954 28.5871 51.1596 28.5908 54.3651 28.613C54.7023 28.613 55.0774 28.7316 55.3616 28.9057C59.2227 31.2954 63.3148 33.1627 67.7632 34.2334C68.1383 34.326 68.2785 34.4705 68.2747 34.8707C68.2558 37.5938 68.2633 40.3206 68.2633 43.0438L68.2595 43.0475ZM53.7323 52.3506C55.5965 52.3506 57.3888 52.3506 59.1772 52.3506C59.9691 52.3506 60.1207 52.2061 60.1207 51.4466C60.1207 49.2829 60.1207 47.1192 60.1207 44.9518C60.1207 44.222 59.9577 44.0589 59.2189 44.0589C57.5972 44.0589 55.9754 44.0589 54.3537 44.0589C54.1529 44.0589 53.9521 44.0589 53.7323 44.0589C53.7323 42.1991 53.7323 40.4281 53.7323 38.6534C53.7323 37.9902 53.5656 37.8198 52.8949 37.8161C50.6443 37.8124 48.3936 37.8124 46.1391 37.8161C45.4229 37.8161 45.26 37.9754 45.26 38.6682C45.26 40.254 45.26 41.8397 45.26 43.4254C45.26 43.6218 45.26 43.8218 45.26 44.0552C43.3769 44.0552 41.5657 44.0552 39.7583 44.0552C39.046 44.0552 38.8755 44.2183 38.8755 44.9074C38.8755 47.1081 38.8717 49.3126 38.8755 51.5133C38.8755 52.1765 39.0498 52.3432 39.7166 52.3469C41.3573 52.3506 42.9979 52.3469 44.6386 52.3469C44.8394 52.3469 45.0365 52.3469 45.26 52.3469C45.26 54.192 45.26 55.9481 45.26 57.7006C45.26 58.4379 45.4154 58.5935 46.1542 58.5935C48.367 58.5935 50.5798 58.5935 52.7926 58.5935C53.5846 58.5935 53.7323 58.449 53.7323 57.6857C53.7323 55.9333 53.7323 54.1809 53.7323 52.3469V52.3506Z" fill="white"/>
</g>
<defs>
<clipPath id="clip0_47_788">
<rect width="49" height="55" fill="white" transform="translate(25 23)"/>
</clipPath>
</defs>
</svg>
