<svg width="32" height="32" viewBox="0 0 32 32" fill="none" xmlns="http://www.w3.org/2000/svg">
<path d="M15.996 11.105C13.3005 11.105 11.1009 13.3047 11.1009 16.0002C11.1009 18.6957 13.3005 20.8954 15.996 20.8954C18.6914 20.8954 20.8911 18.6957 20.8911 16.0002C20.8911 13.3047 18.6914 11.105 15.996 11.105ZM30.6776 16.0002C30.6776 13.973 30.696 11.9643 30.5822 9.94083C30.4683 7.59055 29.9322 5.50467 28.2136 3.78602C26.4913 2.0637 24.4091 1.53122 22.0589 1.41737C20.0318 1.30353 18.0231 1.32189 15.9996 1.32189C13.9726 1.32189 11.9638 1.30353 9.94043 1.41737C7.59019 1.53122 5.50435 2.06737 3.78573 3.78602C2.06344 5.50834 1.53097 7.59055 1.41713 9.94083C1.30329 11.968 1.32165 13.9767 1.32165 16.0002C1.32165 18.0236 1.30329 20.036 1.41713 22.0595C1.53097 24.4098 2.06712 26.4957 3.78573 28.2143C5.50802 29.9366 7.59019 30.4691 9.94043 30.583C11.9675 30.6968 13.9762 30.6784 15.9996 30.6784C18.0267 30.6784 20.0355 30.6968 22.0589 30.583C24.4091 30.4691 26.4949 29.933 28.2136 28.2143C29.9359 26.492 30.4683 24.4098 30.5822 22.0595C30.6997 20.036 30.6776 18.0273 30.6776 16.0002ZM15.996 23.5321C11.828 23.5321 8.46418 20.1683 8.46418 16.0002C8.46418 11.8321 11.828 8.46823 15.996 8.46823C20.164 8.46823 23.5278 11.8321 23.5278 16.0002C23.5278 20.1683 20.164 23.5321 15.996 23.5321ZM23.8362 9.9188C22.8631 9.9188 22.0772 9.13292 22.0772 8.15976C22.0772 7.18659 22.8631 6.40071 23.8362 6.40071C24.8094 6.40071 25.5952 7.18659 25.5952 8.15976C25.5955 8.39084 25.5502 8.61971 25.4619 8.83326C25.3736 9.0468 25.2441 9.24083 25.0807 9.40423C24.9173 9.56763 24.7233 9.69719 24.5097 9.78549C24.2962 9.87379 24.0673 9.91909 23.8362 9.9188Z" fill="#D5D9DB"/>
</svg>
