<svg width="24" height="25" viewBox="0 0 24 25" fill="none" xmlns="http://www.w3.org/2000/svg">
<path fill-rule="evenodd" clip-rule="evenodd" d="M12.2495 2.50024C16.7985 2.50024 20.4995 6.22924 20.4995 10.8132C20.4995 16.4482 14.0435 22.0002 12.2495 22.0002C10.4555 22.0002 3.99951 16.4482 3.99951 10.8132C3.99951 6.22924 7.70051 2.50024 12.2495 2.50024ZM12.2495 4.00024C8.52751 4.00024 5.49951 7.05724 5.49951 10.8132C5.49951 15.5922 11.1235 20.2482 12.2495 20.4962C13.3755 20.2472 18.9995 15.5912 18.9995 10.8132C18.9995 7.05724 15.9715 4.00024 12.2495 4.00024ZM12.2505 7.50024C14.0425 7.50024 15.5005 8.95824 15.5005 10.7512C15.5005 12.5432 14.0425 14.0002 12.2505 14.0002C10.4585 14.0002 9.00051 12.5432 9.00051 10.7512C9.00051 8.95824 10.4585 7.50024 12.2505 7.50024ZM12.2505 9.00024C11.2855 9.00024 10.5005 9.78524 10.5005 10.7512C10.5005 11.7162 11.2855 12.5002 12.2505 12.5002C13.2155 12.5002 14.0005 11.7162 14.0005 10.7512C14.0005 9.78524 13.2155 9.00024 12.2505 9.00024Z" fill="white"/>
</svg>
