<svg width="270" height="74" viewBox="0 0 270 74" fill="none" xmlns="http://www.w3.org/2000/svg">
<path d="M98.1224 24.5328V25.2005H96.1573V40.5969C96.1573 47.1599 93.0857 49.7927 87.4575 49.7927C83.6418 49.7927 81.1807 48.2665 81.1807 45.5764C81.1807 43.535 82.4208 42.2949 84.3477 42.2949C86.4082 42.2949 87.3049 43.4778 87.3049 45.0422C87.3049 45.6527 87.1713 46.2823 86.9042 46.9691H85.5115C85.3016 47.3316 85.1872 47.6178 85.1872 47.904C85.1872 48.648 85.8931 49.1441 86.9424 49.1441C88.8312 49.1441 89.1937 48.152 89.1937 43.1534V25.1814H86.5227V24.5137H98.1033L98.1224 24.5328Z" fill="#DF4F3A"/>
<path d="M121.724 46.32V39.3944H119.434V38.6122H129.698V39.3944H128.306V49.4488H127.771C127.352 48.8383 126.951 48.5521 125.959 48.5521C124.528 48.5521 121.857 49.8304 118.747 49.8304C111.192 49.8304 106.556 45.843 106.556 37.3149C106.556 28.7868 111.555 24.1316 118.862 24.1316C122.563 24.1316 124.49 25.2382 125.749 25.2382C126.322 25.2382 126.455 24.9901 126.703 24.5323H127.104L127.39 32.2781H126.741C124.738 28.2907 122.429 24.8566 119.282 24.8566C115.752 24.8566 113.825 28.1381 113.825 35.5215V38.3451C113.825 45.5759 115.714 49.1436 118.995 49.1436C121.495 49.1436 121.705 48.1515 121.705 46.32H121.724Z" fill="#DF4F3A"/>
<path d="M166.385 24.5322V25.2H164.42V48.8001H166.385V49.487H155.51V48.8001H157.476V26.5164H157.342L152 49.487H147.536L141.259 26.421H141.125V48.8192H143.09V49.506H138.244V48.8192H140.209V25.2191H138.244V24.5513H147.879L152.63 42.9239L156.903 24.5513H166.423L166.385 24.5322Z" fill="#DF4F3A"/>
<path d="M179.035 24.5322V25.2H177.07V48.8001H179.035V49.487H168.16V48.8001H170.125V25.2H168.16V24.5322H179.035Z" fill="#DF4F3A"/>
<path d="M193.516 24.5322V25.3144H189.739V48.7047H191.017C195.443 48.7047 197.408 45.4995 199.507 41.1496H200.251L199.583 49.487H180.676V48.7047H182.775V25.3144H180.676V24.5322H193.516Z" fill="#DF4F3A"/>
<path d="M214.768 24.5322V25.3144H210.99V48.7047H212.269C216.695 48.7047 218.66 45.4995 220.759 41.1496H221.503L220.835 49.487H201.928V48.7047H204.027V25.3144H201.928V24.5322H214.768Z" fill="#DF4F3A"/>
<path d="M241.744 24.5328L242.107 31.5918H241.458C239.493 26.9176 237.814 25.315 233.502 25.315H232.262V36.3233H233.483C235.792 36.3233 237.299 34.3582 237.91 31.649H238.444V42.1995H237.833C236.975 38.6318 235.62 37.2391 233.121 37.2391H232.262V48.6862H233.617C238.138 48.6862 241.286 45.5764 242.355 41.7034H243.061L242.775 49.4684H223.2V48.6862H225.299V25.2959H223.2V24.5137H241.744V24.5328Z" fill="#DF4F3A"/>
<path d="M254.511 36.8765V48.8197H256.819V49.5065H245.239V48.8197H247.547V25.2195H245.239V24.5518H255.999C263.459 24.5518 267.007 25.334 267.007 30.5424C267.007 34.8923 264.718 36.1706 260.94 36.4949V36.6094C264.794 37.1054 266.111 38.6126 266.111 42.7336V44.6224C266.111 46.9309 266.225 47.7513 267.217 47.7513C267.866 47.7513 268.4 47.4651 268.858 44.6796L269.469 44.7559C268.934 48.8197 267.942 49.8499 264.623 49.8499C260.12 49.8499 258.804 48.3618 258.804 43.3251V40.7304C258.804 38.1929 258.308 36.8765 256.381 36.8765H254.492H254.511ZM254.511 36.1897H255.656C258.288 36.1897 259.643 34.7206 259.643 30.8858V29.8556C259.643 25.8682 258.174 25.2195 255.694 25.2195H254.511V36.2088V36.1897Z" fill="#DF4F3A"/>
<path d="M61.0521 26.7256V25.9243H48.4602L42.7939 47.5975L36.5171 25.9243H32.7395V43.7628L36.0973 55.3816H41.9926L49.0707 28.2901H49.2615V54.5994H46.6668V55.3816H61.0521V54.5994H58.4574V26.7256H61.0521Z" fill="#DF4F3A"/>
<path d="M18.7531 55.992C17.4939 55.992 18.7531 59.0255 20.3366 59.0255C22.4352 59.0255 22.9504 57.4802 22.9504 50.7645V26.8019H19.9169V25.9624H31.612V44.1443C31.612 53.8362 28.6358 59.8078 20.3748 59.8078C14.7275 59.8078 12.915 57.0032 12.915 54.6375C12.915 51.8329 14.8801 50.4402 17.2077 50.4402C19.6879 50.4402 20.7945 52.0237 20.7945 54.027C20.7945 55.2098 20.0313 55.992 18.734 55.992H18.7531ZM27.1667 14.1719C24.553 14.1719 22.4543 16.2896 22.4543 18.8843C22.4543 21.4789 24.572 23.5967 27.1667 23.5967C29.7614 23.5967 31.8791 21.4789 31.8791 18.8843C31.8791 16.2896 29.7614 14.1719 27.1667 14.1719Z" fill="#DF4F3A"/>
<path d="M36.9933 74.0025C16.5983 74.0025 0 57.4041 0 37.0092C0 16.6142 16.5983 0.0158691 36.9933 0.0158691C57.3883 0.0158691 73.9866 16.6142 73.9866 37.0092C73.9866 57.4041 57.3883 74.0025 36.9933 74.0025ZM36.9933 1.94281C17.6667 1.94281 1.94601 17.6635 1.94601 36.9901C1.94601 56.3167 17.6667 72.0374 36.9933 72.0374C56.3199 72.0374 72.0406 56.3167 72.0406 36.9901C72.0406 17.6635 56.3199 1.94281 36.9933 1.94281Z" fill="#DF4F3A"/>
</svg>
