<svg width="100" height="100" viewBox="0 0 100 100" fill="none" xmlns="http://www.w3.org/2000/svg">
<rect width="100" height="100" fill="#DF4F3A"/>
<path d="M40.3634 66.8451C40.3328 67.1495 40.3591 67.4674 40.4701 67.7824C40.741 68.5419 41.3767 69.1605 42.1298 69.3938C42.8295 69.6149 43.5257 69.4677 43.7369 69.238L45.1968 67.6714C45.6192 67.2199 45.7259 66.4981 45.4777 65.7977C44.8669 64.6272 44.0484 64.2048 43.0002 64.0156L40.3634 66.8451Z" fill="white"/>
<path d="M38.411 59.0118L35.8595 61.7481C35.3411 62.312 35.1925 63.1789 35.4819 64.0095C35.7891 64.887 36.5223 65.6009 37.3998 65.8676C38.2304 66.1165 39.0638 65.9231 39.5857 65.3677L41.9481 62.834C42.47 62.2715 42.6151 61.4089 42.3257 60.5784C42.0185 59.6966 41.281 58.9855 40.4078 58.7202C39.7109 58.4976 38.8931 58.4891 38.411 59.0118Z" fill="white"/>
<path d="M33.351 54.51L30.9951 57.0394C30.476 57.599 30.331 58.4687 30.6175 59.3021C30.9247 60.1768 31.6579 60.8908 32.5354 61.1574C33.3646 61.4099 34.2065 61.2129 34.4689 60.9349L37.0844 58.1281C37.6063 57.5642 37.7514 56.6973 37.462 55.8682C37.1534 54.9878 36.4202 54.2767 35.5427 54.0129C34.7356 53.7498 33.8424 53.9837 33.351 54.51Z" fill="white"/>
<path d="M28.745 49.5235L26.1338 52.3317C25.6118 52.8942 25.4667 53.7567 25.7562 54.5831C26.0605 55.4677 26.7979 56.1788 27.6755 56.4455C28.5046 56.6929 29.3451 56.5009 29.6047 56.2193L32.223 53.4126V53.4097C32.745 52.8543 32.89 51.9903 32.6006 51.1612C32.2977 50.2766 31.5603 49.5655 30.6827 49.3016C30.0122 49.0705 29.2008 49.0307 28.745 49.5235Z" fill="white"/>
<path d="M62.6445 32.7754C60.9556 33.7197 58.6083 33.889 56.322 34.0533C54.5926 34.1713 52.8084 34.2965 51.5263 34.7701L44.3974 37.4005C44.3491 37.4197 44.3 37.431 44.2488 37.4381C43.9046 37.4922 43.586 37.5384 43.3002 37.5782C41.5643 37.8229 41.3638 37.8975 41.164 38.4117C40.9819 38.8867 41.1818 39.5715 41.6753 40.1532C42.0778 40.631 43.6529 42.1229 46.8934 41.3557L50.9531 40.8195C53.2266 40.5265 55.0491 42.0085 56.5048 43.2045L67.4225 51.9384L67.431 51.9341C69.5892 51.031 71.8378 49.8563 73.7492 47.5537L62.6445 32.7754Z" fill="white"/>
<path d="M47.623 32.2459C46.9759 32.3056 46.2342 32.3874 45.4562 32.4684C41.1533 32.9278 38.7675 33.1084 37.5537 32.8837L26.3828 47.4238C26.7938 47.8128 27.1345 48.2167 27.4089 48.654C28.3426 47.6983 29.7535 47.357 31.1273 47.7723C32.4756 48.179 33.6013 49.272 34.0721 50.6281C34.2719 51.2019 34.3345 51.7907 34.2833 52.3547C34.8344 52.2771 35.4168 52.3091 35.9899 52.4841C37.3346 52.888 38.4646 53.9838 38.9318 55.3399C39.1345 55.9109 39.1985 56.4983 39.1501 57.0622C39.7012 56.9847 40.2836 57.0174 40.8568 57.1959C42.1986 57.6026 43.3236 58.6956 43.7944 60.0446C44.0902 60.9001 44.1016 61.7804 43.8612 62.5698C43.9985 62.5961 44.1393 62.6295 44.2793 62.6736C45.4833 63.0469 46.5058 64.0361 46.946 65.2556C47.3656 66.4361 47.1835 67.6763 46.4945 68.5666L48.4763 70.1516C48.9613 70.5363 49.6681 70.5783 50.3281 70.2583C51.0434 69.9113 51.5839 69.2066 51.7432 68.4179C51.81 68.0887 51.788 67.7694 51.7126 67.4736L49.1988 65.4626C48.861 65.1916 48.8013 64.6917 49.0651 64.3447C49.3318 64.0005 49.821 63.9365 50.1609 64.2074L53.1832 66.6295C53.4833 66.8699 54.343 66.9338 55.1316 66.5626C55.9608 66.1666 56.5873 65.3502 56.7608 64.4393C56.9272 63.5781 56.6605 62.7433 56.0674 62.2654L53.3339 60.078C52.9933 59.8071 52.9336 59.3058 53.2002 58.963C53.4641 58.6146 53.9561 58.5506 54.2932 58.8258L58.2669 62.0037C58.8642 62.4787 59.7225 62.5442 60.5154 62.1744C61.3375 61.7811 61.964 60.9662 62.1418 60.0453C62.3081 59.1842 62.0415 58.3522 61.442 57.87L57.4669 54.6963C57.1263 54.4226 57.0665 53.9226 57.3332 53.5728C57.5999 53.23 58.0891 53.1703 58.4305 53.4405C58.4305 53.4405 64.4664 58.2668 64.4706 58.2668C64.7707 58.5029 65.6262 58.5698 66.4113 58.1943C67.2418 57.8067 67.8641 56.9918 68.0447 56.0738C68.2082 55.2112 67.9416 54.3735 67.3449 53.8999L55.5313 44.4457C54.1759 43.3342 52.7757 42.1829 51.1494 42.4012L47.1714 42.9203C44.4898 43.5646 41.9604 42.9275 40.4977 41.198C39.6159 40.1563 39.3158 38.8677 39.7119 37.8316C40.2673 36.3945 41.3311 36.2459 43.0868 35.9984C43.3492 35.965 43.6315 35.9237 43.9423 35.8747L50.9979 33.272C51.4566 33.1013 51.9643 32.9833 52.4898 32.8787C50.6758 32.1769 49.3609 32.1349 47.623 32.2459Z" fill="white"/>
<path d="M32.2872 29.491C31.0022 29.3936 29.8289 30.3621 28.14 32.5616L23.8207 38.1879C22.2584 40.2174 21.6731 41.4797 21.8025 42.5492C21.9064 43.4281 22.5179 44.2907 23.1245 44.7771L25.1732 46.4133L36.2985 31.933L34.8585 30.7803C33.8687 29.9909 33.058 29.5508 32.2872 29.491Z" fill="white"/>
<path d="M67.9638 29.4755C67.193 29.5238 66.3752 29.9548 65.3775 30.7327L63.9219 31.862L74.8929 46.4604L76.3109 45.3574C77.5375 44.406 78.1633 43.5548 78.2778 42.6765C78.4193 41.6099 77.8525 40.3377 76.3151 38.2819L72.0662 32.6015C70.4108 30.3793 69.2524 29.393 67.9638 29.4755Z" fill="white"/>
</svg>
