<svg width="24" height="24" viewBox="0 0 24 24" fill="none" xmlns="http://www.w3.org/2000/svg">
<path fill-rule="evenodd" clip-rule="evenodd" d="M16.659 2.00024C19.989 2.00024 22.5 4.71724 22.5 8.32024V15.1882C22.5 17.0322 21.848 18.6982 20.663 19.8802C19.6 20.9392 18.221 21.5002 16.675 21.5002H6.822C5.279 21.5002 3.901 20.9402 2.837 19.8802C1.652 18.6982 1 17.0322 1 15.1882V8.32024C1 4.71724 3.511 2.00024 6.841 2.00024H16.659ZM16.659 3.50024H6.841C4.326 3.50024 2.5 5.52724 2.5 8.32024V15.1882C2.5 16.6312 2.996 17.9202 3.896 18.8172C4.672 19.5922 5.685 20.0002 6.825 20.0002H16.659C16.661 19.9982 16.669 20.0002 16.675 20.0002C17.816 20.0002 18.828 19.5922 19.604 18.8172C20.505 17.9202 21 16.6312 21 15.1882V8.32024C21 5.52724 19.174 3.50024 16.659 3.50024ZM18.235 8.12904C18.496 8.45004 18.447 8.92204 18.126 9.18404L13.682 12.796C13.12 13.242 12.448 13.465 11.777 13.465C11.108 13.465 10.441 13.244 9.883 12.802L5.398 9.18604C5.075 8.92604 5.025 8.45304 5.284 8.13104C5.545 7.81004 6.017 7.75904 6.339 8.01804L10.82 11.63C11.383 12.076 12.176 12.076 12.743 11.626L17.179 8.02004C17.501 7.75704 17.973 7.80704 18.235 8.12904Z" fill="white"/>
</svg>
