<svg width="22" height="26" viewBox="0 0 22 26" fill="none" xmlns="http://www.w3.org/2000/svg">
<path d="M21.5958 19.9232L16.5758 14.8196C16.3385 14.5785 16.0267 14.4498 15.7061 14.4609C15.3856 14.472 15.0815 14.6219 14.858 14.879L11.9028 18.2772C11.1914 18.1253 9.76136 17.6269 8.2893 15.985C6.81725 14.3377 6.37143 12.7346 6.23929 11.9447L9.27603 8.639C9.50623 8.38924 9.6405 8.04913 9.65041 7.69065C9.66033 7.33216 9.5451 6.98343 9.32913 6.71826L4.766 1.10654C4.54994 0.840533 4.24965 0.679179 3.9289 0.656748C3.60815 0.634317 3.29222 0.752576 3.04819 0.986409L0.368362 3.55614C0.154854 3.79574 0.0274177 4.11462 0.0102278 4.4523C-0.00829643 4.79751 -0.361491 12.9748 5.30938 19.3184C10.2566 24.8486 16.4535 25.2532 18.1602 25.2532C18.4097 25.2532 18.5628 25.2449 18.6036 25.2422C18.9055 25.2233 19.1906 25.0801 19.4038 24.8403L21.7008 21.8425C21.9108 21.5706 22.0173 21.2176 21.9977 20.859C21.9781 20.5004 21.8339 20.1645 21.5958 19.9232Z" fill="black"/>
</svg>
