<svg width="100" height="100" viewBox="0 0 100 100" fill="none" xmlns="http://www.w3.org/2000/svg">
<rect width="100" height="100" fill="#DF4F3A"/>
<path d="M50.0039 20C45.5892 20 42.0019 23.5794 42.0019 27.9941V31.0001C42.0019 35.4147 45.5892 39.002 50.0039 39.002C54.4186 39.002 57.998 35.4147 57.998 31.0001V27.9941C57.998 23.5794 54.4186 20 50.0039 20ZM47 39.9942L40.9961 39.998C40.6959 39.9988 40.412 40.1344 40.2227 40.3672L25.1426 58.9981H33.7539L39.998 51.7051L40 58.9981H60V51.6856L66.334 58.9981H74.8594L59.7793 40.3672C59.5882 40.1321 59.301 39.9965 58.9981 39.998L53.0059 39.9942C52.6922 39.9952 52.3971 40.1434 52.209 40.3945L49.9766 43.3282L47.7989 40.4043C47.6124 40.1492 47.3161 39.997 47 39.9942ZM21 61C20.4508 61.0021 20.0061 61.4469 20.0039 61.9961V68.9981H80.0039V61.9961C80.0019 61.4439 79.5523 60.9979 79 61C59.6667 61 40.3333 61 21 61ZM23.9961 71V78.9961C23.9941 79.5521 24.4459 80.0032 25.0019 80H74.998C75.5534 80.002 76.0041 79.5514 76.0019 78.9961V71H23.9961Z" fill="white"/>
</svg>
