<svg width="32" height="32" viewBox="0 0 32 32" fill="none" xmlns="http://www.w3.org/2000/svg">
<path d="M31.5239 6.58293C30.4106 7.07626 29.2146 7.4096 27.9573 7.56027C29.2546 6.78399 30.2252 5.56222 30.6879 4.12293C29.4691 4.84692 28.1351 5.35653 26.7439 5.6296C25.8084 4.63075 24.5693 3.9687 23.219 3.74623C21.8687 3.52376 20.4827 3.75332 19.2763 4.39927C18.0698 5.04522 17.1103 6.07141 16.5468 7.31854C15.9833 8.56566 15.8473 9.96393 16.1599 11.2963C13.6902 11.1723 11.2741 10.5303 9.0685 9.41214C6.8629 8.29395 4.91706 6.72448 3.35727 4.8056C2.82393 5.7256 2.51727 6.79227 2.51727 7.92827C2.51667 8.95093 2.76851 9.95792 3.25044 10.8599C3.73237 11.7619 4.42948 12.531 5.27993 13.0989C4.29364 13.0675 3.3291 12.801 2.4666 12.3216V12.4016C2.4665 13.8359 2.96264 15.2261 3.87084 16.3363C4.77905 17.4464 6.04336 18.2082 7.44927 18.4923C6.53431 18.7399 5.57505 18.7764 4.64393 18.5989C5.0406 19.8331 5.81326 20.9123 6.85376 21.6855C7.89425 22.4587 9.15049 22.8872 10.4466 22.9109C8.24638 24.6381 5.52912 25.5751 2.73193 25.5709C2.23644 25.5711 1.74137 25.5421 1.24927 25.4843C4.08857 27.3098 7.39372 28.2787 10.7693 28.2749C22.1959 28.2749 28.4426 18.8109 28.4426 10.6029C28.4426 10.3363 28.4359 10.0669 28.4239 9.80026C29.639 8.92156 30.6878 7.83346 31.5213 6.58693L31.5239 6.58293Z" fill="#D5D9DB"/>
</svg>
