<svg width="100" height="100" viewBox="0 0 100 100" fill="none" xmlns="http://www.w3.org/2000/svg">
<rect width="100" height="100" fill="#DF4F3A"/>
<g clip-path="url(#clip0_47_771)">
<path d="M51.3669 25.0262C51.3669 25.2318 51.3669 25.4068 51.3669 25.5817C51.3669 28.6873 51.3669 31.7973 51.3669 34.9029C51.3669 36.2282 51.8568 36.7138 53.1996 36.7138C56.2921 36.7138 59.3802 36.7138 62.4726 36.7138C62.652 36.7138 62.8269 36.7138 63.0763 36.7138C63.0763 36.9106 63.0763 37.0812 63.0763 37.2518C63.0763 38.9926 63.0631 40.7335 63.085 42.4744C63.0894 42.8768 62.98 43.1655 62.687 43.4542C59.5989 46.5073 56.5327 49.5866 53.4446 52.6397C52.596 53.4839 51.9792 54.4462 51.6206 55.5922C51.2182 56.8782 50.7501 58.1467 50.3521 59.4327C49.5473 62.0353 51.5725 64.4847 54.2844 64.2048C54.4462 64.1873 54.6081 64.1611 54.7612 64.1086C56.2265 63.623 57.6874 63.1375 59.1527 62.6432C60.1456 62.3108 60.9767 61.7334 61.7072 60.9898C62.1227 60.5656 62.5558 60.1632 63.0763 59.6514V60.1632C63.0763 63.5618 63.0763 66.9648 63.0763 70.3635C63.0763 71.8857 62.5251 73.1498 61.2916 74.0858C60.4868 74.6982 59.5639 74.9825 58.5622 74.9825C48.8649 74.9869 39.172 74.9956 29.4747 74.9825C26.8371 74.9781 25.0044 73.0404 25.0044 70.346C25 60.4256 25 50.5008 25 40.5761C25 36.915 24.9912 33.2539 25 29.5928C25.0131 27.725 25.8004 26.2816 27.5107 25.468C28.0924 25.1925 28.7879 25.0219 29.4309 25.0219C36.67 24.9912 43.9091 25 51.1482 25C51.1963 25 51.2444 25.0087 51.3669 25.0262ZM42.5269 39.6488C39.2595 39.6488 35.9876 39.6488 32.7202 39.6488C31.5523 39.6488 30.87 40.1911 30.87 41.1141C30.87 42.037 31.5567 42.575 32.7246 42.575C39.2813 42.575 45.8337 42.575 52.3904 42.575C52.5697 42.575 52.7491 42.5838 52.9284 42.5619C53.707 42.4744 54.2581 41.8358 54.2319 41.0616C54.2057 40.2218 53.5714 39.6531 52.631 39.6531C49.2629 39.6531 45.8949 39.6531 42.5313 39.6531L42.5269 39.6488ZM39.605 48.4319C42.0107 48.4319 44.4209 48.4363 46.8266 48.4319C47.7626 48.4319 48.4013 47.7889 48.3706 46.9185C48.3444 46.0786 47.7058 45.51 46.7654 45.51C42.8943 45.51 39.0233 45.51 35.1522 45.51C34.2249 45.51 33.2976 45.5013 32.3703 45.51C31.7011 45.5188 31.1805 45.8774 30.9618 46.4504C30.5857 47.439 31.2986 48.4231 32.4272 48.4275C34.8198 48.4363 37.208 48.4275 39.6006 48.4275L39.605 48.4319ZM39.6531 51.3669C37.2605 51.3669 34.8723 51.3669 32.4796 51.3669C31.7317 51.3669 31.2024 51.7081 30.9706 52.3029C30.5813 53.309 31.3118 54.2888 32.4753 54.2888C36.0839 54.2931 39.6969 54.2888 43.3055 54.2888C44.4908 54.2888 45.6806 54.2975 46.866 54.2888C47.7495 54.28 48.3706 53.6633 48.3706 52.8322C48.3706 51.9836 47.7408 51.3713 46.8222 51.3713C44.4296 51.3625 42.0414 51.3713 39.6487 51.3713L39.6531 51.3669ZM39.5963 57.2238C37.2386 57.2238 34.881 57.2238 32.5234 57.2238C31.5348 57.2238 30.8656 57.823 30.87 58.6891C30.87 59.5552 31.5392 60.1457 32.5321 60.15C33.9143 60.15 35.2965 60.15 36.6788 60.15C40.0293 60.15 43.3798 60.15 46.7304 60.15C47.2859 60.15 47.7626 60.0057 48.0994 59.5464C48.4319 59.0871 48.48 58.5797 48.2438 58.068C47.9682 57.4775 47.4696 57.2194 46.8266 57.2194C44.4209 57.2194 42.0107 57.2194 39.605 57.2194L39.5963 57.2238ZM48.3881 68.9375C49.7878 68.9375 51.1832 68.9375 52.5829 68.9375C53.5802 68.9375 54.2319 68.3558 54.2319 67.4766C54.2319 66.5974 53.5845 66.0157 52.5829 66.0157C49.7878 66.0157 46.9884 66.0157 44.1934 66.0157C43.1961 66.0157 42.5444 66.6018 42.5444 67.4766C42.5444 68.3558 43.1961 68.9375 44.1934 68.9375C45.5931 68.9375 46.9884 68.9375 48.3881 68.9375Z" fill="white"/>
<path d="M65.7792 44.5696C67.1308 45.9212 68.4912 47.2859 69.8252 48.6243C66.6628 51.7868 63.4697 54.9799 60.316 58.1336C58.9819 56.7995 57.6085 55.426 56.2656 54.0832C59.4018 50.947 62.5949 47.7539 65.7792 44.5696Z" fill="white"/>
<path d="M54.2451 25.0088C55.6404 25.0044 56.769 25.4637 57.7006 26.391C59.026 27.7076 60.3557 29.0242 61.6679 30.3582C62.6477 31.3555 63.0851 32.5059 62.9933 33.7613H54.2451V25.0088Z" fill="white"/>
<path d="M71.9601 46.4155C70.6523 45.0989 69.2919 43.7342 68.0278 42.4613C68.7714 41.6608 69.4756 40.751 70.3286 40.0118C71.3827 39.102 73.2111 39.3076 74.1647 40.3049C75.1926 41.3765 75.3063 43.0606 74.3221 44.1672C73.6004 44.9764 72.7518 45.6719 71.9601 46.4155Z" fill="white"/>
<path d="M57.7923 60.0232C56.5457 60.4344 55.3078 60.863 54.0612 61.2523C53.4619 61.4404 52.9546 60.9636 53.1383 60.36C53.5232 59.0915 53.965 57.8405 54.3718 56.6114C55.509 57.7443 56.6288 58.8641 57.7923 60.0232Z" fill="white"/>
</g>
<defs>
<clipPath id="clip0_47_771">
<rect width="50" height="50" fill="white" transform="translate(25 25)"/>
</clipPath>
</defs>
</svg>
